# CC0 source: https://opengameart.org/content/m4a1-assault-rifle
# Blender evaluated geometry, world transforms and pose baked. Z-up, centered XYZ; OBJ UV convention.
mtllib m4a1_magazine.mtl
v -0.010788638 -0.04316419 0.018025519
v -0.005394319 -0.04316419 0.018025519
v -0.005394319 -0.043164182 0.09263657
v -0.010788638 -0.043164182 0.09263657
v 0.010788638 -0.04316419 0.018025519
v 0.010788638 -0.035698276 0.018025519
v 0.010788638 -0.035698272 0.09263657
v 0.010788638 -0.043164182 0.09263657
v 0 0.025617464 0.092636563
v 0 0.025617464 0.018025519
v -0.010788638 0.025617464 0.018025519
v -0.010788638 0.025617464 0.092636563
v -0.010788638 -0.035698272 0.09263657
v -0.010788638 -0.035698276 0.018025519
v -0.010788638 -0.04316419 0.018025519
v -0.010788638 -0.043164182 0.09263657
v -0.00348627 -0.0129649 -0.075583354
v -0.00348627 -0.018732 -0.075583354
v 0 -0.018732 -0.075583354
v 0 -0.0129649 -0.075583354
v -0.010788638 -0.01197168 -0.093990438
v -0.005394319 -0.01197168 -0.093990438
v -0.005394319 -0.0189963 -0.095902771
v -0.010788638 -0.0189963 -0.095902771
v -0.010788638 -0.035020679 -0.000757761
v -0.010788638 -0.042486589 -0.000757761
v -0.010788638 -0.042486589 -0.000757761
v -0.005394319 -0.042486589 -0.000757761
v 0.010788638 -0.042486589 -0.000757761
v 0.010788638 -0.035020679 -0.000757761
v 0 0.026295064 -0.000757761
v -0.010788638 0.026295064 -0.000757761
v -0.010788638 -0.031180911 -0.024524357
v -0.010788638 -0.038646825 -0.024524357
v -0.010788638 -0.038646825 -0.024524357
v -0.005394319 -0.038646825 -0.024524357
v 0.010788638 -0.038646825 -0.024524357
v 0.010788638 -0.031180911 -0.024524357
v 0 0.030134829 -0.024524366
v -0.010788638 0.030134829 -0.024524366
v -0.010788638 -0.026211811 -0.043946527
v -0.010788638 -0.033677731 -0.043946527
v -0.010788638 -0.033677731 -0.043946527
v -0.005394319 -0.033677731 -0.043946527
v 0.010788638 -0.033677731 -0.043946527
v 0.010788638 -0.026211811 -0.043946527
v 0 0.035103928 -0.043946527
v -0.010788638 0.035103928 -0.043946527
v -0.010788638 -0.01197168 -0.093990438
v -0.010788638 -0.0189963 -0.095902771
v -0.010788638 -0.0189963 -0.095902771
v -0.005394319 -0.0189963 -0.095902771
v 0.010788638 -0.0189963 -0.095902771
v 0.010788638 -0.01197168 -0.093990438
v 0 0.045719732 -0.078285031
v -0.010788638 0.045719732 -0.078285031
v -0.008367051 -0.037942544 0.096597672
v -0.008367051 -0.032012366 0.096597672
v -0.010788638 -0.03372914 0.096597672
v -0.010788638 -0.040135361 0.096597672
v -0.008367051 0.02306192 0.092636563
v 0 0.02306192 0.092636563
v 0 0.025617464 0.092636563
v -0.010788638 0.025617464 0.092636563
v 0.010788638 -0.03372914 0.096597672
v 0.00836705 -0.032012366 0.096597672
v 0.00836705 -0.037942544 0.096597672
v 0.010788638 -0.040135361 0.096597672
v 0 -0.043164182 0.07710135
v 0 -0.040608633 0.07710135
v -0.003944473 -0.040608633 0.07710135
v -0.00508608 -0.043164182 0.07710135
v -0.008367051 -0.040608637 -0.003483183
v -0.008367051 -0.033697516 -0.003483183
v -0.008367051 -0.033697508 0.09263657
v -0.008367051 -0.040608633 0.09263657
v -0.008367051 0.023061913 -0.003483191
v 0 0.023061913 -0.003483191
v 0 0.02306192 0.092636563
v -0.008367051 0.02306192 0.092636563
v 0.00836705 -0.033697508 0.09263657
v 0.00836705 -0.033697516 -0.003483183
v 0.00836705 -0.040608637 -0.003483183
v 0.00836705 -0.040608633 0.09263657
v 0 -0.040608633 0.07710135
v 0 -0.040608637 -0.003483183
v -0.00348627 -0.040608637 -0.003483183
v -0.003944473 -0.040608633 0.07710135
v -0.008367051 -0.018732 -0.075583354
v -0.008367051 -0.0129649 -0.075583354
v -0.008367051 0.034398884 -0.075583354
v 0 0.034398884 -0.075583354
v 0.00836705 -0.0129649 -0.075583354
v 0.00836705 -0.018732 -0.075583354
v 0 -0.018732 -0.075583354
v -0.00348627 -0.018732 -0.075583354
v -0.010788638 0.032161735 -0.081975944
v -0.010788638 0.020694181 -0.043946527
v -0.010788638 0.035103928 -0.043946527
v -0.010788638 0.045719732 -0.078285031
v -0.010788638 0.015725082 -0.024524366
v -0.010788638 0.030134829 -0.024524366
v -0.010788638 0.011885317 -0.000757761
v -0.010788638 0.026295064 -0.000757761
v -0.010788638 0.011207717 0.018025519
v -0.010788638 0.025617464 0.018025519
v -0.010788638 0.011207724 0.092636563
v -0.010788638 0.025617464 0.092636563
v -0.010788638 0.011207724 0.092636563
v -0.008367051 0.009722949 0.092636563
v -0.008367051 0.009722949 0.092636563
v -0.008367051 0.009722942 -0.003483191
v -0.008367051 0.023061913 -0.003483191
v -0.008367051 0.02306192 0.092636563
v -0.008367051 0.023267971 -0.075583354
v -0.008367051 0.034398884 -0.075583354
v -0.008367051 0.023267971 -0.075583354
v 0 0.023267971 -0.075583354
v 0 0.034398884 -0.075583354
v -0.008367051 0.034398884 -0.075583354
v 0.00836705 0.023267971 -0.075583354
v 0.00836705 0.009722942 -0.003483191
v 0.00836705 0.023061913 -0.003483191
v 0.00836705 0.034398884 -0.075583354
v 0.00836705 0.009722949 0.092636563
v 0.00836705 0.02306192 0.092636563
v 0.00836705 0.009722949 0.092636563
v 0.010788638 0.011207724 0.092636563
v 0.010788638 0.025617464 0.092636563
v 0.00836705 0.02306192 0.092636563
v 0.010788638 0.011207724 0.092636563
v 0.010788638 0.011207717 0.018025519
v 0.010788638 0.025617464 0.018025519
v 0.010788638 0.025617464 0.092636563
v 0.010788638 0.011885317 -0.000757761
v 0.010788638 0.026295064 -0.000757761
v 0.010788638 0.015725082 -0.024524366
v 0.010788638 0.030134829 -0.024524366
v 0.010788638 0.020694181 -0.043946527
v 0.010788638 0.035103928 -0.043946527
v 0.010788638 0.032161735 -0.081975944
v 0.010788638 0.045719732 -0.078285031
v 0 0.045719732 -0.078285031
v 0 0.032161735 -0.081975944
v -0.010788638 0.032161735 -0.081975944
v -0.010788638 0.045719732 -0.078285031
v -0.010468344 0.027724374 -0.08238937
v -0.010468344 0.016164096 -0.043741561
v -0.010468344 0.019955469 -0.044152305
v -0.010468344 0.031200297 -0.081443101
v -0.010468344 0.011207405 -0.024367886
v -0.010468344 0.014973754 -0.024680831
v -0.010468344 0.007380764 -0.000682519
v -0.010468344 0.011120873 -0.000833011
v -0.010468344 0.006705373 0.018039338
v -0.010468344 0.010441055 0.018011693
v -0.010468344 0.006705381 0.091869898
v -0.010468344 0.010441063 0.091869898
v -0.010788638 0.005938719 0.092636563
v -0.008367051 0.004845473 0.092636563
v -0.008367051 0.004845473 0.092636563
v -0.008367051 0.004845473 -0.003483191
v -0.008367051 0.019197896 -0.075583354
v -0.008367051 0.019197896 -0.075583354
v 0 0.019197896 -0.075583354
v 0.00836705 0.019197896 -0.075583354
v 0.00836705 0.004845473 -0.003483191
v 0.00836705 0.004845473 0.092636563
v 0.00836705 0.004845473 0.092636563
v 0.010788638 0.005938719 0.092636563
v 0.010468343 0.006705381 0.091869898
v 0.010468343 0.006705373 0.018039338
v 0.010468343 0.010441055 0.018011693
v 0.010468343 0.010441063 0.091869898
v 0.010468343 0.007380764 -0.000682519
v 0.010468343 0.011120873 -0.000833011
v 0.010468343 0.011207405 -0.024367886
v 0.010468343 0.014973754 -0.024680831
v 0.010468343 0.016164096 -0.043741561
v 0.010468343 0.019955469 -0.044152305
v 0.010468343 0.027724374 -0.08238937
v 0.010468343 0.031200297 -0.081443101
v 0 0.032161735 -0.081975944
v 0 0.027204176 -0.08332555
v -0.010788638 0.027204176 -0.08332555
v -0.010788638 0.032161735 -0.081975944
v -0.010788638 0.021159304 -0.084971145
v -0.010788638 0.009000557 -0.043946527
v -0.010788638 0.015425175 -0.043946527
v -0.010788638 0.027204176 -0.08332555
v -0.010788638 0.00403145 -0.024524366
v -0.010788638 0.010456077 -0.024524366
v -0.010788638 0.000191693 -0.000757761
v -0.010788638 0.006616312 -0.000757761
v -0.010788638 -0.000485911 0.018025519
v -0.010788638 0.005938712 0.018025519
v -0.010788638 -0.000485907 0.092636563
v -0.010788638 0.005938719 0.092636563
v -0.010788638 -0.000485907 0.092636563
v -0.008367051 -0.001101741 0.092636563
v -0.008367051 -0.001101741 0.092636563
v -0.008367051 -0.001101749 -0.003483191
v -0.008367051 0.014235145 -0.075583354
v -0.008367051 0.014235145 -0.075583354
v 0 0.014235145 -0.075583354
v 0.00836705 0.014235145 -0.075583354
v 0.00836705 -0.001101749 -0.003483191
v 0.00836705 -0.001101741 0.092636563
v 0.00836705 -0.001101741 0.092636563
v 0.010788638 -0.000485907 0.092636563
v 0.010788638 -0.000485907 0.092636563
v 0.010788638 -0.000485911 0.018025519
v 0.010788638 0.005938712 0.018025519
v 0.010788638 0.005938719 0.092636563
v 0.010788638 0.000191693 -0.000757761
v 0.010788638 0.006616312 -0.000757761
v 0.010788638 0.00403145 -0.024524366
v 0.010788638 0.010456077 -0.024524366
v 0.010788638 0.009000557 -0.043946527
v 0.010788638 0.015425175 -0.043946527
v 0.010788638 0.021159304 -0.084971145
v 0.010788638 0.027204176 -0.08332555
v 0 0.027204176 -0.08332555
v 0 0.021159304 -0.084971145
v -0.010788638 0.021159304 -0.084971145
v -0.010788638 0.027204176 -0.08332555
v -0.010468344 0.005930115 -0.088322446
v -0.010468344 -0.007004889 -0.043744639
v -0.010468344 -0.00458829 -0.04414887
v -0.010468344 0.00811511 -0.087727629
v -0.010468344 -0.011962366 -0.024367878
v -0.010468344 -0.009569127 -0.024680823
v -0.010468344 -0.015789006 -0.000682519
v -0.010468344 -0.013422009 -0.000833003
v -0.010468344 -0.016464397 0.018039348
v -0.010468344 -0.01410183 0.0180117
v -0.010468344 -0.016464394 0.091869898
v -0.010468344 -0.014101827 0.091869898
v -0.010788638 -0.017883113 0.096597672
v -0.008367051 -0.017343836 0.096597672
v -0.008367051 -0.014249316 0.096597672
v -0.010788638 -0.014540181 0.096597672
v -0.008367051 -0.016602565 0.09263657
v -0.008367051 -0.016602572 -0.003483183
v -0.008367051 -0.012996186 -0.003483183
v -0.008367051 -0.012996177 0.09263657
v -0.008367051 0.001300235 -0.075583354
v -0.008367051 0.004309651 -0.075583354
v -0.008367051 0.001300235 -0.075583354
v 0 0.001300235 -0.075583354
v 0 0.004309651 -0.075583354
v -0.008367051 0.004309651 -0.075583354
v 0.00836705 0.001300235 -0.075583354
v 0.00836705 -0.016602572 -0.003483183
v 0.00836705 -0.012996186 -0.003483183
v 0.00836705 0.004309651 -0.075583354
v 0.00836705 -0.016602565 0.09263657
v 0.00836705 -0.012996177 0.09263657
v 0.00836705 -0.017343836 0.096597672
v 0.010788638 -0.017883113 0.096597672
v 0.010788638 -0.014540181 0.096597672
v 0.00836705 -0.014249316 0.096597672
v 0.010468343 -0.016464394 0.091869898
v 0.010468343 -0.016464397 0.018039348
v 0.010468343 -0.01410183 0.0180117
v 0.010468343 -0.014101827 0.091869898
v 0.010468343 -0.015789006 -0.000682519
v 0.010468343 -0.013422009 -0.000833003
v 0.010468343 -0.011962366 -0.024367878
v 0.010468343 -0.009569127 -0.024680823
v 0.010468343 -0.007004889 -0.043744639
v 0.010468343 -0.00458829 -0.04414887
v 0.010468343 0.005930115 -0.088322446
v 0.010468343 0.00811511 -0.087727629
v 0 0.00906956 -0.088262357
v 0 0.005403944 -0.08926025
v -0.010788638 0.005403944 -0.08926025
v -0.010788638 0.00906956 -0.088262357
v -0.010788638 -0.008887397 -0.093150802
v -0.010788638 -0.022933763 -0.043946527
v -0.010788638 -0.007744599 -0.043946527
v -0.010788638 0.005403944 -0.08926025
v -0.010788638 -0.02790286 -0.024524357
v -0.010788638 -0.012713701 -0.024524357
v -0.010788638 -0.031742614 -0.000757761
v -0.010788638 -0.016553454 -0.000757761
v -0.010788638 -0.032420225 0.018025519
v -0.010788638 -0.017231058 0.018025519
v -0.010788638 -0.032420222 0.09263657
v -0.010788638 -0.017231055 0.09263657
v -0.010788638 -0.030916374 0.096597672
v -0.008367051 -0.029408595 0.096597672
v -0.008367051 -0.017343836 0.096597672
v -0.010788638 -0.017883113 0.096597672
v -0.008367051 -0.030663049 0.09263657
v -0.008367051 -0.030663054 -0.003483183
v -0.008367051 -0.01043274 -0.075583354
v -0.008367051 -0.01043274 -0.075583354
v 0 -0.01043274 -0.075583354
v 0.00836705 -0.01043274 -0.075583354
v 0.00836705 -0.030663054 -0.003483183
v 0.00836705 -0.030663049 0.09263657
v 0.00836705 -0.029408595 0.096597672
v 0.010788638 -0.030916374 0.096597672
v 0.010788638 -0.017883113 0.096597672
v 0.00836705 -0.017343836 0.096597672
v 0.010788638 -0.032420222 0.09263657
v 0.010788638 -0.032420225 0.018025519
v 0.010788638 -0.017231058 0.018025519
v 0.010788638 -0.017231055 0.09263657
v 0.010788638 -0.031742614 -0.000757761
v 0.010788638 -0.016553454 -0.000757761
v 0.010788638 -0.02790286 -0.024524357
v 0.010788638 -0.012713701 -0.024524357
v 0.010788638 -0.022933763 -0.043946527
v 0.010788638 -0.007744599 -0.043946527
v 0.010788638 -0.008887397 -0.093150802
v 0.010788638 0.005403944 -0.08926025
v 0 0.005403944 -0.08926025
v 0 -0.008887397 -0.093150802
v -0.010788638 -0.008887397 -0.093150802
v -0.010788638 0.005403944 -0.08926025
v -0.010468344 -0.011441731 -0.093051597
v -0.010468344 -0.025471613 -0.043746561
v -0.010468344 -0.023673881 -0.04414681
v -0.010468344 -0.009837658 -0.092614934
v -0.010468344 -0.030429581 -0.024367878
v -0.010468344 -0.028654188 -0.024680823
v -0.010468344 -0.034256231 -0.000682519
v -0.010468344 -0.032507066 -0.000833003
v -0.010468344 -0.034931615 0.018039348
v -0.010468344 -0.033186886 0.0180117
v -0.010468344 -0.034931608 0.091869898
v -0.010468344 -0.033186883 0.091869898
v -0.010788638 -0.03372914 0.096597672
v -0.008367051 -0.032012366 0.096597672
v -0.008367051 -0.029408595 0.096597672
v -0.010788638 -0.030916374 0.096597672
v -0.008367051 -0.0129649 -0.075583354
v 0 -0.0129649 -0.075583354
v 0.00836705 -0.032012366 0.096597672
v 0.010788638 -0.03372914 0.096597672
v 0.010788638 -0.030916374 0.096597672
v 0.00836705 -0.029408595 0.096597672
v 0.010468343 -0.034931608 0.091869898
v 0.010468343 -0.034931615 0.018039348
v 0.010468343 -0.033186886 0.0180117
v 0.010468343 -0.033186883 0.091869898
v 0.010468343 -0.034256231 -0.000682519
v 0.010468343 -0.032507066 -0.000833003
v 0.010468343 -0.030429581 -0.024367878
v 0.010468343 -0.028654188 -0.024680823
v 0.010468343 -0.025471613 -0.043746561
v 0.010468343 -0.023673881 -0.04414681
v 0.010468343 -0.011441731 -0.093051597
v 0.010468343 -0.009837658 -0.092614934
v 0 -0.008887397 -0.093150802
v 0 -0.01197168 -0.093990438
v -0.010788638 -0.01197168 -0.093990438
v -0.010788638 -0.008887397 -0.093150802
v -0.010788638 0.00906956 -0.088262357
v -0.010788638 -0.003848701 -0.043946527
v -0.010788638 -0.008817799 -0.024524357
v -0.010788638 -0.01265756 -0.000757761
v -0.010788638 -0.013335157 0.018025519
v -0.010788638 -0.013335153 0.09263657
v 0.010788638 -0.013335153 0.09263657
v 0.010788638 -0.013335157 0.018025519
v 0.010788638 -0.01265756 -0.000757761
v 0.010788638 -0.008817799 -0.024524357
v 0.010788638 -0.003848701 -0.043946527
v 0.010788638 0.00906956 -0.088262357
v 0 0.00906956 -0.088262357
v -0.010788638 0.00906956 -0.088262357
v 0.010788638 -0.003514726 0.096597664
v 0.00836705 -0.004043146 0.096597664
v 0.00836705 -0.014249316 0.096597672
v 0.010788638 -0.014540181 0.096597672
v -0.008367051 -0.004043146 0.096597664
v -0.010788638 -0.003514726 0.096597664
v -0.010788638 -0.014540181 0.096597672
v -0.008367051 -0.014249316 0.096597672
v -0.008367051 -0.037942544 0.096597672
v -0.010788638 -0.040135361 0.096597672
v -0.010788638 -0.043164182 0.09263657
v -0.008367051 -0.040608633 0.09263657
v -0.010788638 -0.040135361 0.096597672
v -0.010788638 -0.03372914 0.096597672
v -0.010788638 -0.03372914 0.096597672
v -0.008367051 -0.032012366 0.096597672
v -0.008367051 -0.033697508 0.09263657
v -0.010788638 -0.035698272 0.09263657
v -0.008367051 -0.032012366 0.096597672
v 0.010788638 -0.03372914 0.096597672
v 0.010788638 -0.040135361 0.096597672
v 0.010788638 -0.043164182 0.09263657
v 0.010788638 -0.03372914 0.096597672
v 0.010788638 -0.040135361 0.096597672
v 0.00836705 -0.037942544 0.096597672
v 0.010788638 -0.043164182 0.09263657
v 0.00836705 -0.032012366 0.096597672
v 0.00836705 -0.032012366 0.096597672
v 0.010788638 -0.03372914 0.096597672
v 0.010788638 -0.035698272 0.09263657
v 0.00836705 -0.033697508 0.09263657
v -0.010788638 -0.017883113 0.096597672
v -0.010788638 -0.014540181 0.096597672
v -0.010788638 -0.013335153 0.09263657
v -0.010788638 -0.017883113 0.096597672
v -0.010788638 -0.014540181 0.096597672
v -0.008367051 -0.014249316 0.096597672
v -0.008367051 -0.012996177 0.09263657
v -0.010788638 -0.013335153 0.09263657
v -0.008367051 -0.014249316 0.096597672
v -0.008367051 -0.017343836 0.096597672
v -0.008367051 -0.016602565 0.09263657
v -0.008367051 -0.014249316 0.096597672
v -0.008367051 -0.017343836 0.096597672
v -0.010788638 -0.017883113 0.096597672
v -0.010788638 -0.017231055 0.09263657
v -0.008367051 -0.016602565 0.09263657
v 0.00836705 -0.017343836 0.096597672
v 0.00836705 -0.014249316 0.096597672
v 0.00836705 -0.012996177 0.09263657
v 0.00836705 -0.014249316 0.096597672
v 0.010788638 -0.014540181 0.096597672
v 0.010788638 -0.013335153 0.09263657
v 0.00836705 -0.012996177 0.09263657
v 0.010788638 -0.014540181 0.096597672
v 0.010788638 -0.017883113 0.096597672
v 0.010788638 -0.017231055 0.09263657
v 0.010788638 -0.014540181 0.096597672
v 0.010788638 -0.017883113 0.096597672
v 0.00836705 -0.017343836 0.096597672
v 0.00836705 -0.016602565 0.09263657
v 0.010788638 -0.017231055 0.09263657
v -0.010788638 -0.030916374 0.096597672
v -0.010788638 -0.017883113 0.096597672
v -0.010788638 -0.017231055 0.09263657
v -0.010788638 -0.030916374 0.096597672
v -0.010788638 -0.017883113 0.096597672
v -0.008367051 -0.017343836 0.096597672
v -0.008367051 -0.016602565 0.09263657
v -0.010788638 -0.017231055 0.09263657
v -0.008367051 -0.017343836 0.096597672
v -0.008367051 -0.029408595 0.096597672
v -0.008367051 -0.030663049 0.09263657
v -0.008367051 -0.017343836 0.096597672
v -0.008367051 -0.029408595 0.096597672
v -0.010788638 -0.030916374 0.096597672
v -0.010788638 -0.032420222 0.09263657
v -0.008367051 -0.030663049 0.09263657
v 0.00836705 -0.029408595 0.096597672
v 0.00836705 -0.017343836 0.096597672
v 0.00836705 -0.016602565 0.09263657
v 0.00836705 -0.029408595 0.096597672
v 0.00836705 -0.017343836 0.096597672
v 0.010788638 -0.017883113 0.096597672
v 0.010788638 -0.017231055 0.09263657
v 0.00836705 -0.016602565 0.09263657
v 0.010788638 -0.017883113 0.096597672
v 0.010788638 -0.030916374 0.096597672
v 0.010788638 -0.032420222 0.09263657
v 0.010788638 -0.017883113 0.096597672
v 0.010788638 -0.030916374 0.096597672
v 0.00836705 -0.029408595 0.096597672
v 0.00836705 -0.030663049 0.09263657
v 0.010788638 -0.032420222 0.09263657
v -0.010788638 -0.03372914 0.096597672
v -0.010788638 -0.030916374 0.096597672
v -0.010788638 -0.032420222 0.09263657
v -0.010788638 -0.03372914 0.096597672
v -0.010788638 -0.030916374 0.096597672
v -0.008367051 -0.029408595 0.096597672
v -0.008367051 -0.030663049 0.09263657
v -0.010788638 -0.032420222 0.09263657
v -0.008367051 -0.029408595 0.096597672
v -0.008367051 -0.032012366 0.096597672
v -0.008367051 -0.033697508 0.09263657
v -0.008367051 -0.029408595 0.096597672
v -0.008367051 -0.032012366 0.096597672
v -0.010788638 -0.03372914 0.096597672
v -0.010788638 -0.035698272 0.09263657
v -0.008367051 -0.033697508 0.09263657
v 0.00836705 -0.032012366 0.096597672
v 0.00836705 -0.029408595 0.096597672
v 0.00836705 -0.030663049 0.09263657
v 0.00836705 -0.032012366 0.096597672
v 0.00836705 -0.029408595 0.096597672
v 0.010788638 -0.030916374 0.096597672
v 0.010788638 -0.032420222 0.09263657
v 0.00836705 -0.030663049 0.09263657
v 0.010788638 -0.030916374 0.096597672
v 0.010788638 -0.03372914 0.096597672
v 0.010788638 -0.035698272 0.09263657
v 0.010788638 -0.030916374 0.096597672
v 0.010788638 -0.03372914 0.096597672
v 0.00836705 -0.032012366 0.096597672
v 0.00836705 -0.033697508 0.09263657
v 0.010788638 -0.035698272 0.09263657
v 0.010788638 -0.003514726 0.096597664
v 0.010788638 -0.014540181 0.096597672
v 0.010788638 -0.014540181 0.096597672
v 0.00836705 -0.014249316 0.096597672
v 0.00836705 -0.012996177 0.09263657
v 0.010788638 -0.013335153 0.09263657
v 0.00836705 -0.014249316 0.096597672
v 0.00836705 -0.004043146 0.096597664
v 0.00836705 -0.001101741 0.092636563
v 0.00836705 -0.014249316 0.096597672
v -0.008367051 -0.004043146 0.096597664
v -0.008367051 -0.014249316 0.096597672
v -0.008367051 -0.014249316 0.096597672
v -0.010788638 -0.014540181 0.096597672
v -0.010788638 -0.013335153 0.09263657
v -0.008367051 -0.012996177 0.09263657
v -0.010788638 -0.014540181 0.096597672
v -0.010788638 -0.003514726 0.096597664
v -0.010788638 -0.000485907 0.092636563
v -0.010788638 -0.014540181 0.096597672
v 0 -0.045719732 0.07710135
v 0 -0.045719732 0.017979439
v 0.004495266 -0.045719732 0.017979439
v 0.00508608 -0.045719732 0.07710135
v 0 -0.045034748 -0.001008589
v 0.004495266 -0.045034748 -0.001008589
v 0 -0.041151252 -0.025045931
v 0.004495266 -0.041151252 -0.025045931
v 0 -0.036148269 -0.044600509
v 0.004495266 -0.036145635 -0.044610802
v 0 -0.021455549 -0.096597664
v 0.004495266 -0.021455549 -0.096597664
v 0 -0.0189963 -0.095902771
v 0 -0.01197168 -0.093990438
v 0.004495266 -0.01197168 -0.093990438
v 0.004495266 -0.0189963 -0.095902771
v 0.010788638 -0.008887397 -0.093150802
v 0.010788638 -0.01197168 -0.093990438
v 0.010788638 0.005403944 -0.08926025
v 0.010788638 -0.008887397 -0.093150802
v 0.010788638 0.00906956 -0.088262357
v 0.010788638 0.005403944 -0.08926025
v 0.010788638 0.021159304 -0.084971145
v 0.010788638 0.00906956 -0.088262357
v 0.010788638 0.027204176 -0.08332555
v 0.010788638 0.032161735 -0.081975944
v 0.010788638 0.027204176 -0.08332555
v 0.010788638 0.045719732 -0.078285031
v 0.010788638 0.032161735 -0.081975944
v 0.010788638 0.035103928 -0.043946527
v 0.010788638 0.045719732 -0.078285031
v 0.010788638 0.030134829 -0.024524366
v 0.010788638 0.026295064 -0.000757761
v 0.010788638 0.025617464 0.018025519
v 0.010788638 0.025617464 0.092636563
v 0.00836705 0.023061913 -0.003483191
v 0.00836705 0.02306192 0.092636563
v 0.00836705 0.034398884 -0.075583354
v 0.00836705 0.023267971 -0.075583354
v 0.00836705 0.034398884 -0.075583354
v 0.00836705 0.019197896 -0.075583354
v 0.00836705 0.014235145 -0.075583354
v 0.00836705 0.004309651 -0.075583354
v 0.00836705 0.001300235 -0.075583354
v 0.00836705 -0.01043274 -0.075583354
v 0.00836705 -0.0129649 -0.075583354
v 0.004183525 -0.0129649 -0.075583354
v 0.004183525 -0.018732 -0.075583354
v 0.00836705 -0.018732 -0.075583354
v 0.004183525 -0.018732 -0.075583354
v 0.004183525 -0.040608637 -0.003483183
v 0.00836705 -0.040608637 -0.003483183
v 0.00836705 -0.018732 -0.075583354
v 0.004183525 -0.040608633 0.09263657
v 0.00836705 -0.040608633 0.09263657
v 0.004183525 -0.040608633 0.09263657
v 0.005394319 -0.043164182 0.09263657
v 0.010788638 -0.043164182 0.09263657
v 0.00836705 -0.040608633 0.09263657
v -0.005394319 -0.043164182 0.09263657
v -0.004183525 -0.040608633 0.09263657
v -0.008367051 -0.040608633 0.09263657
v -0.010788638 -0.043164182 0.09263657
v -0.004183525 -0.040608633 0.09263657
v -0.004183525 -0.040608637 -0.003483183
v -0.008367051 -0.040608637 -0.003483183
v -0.008367051 -0.040608633 0.09263657
v -0.004183525 -0.018732 -0.075583354
v -0.008367051 -0.018732 -0.075583354
v -0.004183525 -0.018732 -0.075583354
v -0.004183525 -0.0129649 -0.075583354
v -0.008367051 -0.0129649 -0.075583354
v -0.008367051 -0.018732 -0.075583354
v -0.004495266 -0.04316419 0.018025519
v -0.00508608 -0.043164182 0.07710135
v -0.004495266 -0.042486589 -0.000757761
v -0.004495266 -0.038646825 -0.024524357
v -0.004495266 -0.033677731 -0.043946527
v -0.004495266 -0.0189963 -0.095902771
v -0.004495266 -0.01197168 -0.093990438
v -0.004495266 -0.0189963 -0.095902771
v 0.005394319 -0.043164182 0.09263657
v 0.004183525 -0.040608633 0.09263657
v 0.003944473 -0.040608633 0.07710135
v 0.00508608 -0.043164182 0.07710135
v 0.003486271 -0.040608637 -0.003483183
v 0.003944473 -0.040608633 0.07710135
v 0.003486271 -0.018732 -0.075583354
v 0.003486271 -0.0129649 -0.075583354
v 0.003486271 -0.018732 -0.075583354
v 0.005394319 -0.043164182 0.09263657
v 0.005394319 -0.04316419 0.018025519
v 0.010788638 -0.04316419 0.018025519
v 0.010788638 -0.043164182 0.09263657
v 0.005394319 -0.042486589 -0.000757761
v 0.010788638 -0.042486589 -0.000757761
v 0.005394319 -0.038646825 -0.024524357
v 0.010788638 -0.038646825 -0.024524357
v 0.005394319 -0.033677731 -0.043946527
v 0.010788638 -0.033677731 -0.043946527
v 0.005394319 -0.0189963 -0.095902771
v 0.010788638 -0.0189963 -0.095902771
v 0.005394319 -0.0189963 -0.095902771
v 0.005394319 -0.01197168 -0.093990438
v 0.010788638 -0.01197168 -0.093990438
v 0.010788638 -0.0189963 -0.095902771
v 0.00508608 -0.043164182 0.07710135
v 0.004495266 -0.04316419 0.018025519
v 0.004495266 -0.042486589 -0.000757761
v 0.004495266 -0.038646825 -0.024524357
v 0.004495266 -0.033677731 -0.043946527
v 0.004495266 -0.0189963 -0.095902771
v 0.00508608 -0.043164182 0.07710135
v 0.003944473 -0.040608633 0.07710135
v -0.00508608 -0.043164182 0.07710135
v -0.003944473 -0.040608633 0.07710135
v -0.004183525 -0.040608633 0.09263657
v -0.005394319 -0.043164182 0.09263657
v -0.00508608 -0.045719732 0.07710135
v -0.004495266 -0.045719732 0.017979439
v -0.004495266 -0.045034748 -0.001008589
v -0.004495266 -0.041151252 -0.025045931
v -0.004495266 -0.036145635 -0.044610802
v -0.004495266 -0.021455549 -0.096597664
v 0 -0.045719732 0.07710135
v 0.00508608 -0.045719732 0.07710135
v 0.00508608 -0.045719732 0.07710135
v 0.004495266 -0.045719732 0.017979439
v 0.004495266 -0.04316419 0.018025519
v 0.00508608 -0.043164182 0.07710135
v 0.004495266 -0.045034748 -0.001008589
v 0.004495266 -0.042486589 -0.000757761
v 0.004495266 -0.041151252 -0.025045931
v 0.004495266 -0.038646825 -0.024524357
v 0.004495266 -0.036145635 -0.044610802
v 0.004495266 -0.033677731 -0.043946527
v 0.004495266 -0.021455549 -0.096597664
v 0.004495266 -0.0189963 -0.095902771
v 0.004495266 -0.021455549 -0.096597664
v 0 -0.021455549 -0.096597664
v -0.00508608 -0.045719732 0.07710135
v -0.004495266 -0.045719732 0.017979439
v -0.00508608 -0.045719732 0.07710135
v -0.00508608 -0.043164182 0.07710135
v -0.004495266 -0.04316419 0.018025519
v -0.004495266 -0.045034748 -0.001008589
v -0.004495266 -0.042486589 -0.000757761
v -0.004495266 -0.041151252 -0.025045931
v -0.004495266 -0.038646825 -0.024524357
v -0.004495266 -0.036145635 -0.044610802
v -0.004495266 -0.033677731 -0.043946527
v -0.004495266 -0.021455549 -0.096597664
v -0.004495266 -0.021455549 -0.096597664
v -0.004495266 -0.0189963 -0.095902771
vt 0.305107832 0.223133802
vt 0.305345446 0.229488492
vt 0.231692925 0.229653239
vt 0.231174141 0.223193526
vt 0.306598037 0.034025431
vt 0.305464715 0.042514086
vt 0.223969758 0.031718969
vt 0.225702256 0.022265434
vt 0.220298454 0.12423408
vt 0.304221839 0.127731085
vt 0.304112434 0.140491009
vt 0.221873254 0.136533856
vt 0.230749682 0.213961124
vt 0.30490014 0.214340687
vt 0.305107832 0.223133802
vt 0.231174141 0.223193526
vt 0.009668276 0.076541901
vt 0.014931157 0.071078777
vt 0.016914397 0.074473619
vt 0.0118687 0.080604672
vt 0.445570529 0.030721188
vt 0.441117287 0.034412026
vt 0.434166491 0.027053118
vt 0.440523088 0.023732424
vt 0.323937058 0.21483767
vt 0.323078394 0.22356534
vt 0.323078394 0.22356534
vt 0.322780192 0.23009479
vt 0.325322866 0.036693335
vt 0.324573338 0.044989109
vt 0.326533139 0.128773451
vt 0.326877892 0.141564012
vt 0.348778337 0.216730595
vt 0.347689271 0.225555301
vt 0.347689271 0.225555301
vt 0.347604871 0.232099533
vt 0.349152416 0.040242434
vt 0.348793387 0.048621416
vt 0.355290949 0.130723476
vt 0.355823845 0.143741727
vt 0.371064484 0.21597302
vt 0.370401323 0.224619269
vt 0.370401323 0.224619269
vt 0.37149021 0.230894566
vt 0.369428068 0.042615891
vt 0.369713664 0.050844431
vt 0.378162026 0.130730152
vt 0.37868005 0.143543959
vt 0.428433776 0.203616738
vt 0.430396497 0.211722732
vt 0.430396497 0.211722732
vt 0.431924045 0.217784643
vt 0.427267611 0.048639297
vt 0.427240521 0.056172967
vt 0.419644266 0.126995087
vt 0.419121236 0.137262583
vt 0.217926338 0.217116356
vt 0.219963461 0.211758733
vt 0.221301034 0.216079473
vt 0.218454272 0.221229553
vt 0.218218595 0.136241078
vt 0.217364386 0.124372602
vt 0.220298454 0.12423408
vt 0.221873254 0.136533856
vt 0.21111089 0.031814098
vt 0.210450634 0.035522938
vt 0.206087172 0.030833125
vt 0.206693158 0.027607203
vt 0.244088501 0.007461786
vt 0.241321325 0.006880522
vt 0.244369879 0.000854015
vt 0.248742998 5.2094e-05
vt 0.113885596 0.220934153
vt 0.113712117 0.212793827
vt 0.215081662 0.21000874
vt 0.214404896 0.218418121
vt 0.105703518 0.147434354
vt 0.105950996 0.137717485
vt 0.217364386 0.124372602
vt 0.218218595 0.136241078
vt 0.203539982 0.036440611
vt 0.104068682 0.061207891
vt 0.104292989 0.053112745
vt 0.201122701 0.027960658
vt 0.182186887 0.022204161
vt 0.100077257 0.044110775
vt 0.098393738 0.04038012
vt 0.180694193 0.017687201
vt 0.031444982 0.208552837
vt 0.030892983 0.202181578
vt 0.024098113 0.153011799
vt 0.023675218 0.144523144
vt 0.021539837 0.088284612
vt 0.021471664 0.082333803
vt 0.016914397 0.074473619
vt 0.014931157 0.071078777
vt 0.418581605 0.151718974
vt 0.376060367 0.161143184
vt 0.37868005 0.143543959
vt 0.419121236 0.137262583
vt 0.353829175 0.160767078
vt 0.355823845 0.143741727
vt 0.325925827 0.158689857
vt 0.326877892 0.141564012
vt 0.304519683 0.157313585
vt 0.304112434 0.140491009
vt 0.222198904 0.153291821
vt 0.221873254 0.136533856
vt 0.222198904 0.153291821
vt 0.219176352 0.154211283
vt 0.219176352 0.154211283
vt 0.109130591 0.162519574
vt 0.105703518 0.147434354
vt 0.218218595 0.136241078
vt 0.02622138 0.164242864
vt 0.024098113 0.153011799
vt 0.008041307 0.1334939
vt 0.01643455 0.12991941
vt 0.023675218 0.144523144
vt 0.014347032 0.146938443
vt 0.024727643 0.124812126
vt 0.106124178 0.11215663
vt 0.105968192 0.127964973
vt 0.027650297 0.135643601
vt 0.215351924 0.092951417
vt 0.216323301 0.112010598
vt 0.215351924 0.092951417
vt 0.218397588 0.094245791
vt 0.21955578 0.111666083
vt 0.216323301 0.112010598
vt 0.218397588 0.094245791
vt 0.303165197 0.097911716
vt 0.303994507 0.114903331
vt 0.21955578 0.111666083
vt 0.324411809 0.098386645
vt 0.326333165 0.115879059
vt 0.352425724 0.101359129
vt 0.35544765 0.117947459
vt 0.375582397 0.102449298
vt 0.378778517 0.118243933
vt 0.420954287 0.103102922
vt 0.420563102 0.116667032
vt 0.431092381 0.13494432
vt 0.430870742 0.15040195
vt 0.418581605 0.151718974
vt 0.419121236 0.137262583
vt 0.418431997 0.156853557
vt 0.375098884 0.167011142
vt 0.376159608 0.162216544
vt 0.417866677 0.152810216
vt 0.353185892 0.16623807
vt 0.353947163 0.161818147
vt 0.325599909 0.16399169
vt 0.326014578 0.159684777
vt 0.304608613 0.162823439
vt 0.304550409 0.158310652
vt 0.223690361 0.15909493
vt 0.223175079 0.154382348
vt 0.222951904 0.160114646
vt 0.219218805 0.160722017
vt 0.219218805 0.160722017
vt 0.110147759 0.168149114
vt 0.02689147 0.16837728
vt 0.006857127 0.128528237
vt 0.015969142 0.125422001
vt 0.024396643 0.120830297
vt 0.106009528 0.106374264
vt 0.214716807 0.08607316
vt 0.214716807 0.08607316
vt 0.218294039 0.087076187
vt 0.219196901 0.088242888
vt 0.302868515 0.09241879
vt 0.303130269 0.096908569
vt 0.21925731 0.093168259
vt 0.323868364 0.092955589
vt 0.324428618 0.097407579
vt 0.35158065 0.096168876
vt 0.352499366 0.100407124
vt 0.374506205 0.097404242
vt 0.375677824 0.101499796
vt 0.420359552 0.098735332
vt 0.420122147 0.10226965
vt 0.430870742 0.15040195
vt 0.431205928 0.15610981
vt 0.419365227 0.157618403
vt 0.418581605 0.151718974
vt 0.42002666 0.164851665
vt 0.374158263 0.176416874
vt 0.375200361 0.168103933
vt 0.419365227 0.157618403
vt 0.352134317 0.174940825
vt 0.353253156 0.167276621
vt 0.325335443 0.172358036
vt 0.325669855 0.16498208
vt 0.304511726 0.171832442
vt 0.304606676 0.163847208
vt 0.224725157 0.168392539
vt 0.222951904 0.160114646
vt 0.224725157 0.168392539
vt 0.218481123 0.168563485
vt 0.218481123 0.168563485
vt 0.111419141 0.174973726
vt 0.027644411 0.173458338
vt 0.005620569 0.122533798
vt 0.014856115 0.119788647
vt 0.023945332 0.115976572
vt 0.105677664 0.099389672
vt 0.213362947 0.077857256
vt 0.213362947 0.077857256
vt 0.219045997 0.078133106
vt 0.219045997 0.078133106
vt 0.302501798 0.083703399
vt 0.302842081 0.091421962
vt 0.218294039 0.087076187
vt 0.323430032 0.084410191
vt 0.323900759 0.091977596
vt 0.350840211 0.087977171
vt 0.351651549 0.095223904
vt 0.373612881 0.089457035
vt 0.374623805 0.096425176
vt 0.422045201 0.091678619
vt 0.421389997 0.097902894
vt 0.431205928 0.15610981
vt 0.431777298 0.162868619
vt 0.42002666 0.164851665
vt 0.419365227 0.157618403
vt 0.421605945 0.182760239
vt 0.372271955 0.193934917
vt 0.372844428 0.191311002
vt 0.421187371 0.180178165
vt 0.349785954 0.193610191
vt 0.350244522 0.190871
vt 0.323974758 0.190081
vt 0.324267924 0.187430263
vt 0.304590434 0.191594481
vt 0.304533631 0.188840866
vt 0.230046883 0.188828111
vt 0.229489475 0.185931921
vt 0.227439895 0.190904737
vt 0.225857809 0.191350102
vt 0.225265905 0.186971307
vt 0.225973636 0.186811686
vt 0.215927631 0.188788652
vt 0.11358425 0.192835689
vt 0.113582551 0.188595176
vt 0.216567039 0.184525609
vt 0.029355004 0.186906338
vt 0.029005542 0.183751583
vt 0.003039747 0.107168317
vt 0.012363628 0.104171753
vt 0.012774348 0.107748628
vt 0.003529131 0.110719562
vt 0.023064449 0.103152871
vt 0.103548333 0.08155489
vt 0.104313448 0.085763931
vt 0.023371473 0.106229305
vt 0.207926393 0.057477355
vt 0.209226623 0.0621562
vt 0.214431375 0.052696824
vt 0.217060819 0.053275228
vt 0.215598494 0.057055831
vt 0.212839082 0.055862427
vt 0.221742138 0.056381345
vt 0.303079396 0.064766049
vt 0.303168714 0.067618132
vt 0.22161448 0.059397221
vt 0.323522061 0.066401243
vt 0.323903322 0.069285512
vt 0.349302471 0.070124269
vt 0.34978193 0.07277894
vt 0.371302009 0.071972489
vt 0.371949732 0.074546814
vt 0.423178673 0.07571888
vt 0.422837019 0.078057766
vt 0.433339387 0.176649451
vt 0.434603989 0.180684566
vt 0.422597766 0.183503628
vt 0.421873569 0.179049253
vt 0.42744571 0.199917674
vt 0.371311396 0.21201241
vt 0.372451603 0.194864154
vt 0.422597766 0.183503628
vt 0.349035263 0.212567806
vt 0.349949807 0.194636703
vt 0.324210703 0.210667014
vt 0.324081331 0.191242218
vt 0.304829925 0.210294724
vt 0.304634213 0.192564845
vt 0.23051849 0.209522843
vt 0.229462385 0.189805865
vt 0.226717979 0.208905458
vt 0.223932952 0.207811713
vt 0.223737925 0.194882512
vt 0.226635188 0.194396734
vt 0.215302587 0.206244469
vt 0.113632604 0.209246993
vt 0.030655205 0.199416518
vt 0.0009716 0.094727278
vt 0.010951713 0.091135144
vt 0.021821007 0.090941191
vt 0.10398455 0.064821482
vt 0.204422638 0.040190935
vt 0.215754777 0.038006186
vt 0.218713567 0.037014008
vt 0.216033995 0.052556872
vt 0.213098049 0.052206397
vt 0.223206282 0.035981894
vt 0.305010617 0.046403408
vt 0.303151727 0.063824296
vt 0.220906913 0.055125594
vt 0.324335277 0.048781276
vt 0.323652357 0.065497398
vt 0.34864822 0.05235219
vt 0.349436939 0.069197297
vt 0.369820029 0.05454576
vt 0.371466517 0.071044087
vt 0.426687479 0.05968082
vt 0.42425102 0.074920297
vt 0.434603989 0.180684566
vt 0.439831972 0.196692824
vt 0.42744571 0.199917674
vt 0.422597766 0.183503628
vt 0.427326977 0.202870011
vt 0.370891809 0.215001702
vt 0.371479839 0.212973118
vt 0.426845372 0.201027513
vt 0.34867996 0.215697169
vt 0.349153042 0.213604569
vt 0.323921919 0.213794351
vt 0.324229807 0.211715221
vt 0.304870784 0.213350773
vt 0.304861397 0.211283565
vt 0.231463492 0.212881684
vt 0.231337413 0.210630774
vt 0.227395743 0.211052299
vt 0.225318 0.2110883
vt 0.223665193 0.211024404
vt 0.225112006 0.209046125
vt 0.000116244 0.092032194
vt 0.01074034 0.088181615
vt 0.216105819 0.032117486
vt 0.219337761 0.032378078
vt 0.21737504 0.035087347
vt 0.213959098 0.034243584
vt 0.224623352 0.032878518
vt 0.305337787 0.043461442
vt 0.305155545 0.045456648
vt 0.22421129 0.035031319
vt 0.324397773 0.04591918
vt 0.324473917 0.047866821
vt 0.348573864 0.049548984
vt 0.348796844 0.051467896
vt 0.369490057 0.051772356
vt 0.370025456 0.053638101
vt 0.426222086 0.056984901
vt 0.425964057 0.05873394
vt 0.439831972 0.196692824
vt 0.441135049 0.200236797
vt 0.428433776 0.203616738
vt 0.42744571 0.199917674
vt 0.421873569 0.179049253
vt 0.372683227 0.190390348
vt 0.350078821 0.189836979
vt 0.324259579 0.18652606
vt 0.304501265 0.187823653
vt 0.228486657 0.18488276
vt 0.220757216 0.060447335
vt 0.303132564 0.068603635
vt 0.323875129 0.070231557
vt 0.349603117 0.073723555
vt 0.371811926 0.075469613
vt 0.423597664 0.078972578
vt 0.433339387 0.176649451
vt 0.421873569 0.179049253
vt 0.216526747 0.07200563
vt 0.214707047 0.070873499
vt 0.213826612 0.0597471
vt 0.2166612 0.058844805
vt 0.220884278 0.174132586
vt 0.222742707 0.173392057
vt 0.224140108 0.186391115
vt 0.221277013 0.185858846
vt 0.217926338 0.217116356
vt 0.218454272 0.221229553
vt 0.213169709 0.222239375
vt 0.214404896 0.218418121
vt 0.227234378 0.221275091
vt 0.227001101 0.214810491
vt 0.041537568 0.245684266
vt 0.041638553 0.243629813
vt 0.046992294 0.244395494
vt 0.046992294 0.246569872
vt 0.219963461 0.211758733
vt 0.21820879 0.031253099
vt 0.220957249 0.024474978
vt 0.225702256 0.022265434
vt 0.21820879 0.031253099
vt 0.206693158 0.027607203
vt 0.206087172 0.030833125
vt 0.204765737 0.024393559
vt 0.210450634 0.035522938
vt 0.065265179 0.2574718
vt 0.065366164 0.259526253
vt 0.059911437 0.260411859
vt 0.059911437 0.258237362
vt 0.227439895 0.190904737
vt 0.225973636 0.186811686
vt 0.228486657 0.18488276
vt 0.227439895 0.190904737
vt 0.200306997 0.330372691
vt 0.200330392 0.332111955
vt 0.195219055 0.332250357
vt 0.195219055 0.330507874
vt 0.220508143 0.187568426
vt 0.220103592 0.190666676
vt 0.215927631 0.188788652
vt 0.220508143 0.187568426
vt 0.202104077 0.297215343
vt 0.202127561 0.295306444
vt 0.20726417 0.295446157
vt 0.20726417 0.297370315
vt 0.212176368 0.054315329
vt 0.213014826 0.056904793
vt 0.209226623 0.0621562
vt 0.180879772 0.318269968
vt 0.180903152 0.316530704
vt 0.185991108 0.316666007
vt 0.185991108 0.318408489
vt 0.215598494 0.057055831
vt 0.217060819 0.053275228
vt 0.220906913 0.055125594
vt 0.215598494 0.057055831
vt 0.21147798 0.281464458
vt 0.211501464 0.283373475
vt 0.206341371 0.283528328
vt 0.206341371 0.281604171
vt 0.226717979 0.208905458
vt 0.226635188 0.194396734
vt 0.229462385 0.189805865
vt 0.226717979 0.208905458
vt 0.212400779 0.295306444
vt 0.212424263 0.297215462
vt 0.20726417 0.297370315
vt 0.20726417 0.295446157
vt 0.21969378 0.191658497
vt 0.219450802 0.205615997
vt 0.215302587 0.206244469
vt 0.21969378 0.191658497
vt 0.22255598 0.26762259
vt 0.222631142 0.269475579
vt 0.217442989 0.270061851
vt 0.217442989 0.268118858
vt 0.208954141 0.039826632
vt 0.212421596 0.053627968
vt 0.207926393 0.057477355
vt 0.208954141 0.039826632
vt 0.201181278 0.283373475
vt 0.201204762 0.281464458
vt 0.206341371 0.281604171
vt 0.206341371 0.283528328
vt 0.216033995 0.052556872
vt 0.218713567 0.037014008
vt 0.223206282 0.035981894
vt 0.216033995 0.052556872
vt 0.234401941 0.271321177
vt 0.234477103 0.269468188
vt 0.239590093 0.269964457
vt 0.239590093 0.271907449
vt 0.227395743 0.211052299
vt 0.225112006 0.209046125
vt 0.23051849 0.209522843
vt 0.227395743 0.211052299
vt 0.212254837 0.269475579
vt 0.212329999 0.26762259
vt 0.217442989 0.268118858
vt 0.217442989 0.270061851
vt 0.221008644 0.206770658
vt 0.21946916 0.20945704
vt 0.215081662 0.21000874
vt 0.221008644 0.206770658
vt 0.052346036 0.243629813
vt 0.052447021 0.245684266
vt 0.046992294 0.246569872
vt 0.046992294 0.244395494
vt 0.20791842 0.035981655
vt 0.210039526 0.03818047
vt 0.204422638 0.040190935
vt 0.20791842 0.035981655
vt 0.244703084 0.269468188
vt 0.244778246 0.271321177
vt 0.239590093 0.271907449
vt 0.239590093 0.269964457
vt 0.21737504 0.035087347
vt 0.219337761 0.032378078
vt 0.223969758 0.031718969
vt 0.21737504 0.035087347
vt 0.054456711 0.259526253
vt 0.0545577 0.2574718
vt 0.059911437 0.258237362
vt 0.059911437 0.260411859
vt 0.216526747 0.07200563
vt 0.2166612 0.058844805
vt 0.191079065 0.316530704
vt 0.191102445 0.318269968
vt 0.185991108 0.318408489
vt 0.185991108 0.316666007
vt 0.213826612 0.0597471
vt 0.214707047 0.070873499
vt 0.213362947 0.077857256
vt 0.213826612 0.0597471
vt 0.220884278 0.174132586
vt 0.221277013 0.185858846
vt 0.190107718 0.332111955
vt 0.190131113 0.330372691
vt 0.195219055 0.330507874
vt 0.195219055 0.332250357
vt 0.224140108 0.186391115
vt 0.222742707 0.173392057
vt 0.224725157 0.168392539
vt 0.224140108 0.186391115
vt 0.246760085 0.008866787
vt 0.309849709 0.019034266
vt 0.308636785 0.024027467
vt 0.245495155 0.014805317
vt 0.328340113 0.021952271
vt 0.327299744 0.026918054
vt 0.352073729 0.025234938
vt 0.351230085 0.03027308
vt 0.372247368 0.027534604
vt 0.371367097 0.032686353
vt 0.430012524 0.03491807
vt 0.428201735 0.039489388
vt 0.432445168 0.036380291
vt 0.439028919 0.040946245
vt 0.435949862 0.046995282
vt 0.428883314 0.042252064
vt 0.451805413 0.192586064
vt 0.453193307 0.195909977
vt 0.446747512 0.177122951
vt 0.451805413 0.192586064
vt 0.445595294 0.173287392
vt 0.446747512 0.177122951
vt 0.443610877 0.1608181
vt 0.445595294 0.173287392
vt 0.443146765 0.154548287
vt 0.442897141 0.149395823
vt 0.443146765 0.154548287
vt 0.443094105 0.13443017
vt 0.442897141 0.149395823
vt 0.378778517 0.118243933
vt 0.420563102 0.116667032
vt 0.35544765 0.117947459
vt 0.326333165 0.115879059
vt 0.303994507 0.114903331
vt 0.21955578 0.111666083
vt 0.105968192 0.127964973
vt 0.216323301 0.112010598
vt 0.027650297 0.135643601
vt 0.024727643 0.124812126
vt 0.027650297 0.135643601
vt 0.024396643 0.120830297
vt 0.023945332 0.115976572
vt 0.023371473 0.106229305
vt 0.023064449 0.103152871
vt 0.021821007 0.090941191
vt 0.021539837 0.088284612
vt 0.015210912 0.085879087
vt 0.019312635 0.078450441
vt 0.021471664 0.082333803
vt 0.019312635 0.078450441
vt 0.102172047 0.048561811
vt 0.104292989 0.053112745
vt 0.021471664 0.082333803
vt 0.199369073 0.023019433
vt 0.201122701 0.027960658
vt 0.199369073 0.023019433
vt 0.201482713 0.022342443
vt 0.204765737 0.024393559
vt 0.201122701 0.027960658
vt 0.231692925 0.229653239
vt 0.231491312 0.233089089
vt 0.227779999 0.228312373
vt 0.231174141 0.223193526
vt 0.196512759 0.013127685
vt 0.098055303 0.039621949
vt 0.096085638 0.035051584
vt 0.194816425 0.008468032
vt 0.014514029 0.070374966
vt 0.012087822 0.066098928
vt 0.014514029 0.070374966
vt 0.009198219 0.075823307
vt 0.005797148 0.071984529
vt 0.012087822 0.066098928
vt 0.305388808 0.230579257
vt 0.247067168 0.229992151
vt 0.322670996 0.23119998
vt 0.34753716 0.233219743
vt 0.371697664 0.231960058
vt 0.432185769 0.218797922
vt 0.440589726 0.03522253
vt 0.432705194 0.027542353
vt 0.22688821 0.015718102
vt 0.227231786 0.012628436
vt 0.242142797 0.013831735
vt 0.243813902 0.01785326
vt 0.101834342 0.047833562
vt 0.183577135 0.026855469
vt 0.018921345 0.077789187
vt 0.014520258 0.085350275
vt 0.018921345 0.077789187
vt 0.22688821 0.015718102
vt 0.307788938 0.027889729
vt 0.306598037 0.034025431
vt 0.225702256 0.022265434
vt 0.326541215 0.030753016
vt 0.325322866 0.036693335
vt 0.350529909 0.034138441
vt 0.349152416 0.040242434
vt 0.370648265 0.036594987
vt 0.369428068 0.042615891
vt 0.428640127 0.043189168
vt 0.427267611 0.048639297
vt 0.428640127 0.043189168
vt 0.435740888 0.048646212
vt 0.427240521 0.056172967
vt 0.427267611 0.048639297
vt 0.243813902 0.01785326
vt 0.30799669 0.026886463
vt 0.326735854 0.029755712
vt 0.350716829 0.033117414
vt 0.370844036 0.035598874
vt 0.428883314 0.042252064
vt 0.243813902 0.01785326
vt 0.242142797 0.013831735
vt 0.247067168 0.229992151
vt 0.247488365 0.233219624
vt 0.231491312 0.233089089
vt 0.231692925 0.229653239
vt 0.249224231 0.003211141
vt 0.311179042 0.014065862
vt 0.329369783 0.016948223
vt 0.352877021 0.020128489
vt 0.373064578 0.022203088
vt 0.431066841 0.030226469
vt 0.246760085 0.008866787
vt 0.245495155 0.014805317
vt 0.245495155 0.014805317
vt 0.308636785 0.024027467
vt 0.30799669 0.026886463
vt 0.243813902 0.01785326
vt 0.327299744 0.026918054
vt 0.326735854 0.029755712
vt 0.351230085 0.03027308
vt 0.350716829 0.033117414
vt 0.371367097 0.032686353
vt 0.370844036 0.035598874
vt 0.428201735 0.039489388
vt 0.428883314 0.042252064
vt 0.428201735 0.039489388
vt 0.430012524 0.03491807
vt 0.249224231 0.003211141
vt 0.311179042 0.014065862
vt 0.249224231 0.003211141
vt 0.248742998 5.2094e-05
vt 0.311946124 0.011084557
vt 0.329369783 0.016948223
vt 0.329959571 0.01407361
vt 0.352877021 0.020128489
vt 0.353264779 0.017183423
vt 0.373064578 0.022203088
vt 0.373482764 0.019189596
vt 0.431066841 0.030226469
vt 0.431066841 0.030226469
vt 0.432705194 0.027542353
vn -1e-09 -0.99992758 -0.012033528
vn 5.75e-07 -0.999711514 -0.024016289
vn -5.7e-08 -1 7.5e-08
vn 0 -1 7.5e-08
vn 1 0 2.3e-08
vn 0.980508626 0.196420252 0.004681414
vn 0.99390173 0.098621756 -0.049325351
vn 1 -0 -2.2e-08
vn 0 1 -7.5e-08
vn 0 0.999837458 0.018028582
vn -1e-09 0.999927521 0.012040855
vn 0 1 -7.5e-08
vn -0.982624292 0.129852772 -0.132618815
vn -0.980491757 0.196545899 0.002358089
vn -1 0 0
vn -1 -0 -8.2e-08
vn 0 7.5e-08 1
vn 0 7.5e-08 1
vn 0 7.5e-08 1
vn 0 7.5e-08 1
vn 0 0.262672186 -0.964885056
vn 0 0.262673497 -0.964884758
vn 0 0.262671769 -0.964885235
vn 0 0.262672186 -0.964885056
vn -0.980552733 0.195668042 0.015176257
vn -1 0 0
vn -2e-09 -0.997006357 -0.077319704
vn 1.987e-06 -0.992948294 -0.118548304
vn 1 0 4e-09
vn 0.980552971 0.194870755 0.023264363
vn 0 0.995190322 0.097960331
vn -2e-09 0.997003317 0.077358849
vn -0.980522394 0.192862913 0.03714522
vn -1 -0 -3.9e-08
vn -1e-09 -0.981948555 -0.189148247
vn -4.325e-06 -0.975816548 -0.21859102
vn 1 -0 -1.6e-08
vn 0.980522156 0.19165805 0.042936713
vn 0 0.978994548 0.203886062
vn -1e-09 0.981955111 0.189114198
vn -0.980483174 0.19003126 0.050406683
vn -1 0 4.5e-08
vn 1.589e-06 -0.96670109 -0.255907923
vn -1.191e-06 -0.964546204 -0.263914108
vn 1 0 1.5e-08
vn 0.980491936 0.189527318 0.052105136
vn 0 0.962383747 0.271693885
vn 3.161e-06 0.964591503 0.263748378
vn -0.974600136 0.165592685 0.150776818
vn -1 0 3.4e-08
vn 0 -0.96231842 -0.271925211
vn 0 -0.962318301 -0.271925241
vn 1 0 0
vn 0.974606514 0.043529648 0.219652519
vn 0 0.955386281 0.295359164
vn 0 0.955386281 0.295359164
vn 0 7.5e-08 1
vn 0 7.5e-08 1
vn 0 7.5e-08 1
vn 0 7.5e-08 1
vn 0 7.5e-08 1
vn 0 7.5e-08 1
vn 0 7.5e-08 1
vn 0 7.5e-08 1
vn 0 7.5e-08 1
vn 0 7.5e-08 1
vn 0 7.5e-08 1
vn 0 7.5e-08 1
vn 0 7.5e-08 1
vn 0 7.5e-08 1
vn 0 7.5e-08 1
vn 0 7.5e-08 1
vn 1 0 2.4e-08
vn 1 0 1.2e-08
vn 0.994569242 -0.095772035 0.040740255
vn 0.979510605 -0.167074844 0.112449564
vn -2e-09 -0.998652101 -0.051903915
vn 2.498e-06 -0.994593978 -0.103840761
vn 0 -1 7.5e-08
vn 0 -1 7.5e-08
vn -0.9746176 -0.2033896 0.093558393
vn -1 -0 -6e-09
vn -1 0 0
vn -0.900616825 -0.35322246 0.253225446
vn 0 1 -7.5e-08
vn 0 0.989171565 0.146763697
vn 0 0.989171684 0.14676328
vn -6.061e-06 1 -7.5e-08
vn 1 0 3e-09
vn 1 0 1.1e-08
vn 0 -0.987862527 -0.155330747
vn 0 -0.987862527 -0.155330718
vn -1 0 9.7e-08
vn -1 -0 -1.5e-08
vn 0 0.956920743 0.290349007
vn 0 0.956920743 0.290349007
vn -0.984389663 -0.118002757 0.130584896
vn -0.980502129 -0.188918382 -0.054085851
vn -1 0 0
vn -1 0 0
vn -0.980514586 -0.191699445 -0.042923167
vn -1 -0 -3.3e-08
vn -0.980547607 -0.194898903 -0.023254206
vn -1 0 1.3e-08
vn -0.980493963 -0.196492031 -0.004726153
vn -1 0 0
vn -0.97482121 -0.19944337 -0.099729002
vn -1 0 0
vn 0 7.5e-08 1
vn 0 7.5e-08 1
vn 1 0 0
vn 1 -0 -9e-09
vn 1 -0 -1.4e-08
vn 1 0 0
vn 1 0 8e-09
vn 1 0 4e-08
vn 0 7.5e-08 1
vn 0 7.5e-08 1
vn 0 7.5e-08 1
vn 0 7.5e-08 1
vn -1 0 1e-08
vn -1 0 0
vn -1 0 0
vn -1 0 0
vn -1 0 0
vn -1 0 0
vn 0 7.5e-08 1
vn 0 7.5e-08 1
vn 0 7.5e-08 1
vn 0 7.5e-08 1
vn 0.984051168 -0.079560332 -0.159101799
vn 0.980497658 -0.196516514 -0.002349708
vn 1 0 4.9e-08
vn 1 0 0
vn 0.9805516 -0.19567357 -0.015179962
vn 1 -0 -8e-09
vn 0.980522692 -0.192861989 -0.037142232
vn 1 0 0
vn 0.980490386 -0.189722151 -0.051420968
vn 1 0 0
vn 0.975347936 -0.217257783 0.038669381
vn 1 0 0
vn 0 0.262670547 -0.964885533
vn 0 0.262672067 -0.964885175
vn 0 0.26267153 -0.964885294
vn 0 0.26267001 -0.964885712
vn -0.983737826 0.034444332 0.176276341
vn -0.980493307 0.189047217 0.053795908
vn -0.980496049 -0.1896981 -0.051402092
vn -0.975347817 -0.217257947 0.038673658
vn -0.980523765 0.19164966 0.042937271
vn -0.980517626 -0.192888543 -0.037136782
vn -0.980554044 0.194865048 0.0232675
vn -0.980554402 -0.195659295 -0.01517952
vn -0.980487049 0.196527064 0.00470824
vn -0.98049885 -0.196510077 -0.002376695
vn -0.974822044 0.199443027 -0.099721581
vn -0.984047532 -0.079582058 -0.159113526
vn 0 7.5e-08 1
vn 0 7.5e-08 1
vn 1 0 0
vn 1 0 4e-09
vn 1 -0 -3.2e-08
vn 0 7.5e-08 1
vn 0 7.5e-08 1
vn -1 0 1.2e-08
vn -1 0 4e-09
vn -1 0 0
vn 0 7.5e-08 1
vn 0 7.5e-08 1
vn 0.984049201 0.079582006 -0.159102976
vn 0.980493486 0.196537539 0.00236178
vn 0.980497777 -0.196473271 -0.004712041
vn 0.974819124 -0.19945319 -0.099730425
vn 0.980554342 0.195660487 0.015170191
vn 0.98055476 -0.194862172 -0.023260381
vn 0.980516016 0.192891017 0.037167035
vn 0.980525017 -0.191645712 -0.042924967
vn 0.980494499 0.189743653 0.051262248
vn 0.980496585 -0.188951105 -0.054072466
vn 0.974340141 0.164803863 0.153300256
vn 0.984385192 -0.118033923 0.130589962
vn 0 0.262672991 -0.964884937
vn 0 0.262674034 -0.964884639
vn 0 0.262672722 -0.964884996
vn 0 0.262671709 -0.964885235
vn -1 0 0
vn -1 0 0
vn -0.980492711 0.189754352 0.051258396
vn -0.974342227 0.164794236 0.153296992
vn -1 0 1e-09
vn -0.980523348 0.19285737 0.037146725
vn -1 0 9e-09
vn -0.980554104 0.1956608 0.015178781
vn -1 0 0
vn -0.980500698 0.196500868 0.00238189
vn -1 0 3e-09
vn -0.984049678 0.079553619 -0.15911448
vn 0.072896086 0.286617428 0.955267847
vn 0.136547416 0.578326166 0.80429703
vn 1 -0 -3.2e-08
vn 1 0 6e-09
vn 1 -0 -3e-09
vn 0 7.5e-08 1
vn 0 7.5e-08 1
vn -1 0 0
vn -1 -0 -1e-09
vn -1 0 1.8e-08
vn -0.073876701 0.29045257 0.954033256
vn -0.136643246 0.578279674 0.804314077
vn 1 0 0
vn 1 0 0
vn 0.980494082 0.196491748 0.004722421
vn 0.974820912 0.199444383 -0.099729843
vn 1 0 2e-08
vn 0.980551898 0.194875851 0.023268411
vn 1 -0 -4.3e-08
vn 0.980524242 0.191648751 0.042927876
vn 1 0 5.1e-08
vn 0.980491936 0.189050511 0.053809386
vn 1 0 1e-08
vn 0.983741224 0.034414742 0.176263332
vn 0 0.262670964 -0.964885473
vn 0 0.262671679 -0.964885235
vn 0 0.26267159 -0.964885294
vn 0 0.26267001 -0.964885712
vn -0.983840346 0.034637164 0.175665185
vn -0.98048842 0.189364955 0.052757449
vn -0.98050946 -0.189779297 -0.050843108
vn -0.975168169 -0.21774292 0.040434256
vn -0.980525911 0.191637754 0.042940661
vn -0.980523944 -0.192854196 -0.037147868
vn -0.98054862 0.194893792 0.023255441
vn -0.980552435 -0.19566974 -0.01517592
vn -0.980487287 0.196525916 0.00470867
vn -0.980490983 -0.196549729 -0.002354813
vn -0.974821866 0.199443445 -0.099721827
vn -0.984049737 -0.079577945 -0.159101725
vn 0 7.5e-08 1
vn 0 7.5e-08 1
vn 0 7.5e-08 1
vn 0 7.5e-08 1
vn 1 0 1.2e-08
vn 1 0 7e-09
vn 1 0 0
vn 1 0 1.5e-08
vn 1 -0 -5e-08
vn 1 -0 -1.4e-08
vn 0 7.5e-08 1
vn 0 7.5e-08 1
vn 0 7.5e-08 1
vn 0 7.5e-08 1
vn -1 0 4.9e-08
vn -1 -0 -1.9e-08
vn -1 -0 -1e-08
vn -1 0 3.1e-08
vn -1 0 3.2e-08
vn -1 0 6.8e-08
vn 0 7.5e-08 1
vn 0 7.5e-08 1
vn 0 7.5e-08 1
vn 0 7.5e-08 1
vn 0.984049201 0.079581 -0.159103766
vn 0.980486274 0.196573064 0.002381661
vn 0.980498016 -0.196472272 -0.00471211
vn 0.974822342 -0.199441746 -0.099721245
vn 0.98054862 0.19568786 0.015189135
vn 0.980552733 -0.194871634 -0.023266697
vn 0.98052597 0.192847222 0.037131004
vn 0.980523646 -0.191651434 -0.042931087
vn 0.980488777 0.189908996 0.050757445
vn 0.980493605 -0.189294532 -0.052913263
vn 0.97450155 0.16527003 0.151765019
vn 0.984270751 -0.118234485 0.131269231
vn 0 0.262669623 -0.964885771
vn 0 0.262668639 -0.964886069
vn 0 0.262670547 -0.964885533
vn 0 0.26267156 -0.964885294
vn -0.984202087 -0.118313864 0.131712049
vn -0.980483234 -0.189544752 -0.052206077
vn -0.980494082 0.189884737 0.050745513
vn -0.974507034 0.165256217 0.151744589
vn -0.980523884 -0.191648543 -0.042938173
vn -0.980524778 0.192849711 0.037148166
vn -0.980548322 -0.194895297 -0.023255555
vn -0.980553627 0.195663109 0.015178988
vn -0.980494142 -0.196491241 -0.004726813
vn -0.980507612 0.196466267 0.002399772
vn -0.995734155 0.000359714 -0.092267305
vn -0.993900895 0.04932826 -0.098629251
vn 0 7.5e-08 1
vn 0 7.5e-08 1
vn 0 7.5e-08 1
vn 0 7.5e-08 1
vn 1 0 1.04e-07
vn 1 -0 -1e-09
vn 1 -0 -2e-08
vn 0 7.5e-08 1
vn 0 7.5e-08 1
vn -1 0 7.9e-08
vn -1 -0 -1.8e-08
vn -1 0 1.25e-07
vn 0 7.5e-08 1
vn 0 7.5e-08 1
vn 0 7.5e-08 1
vn 0 7.5e-08 1
vn 0.980058491 0.133733675 -0.146971226
vn 0.980497718 -0.196516186 -0.002349328
vn 0.980501473 0.196455613 0.004701784
vn 0.991989851 0.112977803 -0.056497756
vn 0.980552256 -0.195670336 -0.015178225
vn 0.980552495 0.194872811 0.023265924
vn 0.980523229 -0.19285965 -0.03714066
vn 0.980519772 0.191668138 0.0429455
vn 0.980480492 -0.190017164 -0.050512109
vn 0.980501771 0.189304903 0.052725121
vn 0.975060105 -0.218028307 0.041489191
vn 0.983845294 0.034612279 0.175643072
vn 0 0.26267159 -0.964885294
vn 0 0.26267305 -0.964884877
vn 0 0.262672573 -0.964884996
vn 0 0.262671113 -0.964885414
vn -0.983906031 0.034755312 0.175274074
vn -0.980478704 0.189599037 0.052092817
vn -0.980496407 -0.189944014 -0.050477494
vn -0.975060642 -0.218022585 0.04150686
vn -0.980527043 0.19163166 0.042942766
vn -0.98052299 -0.192859948 -0.037145104
vn -0.980549455 0.194889337 0.023258068
vn -0.980551779 -0.195673406 -0.015173338
vn -0.980487406 0.196525231 0.004708838
vn -0.980498254 -0.196513385 -0.002375043
vn -0.974821925 0.199444056 -0.099721223
vn -0.984047949 -0.07959576 -0.159104452
vn 0 7.5e-08 1
vn 0 7.5e-08 1
vn 0 7.5e-08 1
vn 0 7.5e-08 1
vn 0 7.5e-08 1
vn 0 7.5e-08 1
vn 0 7.5e-08 1
vn 0 7.5e-08 1
vn 0 7.5e-08 1
vn 0 7.5e-08 1
vn 0.984048247 0.079595365 -0.159101918
vn 0.980478704 0.1966106 0.002402999
vn 0.980489492 -0.196514502 -0.004735381
vn 0.974819243 -0.199452624 -0.099730439
vn 0.980549693 0.195682481 0.015185758
vn 0.98055166 -0.194876552 -0.02326992
vn 0.980518997 0.192877695 0.037155777
vn 0.980522811 -0.191655114 -0.04293393
vn 0.980478704 0.190038621 0.050465025
vn 0.980480492 -0.189544767 -0.052257478
vn 0.974600732 0.165570065 0.150797606
vn 0.984202087 -0.118316285 0.131709874
vn 0 0.262670904 -0.964885473
vn 0 0.262671947 -0.964885116
vn 0 0.262669623 -0.964885831
vn 0 0.26266858 -0.964886069
vn -0.984275341 -0.118199542 0.131266505
vn -0.980487168 -0.18932873 -0.052910626
vn -0.980522335 -0.191656932 -0.042935316
vn -0.980554879 -0.194860741 -0.023269868
vn -0.98049438 -0.196490154 -0.004726802
vn -0.991986632 -0.113007918 -0.056495734
vn 0.993900061 -0.049315479 -0.098644637
vn 0.980497539 -0.196516931 -0.002350931
vn 0.980550528 -0.195678517 -0.015184294
vn 0.980521858 -0.192865595 -0.037145536
vn 0.980484545 -0.189905331 -0.050852682
vn 0.975170672 -0.217733532 0.040425837
vn 0 0.262672275 -0.964885116
vn 0 0.262672931 -0.964884937
vn -0.062828861 0.287888557 0.955600739
vn -0.13663213 0.578286827 0.804310918
vn 0 7.5e-08 1
vn 0 7.5e-08 1
vn 0.063655555 0.291718662 0.954383671
vn 0.136557549 0.578336835 0.804287553
vn 0 7.5e-08 1
vn 0 7.5e-08 1
vn 0.820369244 -0.464150876 0.33400324
vn 0.583950162 -0.644872189 0.493094236
vn 0.622226059 -0.635424376 0.45724237
vn 0.979495883 -0.167135939 0.11248675
vn -1 -0 -1.07e-07
vn -1 0 1.29e-07
vn -0.886364102 0.420612335 -0.193504065
vn -0.546380162 0.770694196 -0.327870548
vn -0.570988774 0.74581778 -0.343114436
vn -0.982628644 0.129854769 -0.132584989
vn 1 0 0
vn 1 0 0
vn 1 0 0
vn 1 0 0
vn 1 -0 -1.11e-07
vn -0.621934593 -0.636419952 0.456253111
vn -0.955850303 -0.243778571 0.164079934
vn -0.642439127 -0.608764708 0.465486139
vn -1 0 0
vn 0.57126689 0.745137334 -0.344128549
vn 0.876346469 0.431319267 -0.214430645
vn 0.57126385 0.745138109 -0.344131798
vn 0.605223477 0.732523084 -0.311631888
vn -1 -0 -1.24e-07
vn -1 -0 -1.24e-07
vn -0.991990209 -0.112986222 -0.056476224
vn -1 0 1.06e-07
vn -0.123255111 0.947796345 0.294092298
vn -0.113775581 0.947234929 0.299668223
vn -0.12325827 0.947796464 0.29409045
vn -0.132735744 0.948243558 0.288470864
vn 1 -0 -6.7e-08
vn 1 -0 -6.7e-08
vn 1 -0 -6.7e-08
vn 1 -0 -1.15e-07
vn 0.230941147 -0.958271623 -0.16846858
vn 0.214616999 -0.963728011 -0.158643976
vn 0.23094742 -0.958269596 -0.168471813
vn 0.247191712 -0.952432692 -0.17823644
vn -1 0 0
vn -1 0 0
vn -1 0 0
vn 0.123215169 0.947809279 0.294067144
vn 0.114162251 0.950454235 0.289142907
vn 0.123240501 0.947801828 0.294080704
vn 0.132288054 0.945046604 0.298976153
vn 1 0 1.24e-07
vn 1 0 1.24e-07
vn 0.991990209 0.112973459 -0.056501493
vn 1 -0 -1.06e-07
vn -0.231014743 -0.958239377 -0.168551221
vn -0.213832378 -0.960201681 -0.17968975
vn -0.231025144 -0.958238125 -0.16854395
vn -0.24808386 -0.955873966 -0.157351404
vn -1 -0 -2.85e-07
vn -1 -0 -2.85e-07
vn -0.993901312 0.049317706 -0.098630644
vn -1 -0 -5.4e-08
vn -0.230989486 0.958242476 0.168567896
vn -0.213832378 0.960201681 0.179689839
vn -0.231011182 0.958239734 0.168553934
vn -0.248084143 0.955873787 0.157351494
vn 1 0 4.11e-07
vn 0.775636196 -0.59598881 0.207812101
vn 1 0 4.11e-07
vn 1 0 1.32e-07
vn 0.775617123 -0.596005619 0.207835004
vn 0.50307548 -0.807972789 0.306748986
vn 0.536544323 -0.796829343 0.27781862
vn 0.568910897 -0.784021914 0.2482941
vn -1 0 1.37e-07
vn -1 0 1.37e-07
vn -1 0 1.37e-07
vn -1 0 5.58e-07
vn 0.230928183 0.958276212 0.168460131
vn 0.214616984 0.963727951 0.158644065
vn 0.230961412 0.958264649 0.168480068
vn 0.247191414 0.952432871 0.178236142
vn 1 -0 -6.3e-08
vn 1 -0 -6.3e-08
vn 0.980057299 0.13374424 -0.146970183
vn 1 -0 -2.45e-07
vn -0.536311984 -0.797312677 0.276878804
vn -0.869027317 -0.471679181 0.149366185
vn -0.536309361 -0.7973153 0.27687645
vn -0.561394572 -0.773667514 0.29372558
vn -0.886371076 0.42060253 -0.193493471
vn -0.7754547 0.596459806 -0.207136899
vn -0.995736241 0.000371717 -0.092245147
vn -0.886371076 0.420610577 -0.193476051
vn -0.775460958 0.596454918 -0.207127646
vn -0.510434806 0.819788694 -0.259620368
vn -0.536316752 0.797308266 -0.276882499
vn -0.995740652 0.000352107 -0.092197284
vn 1 -0 -3.17e-07
vn 0.793934286 -0.55198133 0.254921496
vn 0.994569242 -0.095771015 0.040742382
vn 1 0 2.72e-07
vn 0.793935001 -0.551979482 0.254923403
vn 0.535954833 -0.755987287 0.375813127
vn 0.571260273 -0.745139122 0.344135672
vn 0.994569421 -0.0957499 0.040785499
vn -0.949945271 -0.287481725 0.122303419
vn -0.869037628 -0.47164759 0.149406195
vn -1 0 0
vn -0.949945271 -0.287489295 0.122285627
vn 0.536549509 0.796827853 -0.277812988
vn 0.945252299 0.305093497 -0.115827329
vn 0.980058253 0.133730888 -0.146975294
vn 0.56891042 0.784022331 -0.248293772
vn 0.945260465 0.305071771 -0.115818448
vn 0.876339912 0.431339175 -0.214417398
vn 0.993901372 0.098637477 -0.049303126
vn 0.945260406 0.305072218 -0.115817681
vn -0.570983589 -0.745823741 0.343110353
vn -0.9499439 -0.287502378 0.122265995
vn -0.97462064 -0.203365892 0.093577936
vn -0.594761968 -0.719859958 0.357854426
vn 1 0 5.8e-08
vn 1 0 3.37e-07
vn -0.12323758 -0.947795451 -0.294102281
vn -0.113775596 -0.947235048 -0.299668103
vn -0.123275481 -0.947797477 -0.294080019
vn -0.13273555 -0.948243558 -0.288470775
vn -1 -0 -2.43e-07
vn -1 -0 -2.43e-07
vn -1 -0 -2.43e-07
vn -1 0 2.08e-07
vn 1 -0 -7.5e-08
vn 1 0 2.02e-07
vn 0.123232357 -0.947804332 -0.294076115
vn 0.114162259 -0.950454295 -0.289142758
vn 0.123223618 -0.947806895 -0.294071406
vn 0.132288203 -0.945046425 -0.29897669
vn -1 0 3e-07
vn -1 0 3e-07
vn -1 0 3e-07
vn -1 0 3.2e-08
vn 0 -1 7.5e-08
vn 0 -0.999837458 -0.01802831
vn 5.9436e-05 -0.99992764 -0.012025197
vn 0 -1 7.5e-08
vn 0 -0.995190263 -0.097960949
vn 0 -0.997006536 -0.077316932
vn -5e-09 -0.978994668 -0.203885764
vn 0 -0.981948674 -0.189147234
vn 7.77e-07 -0.96563679 -0.259895295
vn -2.9842e-05 -0.966696382 -0.255926043
vn 1.57e-06 -0.962319076 -0.271922797
vn -3.141e-06 -0.962319613 -0.27192086
vn 0 0.267299563 -0.96361351
vn 0 0.262671739 -0.964885235
vn 0 0.262671262 -0.964885414
vn 0 0.265112579 -0.964217424
vn 0 0.262673259 -0.964884877
vn 0 0.262674272 -0.96488452
vn 0 0.262672126 -0.964885175
vn 0 0.262673557 -0.964884758
vn 0 0.262667835 -0.964886308
vn 0 0.262666792 -0.964886606
vn 0 0.262672484 -0.964884996
vn 0 0.262672931 -0.964884937
vn 0 0.262671888 -0.964885116
vn 0 0.262674272 -0.964884579
vn 0 0.262675226 -0.964884222
vn 0 0.262671113 -0.964885414
vn 0 0.262672603 -0.964884996
vn -3.16e-06 0.960111141 0.279618502
vn 0 0.955386281 0.295359105
vn 1e-09 0.975811124 0.21861507
vn 2e-09 0.99294728 0.118556686
vn 1e-09 0.999711514 0.024017777
vn 0 1 -7.5e-08
vn 0 -0.998652101 -0.051903915
vn 0 -1 7.5e-08
vn 0 -0.987862527 -0.155330658
vn 0 7.5e-08 1
vn 0 7.5e-08 1
vn 0 7.5e-08 1
vn 0 7.5e-08 1
vn 0 7.5e-08 1
vn 0 7.5e-08 1
vn 0 7.5e-08 1
vn 0 7.5e-08 1
vn 0 7.5e-08 1
vn 0 7.5e-08 1
vn 0 7.5e-08 1
vn 0 0.956920803 0.290348977
vn 0 0.989171565 0.146763384
vn -1.892e-05 0.980720818 0.19541423
vn 0 0.956920862 0.290348947
vn 8.8e-08 1 -7.5e-08
vn 0 1 -7.5e-08
vn 0 5.52e-07 1
vn 0 1.975e-06 1
vn 0 -3.97e-07 1
vn 0 -2.373e-06 1
vn 0 7.5e-08 1
vn 0 7.5e-08 1
vn 0 7.5e-08 1
vn 0 7.5e-08 1
vn -8.8e-08 1 -7.5e-08
vn -4e-09 0.989171505 0.146764129
vn 1.892e-05 0.995210409 0.097756043
vn 0 1 -7.5e-08
vn 0 0.956920743 0.290349036
vn 0 0.956920743 0.290349036
vn 0 7.5e-08 1
vn 0 7.5e-08 1
vn 0 7.5e-08 1
vn 0 7.5e-08 1
vn -6.0459e-05 -0.999927402 -0.012043065
vn -1.1596e-05 -1 7.5e-08
vn 0 -0.997003257 -0.077359445
vn 0 -0.98194921 -0.189144775
vn 0 -0.966701329 -0.255907297
vn 0 -0.962318301 -0.27192533
vn 0 0.26267308 -0.964884877
vn -2.8e-08 0.26631099 -0.963887155
vn -0.908304214 -0.418003798 0.016007109
vn -0.903613567 -0.428122699 0.013904578
vn -0.908307016 -0.417997628 0.016008331
vn -0.912889838 -0.407803893 0.018112948
vn 4e-09 0.989171267 0.146765709
vn 1.1499e-05 1 -7.5e-08
vn 0 0.956920743 0.290349007
vn 0 7.5e-08 1
vn 0 7.5e-08 1
vn 5.7e-08 -1 7.5e-08
vn 4e-09 -0.999837458 -0.018028207
vn 0 -0.99992758 -0.012033526
vn 0 -1 7.5e-08
vn 0 -0.995190322 -0.097959965
vn 0 -0.997006357 -0.077319704
vn 0 -0.978994846 -0.203885153
vn 0 -0.981948555 -0.189148247
vn 0 -0.965631664 -0.25991419
vn 0 -0.96670109 -0.255907923
vn 0 -0.962318301 -0.27192533
vn 0 -0.96231842 -0.271925211
vn 0 0.262673527 -0.964884818
vn 0 0.262671649 -0.964885235
vn 0 0.262672186 -0.964885056
vn 0 0.262672186 -0.964885056
vn 4.532e-06 -1 7.5e-08
vn 0 -0.999711215 -0.024031805
vn 0 -0.992951632 -0.118520088
vn 0 -0.975818813 -0.218580693
vn 0 -0.964545488 -0.263916612
vn 0 -0.962318361 -0.271925479
vn 0 7.5e-08 1
vn 0 7.5e-08 1
vn 0.908315957 -0.417979181 0.015986584
vn 0.91294992 -0.407829851 0.014048244
vn 0.908315778 -0.417979419 0.015987599
vn 0.903555274 -0.428096175 0.017927738
vn 0 -1 7.5e-08
vn 0 -0.999711573 -0.02401319
vn 0 -0.992946327 -0.118564911
vn 1.1e-08 -0.975819588 -0.2185774
vn 2.8276e-05 -0.964541078 -0.263932824
vn 0 -0.962318361 -0.271925271
vn 0 7.5e-08 1
vn 0 7.5e-08 1
vn 0.999949992 4.957e-06 -0.010000239
vn 0.999994516 5.9888e-05 -0.003322858
vn 0.999978065 6.0798e-05 -0.006622315
vn 0.999950051 -1e-09 -0.010000453
vn 1 -0 -2.3e-08
vn 1 -0 -2.5e-08
vn 1 0 2.5e-08
vn 1 0 2.3e-08
vn 1 0 2.4e-08
vn 1 0 2.7e-08
vn 1 -0 -3.6e-08
vn 1 -0 -3.2e-08
vn 0 0.271921277 -0.962319493
vn 0 0.271921247 -0.962319493
vn 0 7.5e-08 1
vn -0.999977708 6.0021e-05 -0.006673803
vn -0.999950111 -1e-09 -0.009992663
vn -0.999950111 4.957e-06 -0.009992878
vn -0.999994397 5.9957e-05 -0.003326691
vn -1 0 2e-09
vn -1 0 6e-09
vn -1 -0 -4e-09
vn -1 -0 -1e-09
vn -1 -0 -1.3e-08
vn -1 -0 -1.2e-08
vn 0 0.271921307 -0.962319493
vn -1 -0 -2.4e-08
vn -1 -0 -2.4e-08
usemtl m4a1_magazine_surface
o Magazine
f 1/1/1 2/2/2 3/3/3
f 3/3/3 4/4/4 1/1/1
f 5/5/5 6/6/6 7/7/7
f 7/7/7 8/8/8 5/5/5
f 9/9/9 10/10/10 11/11/11
f 11/11/11 12/12/12 9/9/9
f 13/13/13 14/14/14 15/15/15
f 15/15/15 16/16/16 13/13/13
f 17/17/17 18/18/18 19/19/19
f 19/19/19 20/20/20 17/17/17
f 21/21/21 22/22/22 23/23/23
f 23/23/23 24/24/24 21/21/21
f 14/14/14 25/25/25 26/26/26
f 26/26/26 15/15/15 14/14/14
f 27/27/27 28/28/28 2/2/2
f 2/2/2 1/1/1 27/27/27
f 29/29/29 30/30/30 6/6/6
f 6/6/6 5/5/5 29/29/29
f 10/10/10 31/31/31 32/32/32
f 32/32/32 11/11/11 10/10/10
f 25/25/25 33/33/33 34/34/34
f 34/34/34 26/26/26 25/25/25
f 35/35/35 36/36/36 28/28/28
f 28/28/28 27/27/27 35/35/35
f 37/37/37 38/38/38 30/30/30
f 30/30/30 29/29/29 37/37/37
f 31/31/31 39/39/39 40/40/40
f 40/40/40 32/32/32 31/31/31
f 33/33/33 41/41/41 42/42/42
f 42/42/42 34/34/34 33/33/33
f 43/43/43 44/44/44 36/36/36
f 36/36/36 35/35/35 43/43/43
f 45/45/45 46/46/46 38/38/38
f 38/38/38 37/37/37 45/45/45
f 39/39/39 47/47/47 48/48/48
f 48/48/48 40/40/40 39/39/39
f 41/41/41 49/49/49 50/50/50
f 50/50/50 42/42/42 41/41/41
f 51/51/51 52/52/52 44/44/44
f 44/44/44 43/43/43 51/51/51
f 53/53/53 54/54/54 46/46/46
f 46/46/46 45/45/45 53/53/53
f 47/47/47 55/55/55 56/56/56
f 56/56/56 48/48/48 47/47/47
f 57/57/57 58/58/58 59/59/59
f 59/59/59 60/60/60 57/57/57
f 61/61/61 62/62/62 63/63/63
f 63/63/63 64/64/64 61/61/61
f 65/65/65 66/66/66 67/67/67
f 67/67/67 68/68/68 65/65/65
f 69/69/69 70/70/70 71/71/71
f 71/71/71 72/72/72 69/69/69
f 73/73/73 74/74/74 75/75/75
f 75/75/75 76/76/76 73/73/73
f 77/77/77 78/78/78 79/79/79
f 79/79/79 80/80/80 77/77/77
f 81/81/81 82/82/82 83/83/83
f 83/83/83 84/84/84 81/81/81
f 85/85/85 86/86/86 87/87/87
f 87/87/87 88/88/88 85/85/85
f 89/89/89 90/90/90 74/74/74
f 74/74/74 73/73/73 89/89/89
f 91/91/91 92/92/92 78/78/78
f 78/78/78 77/77/77 91/91/91
f 82/82/82 93/93/93 94/94/94
f 94/94/94 83/83/83 82/82/82
f 86/86/86 95/95/95 96/96/96
f 96/96/96 87/87/87 86/86/86
f 97/97/97 98/98/98 99/99/99
f 99/99/99 100/100/100 97/97/97
f 98/98/98 101/101/101 102/102/102
f 102/102/102 99/99/99 98/98/98
f 101/101/101 103/103/103 104/104/104
f 104/104/104 102/102/102 101/101/101
f 103/103/103 105/105/105 106/106/106
f 106/106/106 104/104/104 103/103/103
f 105/105/105 107/107/107 108/108/108
f 108/108/108 106/106/106 105/105/105
f 109/109/109 110/110/110 61/61/61
f 61/61/61 64/64/64 109/109/109
f 111/111/111 112/112/112 113/113/113
f 113/113/113 114/114/114 111/111/111
f 112/112/112 115/115/115 116/116/116
f 116/116/116 113/113/113 112/112/112
f 117/117/117 118/118/118 119/119/119
f 119/119/119 120/120/120 117/117/117
f 121/121/121 122/122/122 123/123/123
f 123/123/123 124/124/124 121/121/121
f 122/122/122 125/125/125 126/126/126
f 126/126/126 123/123/123 122/122/122
f 127/127/127 128/128/128 129/129/129
f 129/129/129 130/130/130 127/127/127
f 131/131/131 132/132/132 133/133/133
f 133/133/133 134/134/134 131/131/131
f 132/132/132 135/135/135 136/136/136
f 136/136/136 133/133/133 132/132/132
f 135/135/135 137/137/137 138/138/138
f 138/138/138 136/136/136 135/135/135
f 137/137/137 139/139/139 140/140/140
f 140/140/140 138/138/138 137/137/137
f 139/139/139 141/141/141 142/142/142
f 142/142/142 140/140/140 139/139/139
f 143/143/143 144/144/144 145/145/145
f 145/145/145 146/146/146 143/143/143
f 147/147/147 148/148/148 149/149/149
f 149/149/149 150/150/150 147/147/147
f 148/148/148 151/151/151 152/152/152
f 152/152/152 149/149/149 148/148/148
f 151/151/151 153/153/153 154/154/154
f 154/154/154 152/152/152 151/151/151
f 153/153/153 155/155/155 156/156/156
f 156/156/156 154/154/154 153/153/153
f 155/155/155 157/157/157 158/158/158
f 158/158/158 156/156/156 155/155/155
f 159/159/159 160/160/160 110/110/110
f 110/110/110 109/109/109 159/159/159
f 161/161/161 162/162/162 112/112/112
f 112/112/112 111/111/111 161/161/161
f 162/162/162 163/163/163 115/115/115
f 115/115/115 112/112/112 162/162/162
f 164/164/164 165/165/165 118/118/118
f 118/118/118 117/117/117 164/164/164
f 166/166/166 167/167/167 122/122/122
f 122/122/122 121/121/121 166/166/166
f 167/167/167 168/168/168 125/125/125
f 125/125/125 122/122/122 167/167/167
f 169/169/169 170/170/170 128/128/128
f 128/128/128 127/127/127 169/169/169
f 171/171/171 172/172/172 173/173/173
f 173/173/173 174/174/174 171/171/171
f 172/172/172 175/175/175 176/176/176
f 176/176/176 173/173/173 172/172/172
f 175/175/175 177/177/177 178/178/178
f 178/178/178 176/176/176 175/175/175
f 177/177/177 179/179/179 180/180/180
f 180/180/180 178/178/178 177/177/177
f 179/179/179 181/181/181 182/182/182
f 182/182/182 180/180/180 179/179/179
f 183/183/183 184/184/184 185/185/185
f 185/185/185 186/186/186 183/183/183
f 187/187/187 188/188/188 189/189/189
f 189/189/189 190/190/190 187/187/187
f 188/188/188 191/191/191 192/192/192
f 192/192/192 189/189/189 188/188/188
f 191/191/191 193/193/193 194/194/194
f 194/194/194 192/192/192 191/191/191
f 193/193/193 195/195/195 196/196/196
f 196/196/196 194/194/194 193/193/193
f 195/195/195 197/197/197 198/198/198
f 198/198/198 196/196/196 195/195/195
f 199/199/199 200/200/200 160/160/160
f 160/160/160 159/159/159 199/199/199
f 201/201/201 202/202/202 162/162/162
f 162/162/162 161/161/161 201/201/201
f 202/202/202 203/203/203 163/163/163
f 163/163/163 162/162/162 202/202/202
f 204/204/204 205/205/205 165/165/165
f 165/165/165 164/164/164 204/204/204
f 206/206/206 207/207/207 167/167/167
f 167/167/167 166/166/166 206/206/206
f 207/207/207 208/208/208 168/168/168
f 168/168/168 167/167/167 207/207/207
f 209/209/209 210/210/210 170/170/170
f 170/170/170 169/169/169 209/209/209
f 211/211/211 212/212/212 213/213/213
f 213/213/213 214/214/214 211/211/211
f 212/212/212 215/215/215 216/216/216
f 216/216/216 213/213/213 212/212/212
f 215/215/215 217/217/217 218/218/218
f 218/218/218 216/216/216 215/215/215
f 217/217/217 219/219/219 220/220/220
f 220/220/220 218/218/218 217/217/217
f 219/219/219 221/221/221 222/222/222
f 222/222/222 220/220/220 219/219/219
f 223/223/223 224/224/224 225/225/225
f 225/225/225 226/226/226 223/223/223
f 227/227/227 228/228/228 229/229/229
f 229/229/229 230/230/230 227/227/227
f 228/228/228 231/231/231 232/232/232
f 232/232/232 229/229/229 228/228/228
f 231/231/231 233/233/233 234/234/234
f 234/234/234 232/232/232 231/231/231
f 233/233/233 235/235/235 236/236/236
f 236/236/236 234/234/234 233/233/233
f 235/235/235 237/237/237 238/238/238
f 238/238/238 236/236/236 235/235/235
f 239/239/239 240/240/240 241/241/241
f 241/241/241 242/242/242 239/239/239
f 243/243/243 244/244/244 245/245/245
f 245/245/245 246/246/246 243/243/243
f 244/244/244 247/247/247 248/248/248
f 248/248/248 245/245/245 244/244/244
f 249/249/249 250/250/250 251/251/251
f 251/251/251 252/252/252 249/249/249
f 253/253/253 254/254/254 255/255/255
f 255/255/255 256/256/256 253/253/253
f 254/254/254 257/257/257 258/258/258
f 258/258/258 255/255/255 254/254/254
f 259/259/259 260/260/260 261/261/261
f 261/261/261 262/262/262 259/259/259
f 263/263/263 264/264/264 265/265/265
f 265/265/265 266/266/266 263/263/263
f 264/264/264 267/267/267 268/268/268
f 268/268/268 265/265/265 264/264/264
f 267/267/267 269/269/269 270/270/270
f 270/270/270 268/268/268 267/267/267
f 269/269/269 271/271/271 272/272/272
f 272/272/272 270/270/270 269/269/269
f 271/271/271 273/273/273 274/274/274
f 274/274/274 272/272/272 271/271/271
f 275/275/275 276/276/276 277/277/277
f 277/277/277 278/278/278 275/275/275
f 279/279/279 280/280/280 281/281/281
f 281/281/281 282/282/282 279/279/279
f 280/280/280 283/283/283 284/284/284
f 284/284/284 281/281/281 280/280/280
f 283/283/283 285/285/285 286/286/286
f 286/286/286 284/284/284 283/283/283
f 285/285/285 287/287/287 288/288/288
f 288/288/288 286/286/286 285/285/285
f 287/287/287 289/289/289 290/290/290
f 290/290/290 288/288/288 287/287/287
f 291/291/291 292/292/292 293/293/293
f 293/293/293 294/294/294 291/291/291
f 295/295/295 296/296/296 244/244/244
f 244/244/244 243/243/243 295/295/295
f 296/296/296 297/297/297 247/247/247
f 247/247/247 244/244/244 296/296/296
f 298/298/298 299/299/299 250/250/250
f 250/250/250 249/249/249 298/298/298
f 300/300/300 301/301/301 254/254/254
f 254/254/254 253/253/253 300/300/300
f 301/301/301 302/302/302 257/257/257
f 257/257/257 254/254/254 301/301/301
f 303/303/303 304/304/304 305/305/305
f 305/305/305 306/306/306 303/303/303
f 307/307/307 308/308/308 309/309/309
f 309/309/309 310/310/310 307/307/307
f 308/308/308 311/311/311 312/312/312
f 312/312/312 309/309/309 308/308/308
f 311/311/311 313/313/313 314/314/314
f 314/314/314 312/312/312 311/311/311
f 313/313/313 315/315/315 316/316/316
f 316/316/316 314/314/314 313/313/313
f 315/315/315 317/317/317 318/318/318
f 318/318/318 316/316/316 315/315/315
f 319/319/319 320/320/320 321/321/321
f 321/321/321 322/322/322 319/319/319
f 323/323/323 324/324/324 325/325/325
f 325/325/325 326/326/326 323/323/323
f 324/324/324 327/327/327 328/328/328
f 328/328/328 325/325/325 324/324/324
f 327/327/327 329/329/329 330/330/330
f 330/330/330 328/328/328 327/327/327
f 329/329/329 331/331/331 332/332/332
f 332/332/332 330/330/330 329/329/329
f 331/331/331 333/333/333 334/334/334
f 334/334/334 332/332/332 331/331/331
f 335/335/335 336/336/336 337/337/337
f 337/337/337 338/338/338 335/335/335
f 75/75/75 74/74/74 296/296/296
f 296/296/296 295/295/295 75/75/75
f 74/74/74 90/90/90 297/297/297
f 297/297/297 296/296/296 74/74/74
f 339/339/339 340/340/340 299/299/299
f 299/299/299 298/298/298 339/339/339
f 93/93/93 82/82/82 301/301/301
f 301/301/301 300/300/300 93/93/93
f 82/82/82 81/81/81 302/302/302
f 302/302/302 301/301/301 82/82/82
f 341/341/341 342/342/342 343/343/343
f 343/343/343 344/344/344 341/341/341
f 345/345/345 346/346/346 347/347/347
f 347/347/347 348/348/348 345/345/345
f 346/346/346 349/349/349 350/350/350
f 350/350/350 347/347/347 346/346/346
f 349/349/349 351/351/351 352/352/352
f 352/352/352 350/350/350 349/349/349
f 351/351/351 353/353/353 354/354/354
f 354/354/354 352/352/352 351/351/351
f 353/353/353 355/355/355 356/356/356
f 356/356/356 354/354/354 353/353/353
f 357/357/357 358/358/358 359/359/359
f 359/359/359 360/360/360 357/357/357
f 97/97/97 190/190/190 147/147/147
f 147/147/147 150/150/150 97/97/97
f 98/98/98 97/97/97 150/150/150
f 150/150/150 149/149/149 98/98/98
f 190/190/190 189/189/189 148/148/148
f 148/148/148 147/147/147 190/190/190
f 101/101/101 98/98/98 149/149/149
f 149/149/149 152/152/152 101/101/101
f 189/189/189 192/192/192 151/151/151
f 151/151/151 148/148/148 189/189/189
f 103/103/103 101/101/101 152/152/152
f 152/152/152 154/154/154 103/103/103
f 192/192/192 194/194/194 153/153/153
f 153/153/153 151/151/151 192/192/192
f 105/105/105 103/103/103 154/154/154
f 154/154/154 156/156/156 105/105/105
f 194/194/194 196/196/196 155/155/155
f 155/155/155 153/153/153 194/194/194
f 107/107/107 105/105/105 156/156/156
f 156/156/156 158/158/158 107/107/107
f 198/198/198 107/107/107 158/158/158
f 158/158/158 157/157/157 198/198/198
f 196/196/196 198/198/198 157/157/157
f 157/157/157 155/155/155 196/196/196
f 131/131/131 214/214/214 171/171/171
f 171/171/171 174/174/174 131/131/131
f 132/132/132 131/131/131 174/174/174
f 174/174/174 173/173/173 132/132/132
f 214/214/214 213/213/213 172/172/172
f 172/172/172 171/171/171 214/214/214
f 135/135/135 132/132/132 173/173/173
f 173/173/173 176/176/176 135/135/135
f 213/213/213 216/216/216 175/175/175
f 175/175/175 172/172/172 213/213/213
f 137/137/137 135/135/135 176/176/176
f 176/176/176 178/178/178 137/137/137
f 216/216/216 218/218/218 177/177/177
f 177/177/177 175/175/175 216/216/216
f 139/139/139 137/137/137 178/178/178
f 178/178/178 180/180/180 139/139/139
f 218/218/218 220/220/220 179/179/179
f 179/179/179 177/177/177 218/218/218
f 141/141/141 139/139/139 180/180/180
f 180/180/180 182/182/182 141/141/141
f 222/222/222 141/141/141 182/182/182
f 182/182/182 181/181/181 222/222/222
f 220/220/220 222/222/222 181/181/181
f 181/181/181 179/179/179 220/220/220
f 361/361/361 282/282/282 227/227/227
f 227/227/227 230/230/230 361/361/361
f 362/362/362 361/361/361 230/230/230
f 230/230/230 229/229/229 362/362/362
f 282/282/282 281/281/281 228/228/228
f 228/228/228 227/227/227 282/282/282
f 363/363/363 362/362/362 229/229/229
f 229/229/229 232/232/232 363/363/363
f 281/281/281 284/284/284 231/231/231
f 231/231/231 228/228/228 281/281/281
f 364/364/364 363/363/363 232/232/232
f 232/232/232 234/234/234 364/364/364
f 284/284/284 286/286/286 233/233/233
f 233/233/233 231/231/231 284/284/284
f 365/365/365 364/364/364 234/234/234
f 234/234/234 236/236/236 365/365/365
f 286/286/286 288/288/288 235/235/235
f 235/235/235 233/233/233 286/286/286
f 366/366/366 365/365/365 236/236/236
f 236/236/236 238/238/238 366/366/366
f 290/290/290 366/366/366 238/238/238
f 238/238/238 237/237/237 290/290/290
f 288/288/288 290/290/290 237/237/237
f 237/237/237 235/235/235 288/288/288
f 367/367/367 310/310/310 263/263/263
f 263/263/263 266/266/266 367/367/367
f 368/368/368 367/367/367 266/266/266
f 266/266/266 265/265/265 368/368/368
f 310/310/310 309/309/309 264/264/264
f 264/264/264 263/263/263 310/310/310
f 369/369/369 368/368/368 265/265/265
f 265/265/265 268/268/268 369/369/369
f 309/309/309 312/312/312 267/267/267
f 267/267/267 264/264/264 309/309/309
f 370/370/370 369/369/369 268/268/268
f 268/268/268 270/270/270 370/370/370
f 312/312/312 314/314/314 269/269/269
f 269/269/269 267/267/267 312/312/312
f 371/371/371 370/370/370 270/270/270
f 270/270/270 272/272/272 371/371/371
f 314/314/314 316/316/316 271/271/271
f 271/271/271 269/269/269 314/314/314
f 372/372/372 371/371/371 272/272/272
f 272/272/272 274/274/274 372/372/372
f 318/318/318 372/372/372 274/274/274
f 274/274/274 273/273/273 318/318/318
f 316/316/316 318/318/318 273/273/273
f 273/273/273 271/271/271 316/316/316
f 279/279/279 49/49/49 323/323/323
f 323/323/323 326/326/326 279/279/279
f 280/280/280 279/279/279 326/326/326
f 326/326/326 325/325/325 280/280/280
f 49/49/49 41/41/41 324/324/324
f 324/324/324 323/323/323 49/49/49
f 283/283/283 280/280/280 325/325/325
f 325/325/325 328/328/328 283/283/283
f 41/41/41 33/33/33 327/327/327
f 327/327/327 324/324/324 41/41/41
f 285/285/285 283/283/283 328/328/328
f 328/328/328 330/330/330 285/285/285
f 33/33/33 25/25/25 329/329/329
f 329/329/329 327/327/327 33/33/33
f 287/287/287 285/285/285 330/330/330
f 330/330/330 332/332/332 287/287/287
f 25/25/25 14/14/14 331/331/331
f 331/331/331 329/329/329 25/25/25
f 289/289/289 287/287/287 332/332/332
f 332/332/332 334/334/334 289/289/289
f 13/13/13 289/289/289 334/334/334
f 334/334/334 333/333/333 13/13/13
f 14/14/14 13/13/13 333/333/333
f 333/333/333 331/331/331 14/14/14
f 307/307/307 7/7/7 345/345/345
f 345/345/345 348/348/348 307/307/307
f 308/308/308 307/307/307 348/348/348
f 348/348/348 347/347/347 308/308/308
f 7/7/7 6/6/6 346/346/346
f 346/346/346 345/345/345 7/7/7
f 311/311/311 308/308/308 347/347/347
f 347/347/347 350/350/350 311/311/311
f 6/6/6 30/30/30 349/349/349
f 349/349/349 346/346/346 6/6/6
f 313/313/313 311/311/311 350/350/350
f 350/350/350 352/352/352 313/313/313
f 30/30/30 38/38/38 351/351/351
f 351/351/351 349/349/349 30/30/30
f 315/315/315 313/313/313 352/352/352
f 352/352/352 354/354/354 315/315/315
f 38/38/38 46/46/46 353/353/353
f 353/353/353 351/351/351 38/38/38
f 317/317/317 315/315/315 354/354/354
f 354/354/354 356/356/356 317/317/317
f 54/54/54 317/317/317 356/356/356
f 356/356/356 355/355/355 54/54/54
f 46/46/46 54/54/54 355/355/355
f 355/355/355 353/353/353 46/46/46
f 197/197/197 195/195/195 365/365/365
f 365/365/365 366/366/366 197/197/197
f 195/195/195 193/193/193 364/364/364
f 364/364/364 365/365/365 195/195/195
f 193/193/193 191/191/191 363/363/363
f 363/363/363 364/364/364 193/193/193
f 191/191/191 188/188/188 362/362/362
f 362/362/362 363/363/363 191/191/191
f 188/188/188 187/187/187 361/361/361
f 361/361/361 362/362/362 188/188/188
f 225/225/225 224/224/224 373/373/373
f 373/373/373 374/374/374 225/225/225
f 221/221/221 219/219/219 371/371/371
f 371/371/371 372/372/372 221/221/221
f 219/219/219 217/217/217 370/370/370
f 370/370/370 371/371/371 219/219/219
f 217/217/217 215/215/215 369/369/369
f 369/369/369 370/370/370 217/217/217
f 215/215/215 212/212/212 368/368/368
f 368/368/368 369/369/369 215/215/215
f 212/212/212 211/211/211 367/367/367
f 367/367/367 368/368/368 212/212/212
f 375/375/375 376/376/376 377/377/377
f 377/377/377 378/378/378 375/375/375
f 208/208/208 207/207/207 255/255/255
f 255/255/255 258/258/258 208/208/208
f 207/207/207 206/206/206 256/256/256
f 256/256/256 255/255/255 207/207/207
f 251/251/251 205/205/205 204/204/204
f 204/204/204 252/252/252 251/251/251
f 203/203/203 202/202/202 245/245/245
f 245/245/245 248/248/248 203/203/203
f 202/202/202 201/201/201 246/246/246
f 246/246/246 245/245/245 202/202/202
f 379/379/379 380/380/380 381/381/381
f 381/381/381 382/382/382 379/379/379
f 383/383/383 384/384/384 385/385/385
f 385/385/385 386/386/386 383/383/383
f 387/387/387 388/388/388 13/13/13
f 13/13/13 16/16/16 387/387/387
f 389/389/389 390/390/390 391/391/391
f 391/391/391 392/392/392 389/389/389
f 393/393/393 383/383/383 386/386/386
f 76/76/76 75/75/75 393/393/393
f 394/394/394 395/395/395 396/396/396
f 8/8/8 7/7/7 397/397/397
f 398/398/398 399/399/399 84/84/84
f 84/84/84 400/400/400 398/398/398
f 399/399/399 401/401/401 81/81/81
f 81/81/81 84/84/84 399/399/399
f 402/402/402 403/403/403 404/404/404
f 404/404/404 405/405/405 402/402/402
f 406/406/406 407/407/407 408/408/408
f 366/366/366 290/290/290 409/409/409
f 410/410/410 411/411/411 412/412/412
f 412/412/412 413/413/413 410/410/410
f 414/414/414 415/415/415 416/416/416
f 243/243/243 246/246/246 417/417/417
f 418/418/418 419/419/419 420/420/420
f 420/420/420 421/421/421 418/418/418
f 422/422/422 423/423/423 424/424/424
f 258/258/258 257/257/257 422/422/422
f 425/425/425 426/426/426 427/427/427
f 427/427/427 428/428/428 425/425/425
f 429/429/429 430/430/430 431/431/431
f 310/310/310 367/367/367 432/432/432
f 433/433/433 434/434/434 435/435/435
f 435/435/435 436/436/436 433/433/433
f 437/437/437 438/438/438 439/439/439
f 290/290/290 289/289/289 440/440/440
f 441/441/441 442/442/442 443/443/443
f 443/443/443 444/444/444 441/441/441
f 445/445/445 446/446/446 447/447/447
f 295/295/295 243/243/243 448/448/448
f 449/449/449 450/450/450 451/451/451
f 451/451/451 452/452/452 449/449/449
f 453/453/453 454/454/454 455/455/455
f 257/257/257 302/302/302 456/456/456
f 457/457/457 458/458/458 459/459/459
f 459/459/459 460/460/460 457/457/457
f 461/461/461 462/462/462 463/463/463
f 307/307/307 310/310/310 464/464/464
f 465/465/465 466/466/466 467/467/467
f 467/467/467 468/468/468 465/465/465
f 469/469/469 470/470/470 471/471/471
f 289/289/289 13/13/13 472/472/472
f 473/473/473 474/474/474 475/475/475
f 475/475/475 476/476/476 473/473/473
f 477/477/477 478/478/478 479/479/479
f 75/75/75 295/295/295 480/480/480
f 481/481/481 482/482/482 483/483/483
f 483/483/483 484/484/484 481/481/481
f 485/485/485 486/486/486 487/487/487
f 302/302/302 81/81/81 488/488/488
f 489/489/489 490/490/490 491/491/491
f 491/491/491 492/492/492 489/489/489
f 493/493/493 494/494/494 495/495/495
f 7/7/7 307/307/307 496/496/496
f 497/497/497 498/498/498 499/499/499
f 499/499/499 500/500/500 497/497/497
f 501/501/501 502/502/502 367/367/367
f 367/367/367 211/211/211 501/501/501
f 503/503/503 504/504/504 505/505/505
f 505/505/505 506/506/506 503/503/503
f 507/507/507 508/508/508 509/509/509
f 208/208/208 258/258/258 510/510/510
f 376/376/376 375/375/375 210/210/210
f 210/210/210 209/209/209 376/376/376
f 511/511/511 512/512/512 246/246/246
f 246/246/246 201/201/201 511/511/511
f 513/513/513 514/514/514 515/515/515
f 515/515/515 516/516/516 513/513/513
f 517/517/517 518/518/518 519/519/519
f 197/197/197 366/366/366 520/520/520
f 380/380/380 379/379/379 200/200/200
f 200/200/200 199/199/199 380/380/380
f 521/521/521 522/522/522 523/523/523
f 523/523/523 524/524/524 521/521/521
f 522/522/522 525/525/525 526/526/526
f 526/526/526 523/523/523 522/522/522
f 525/525/525 527/527/527 528/528/528
f 528/528/528 526/526/526 525/525/525
f 527/527/527 529/529/529 530/530/530
f 530/530/530 528/528/528 527/527/527
f 529/529/529 531/531/531 532/532/532
f 532/532/532 530/530/530 529/529/529
f 533/533/533 534/534/534 535/535/535
f 535/535/535 536/536/536 533/533/533
f 358/358/358 357/357/357 537/537/537
f 537/537/537 538/538/538 358/358/358
f 320/320/320 319/319/319 539/539/539
f 539/539/539 540/540/540 320/320/320
f 276/276/276 275/275/275 541/541/541
f 541/541/541 542/542/542 276/276/276
f 373/373/373 224/224/224 543/543/543
f 543/543/543 544/544/544 373/373/373
f 224/224/224 223/223/223 545/545/545
f 545/545/545 543/543/543 224/224/224
f 184/184/184 183/183/183 546/546/546
f 546/546/546 547/547/547 184/184/184
f 144/144/144 143/143/143 548/548/548
f 548/548/548 549/549/549 144/144/144
f 55/55/55 47/47/47 550/550/550
f 550/550/550 551/551/551 55/55/55
f 47/47/47 39/39/39 552/552/552
f 552/552/552 550/550/550 47/47/47
f 39/39/39 31/31/31 553/553/553
f 553/553/553 552/552/552 39/39/39
f 31/31/31 10/10/10 554/554/554
f 554/554/554 553/553/553 31/31/31
f 10/10/10 9/9/9 555/555/555
f 555/555/555 554/554/554 10/10/10
f 63/63/63 62/62/62 130/130/130
f 130/130/130 129/129/129 63/63/63
f 79/79/79 78/78/78 556/556/556
f 556/556/556 557/557/557 79/79/79
f 78/78/78 92/92/92 558/558/558
f 558/558/558 556/556/556 78/78/78
f 119/119/119 118/118/118 559/559/559
f 559/559/559 560/560/560 119/119/119
f 118/118/118 165/165/165 561/561/561
f 561/561/561 559/559/559 118/118/118
f 165/165/165 205/205/205 562/562/562
f 562/562/562 561/561/561 165/165/165
f 205/205/205 251/251/251 563/563/563
f 563/563/563 562/562/562 205/205/205
f 251/251/251 250/250/250 564/564/564
f 564/564/564 563/563/563 251/251/251
f 250/250/250 299/299/299 565/565/565
f 565/565/565 564/564/564 250/250/250
f 299/299/299 340/340/340 566/566/566
f 566/566/566 565/565/565 299/299/299
f 567/567/567 568/568/568 569/569/569
f 569/569/569 566/566/566 567/567/567
f 570/570/570 571/571/571 572/572/572
f 572/572/572 573/573/573 570/570/570
f 571/571/571 574/574/574 575/575/575
f 575/575/575 572/572/572 571/571/571
f 576/576/576 577/577/577 578/578/578
f 578/578/578 579/579/579 576/576/576
f 580/580/580 581/581/581 582/582/582
f 582/582/582 583/583/583 580/580/580
f 584/584/584 585/585/585 586/586/586
f 586/586/586 587/587/587 584/584/584
f 585/585/585 588/588/588 589/589/589
f 589/589/589 586/586/586 585/585/585
f 590/590/590 591/591/591 592/592/592
f 592/592/592 593/593/593 590/590/590
f 3/3/3 2/2/2 594/594/594
f 594/594/594 595/595/595 3/3/3
f 2/2/2 28/28/28 596/596/596
f 596/596/596 594/594/594 2/2/2
f 28/28/28 36/36/36 597/597/597
f 597/597/597 596/596/596 28/28/28
f 36/36/36 44/44/44 598/598/598
f 598/598/598 597/597/597 36/36/36
f 44/44/44 52/52/52 599/599/599
f 599/599/599 598/598/598 44/44/44
f 23/23/23 22/22/22 600/600/600
f 600/600/600 601/601/601 23/23/23
f 602/602/602 603/603/603 604/604/604
f 604/604/604 605/605/605 602/602/602
f 574/574/574 571/571/571 606/606/606
f 606/606/606 607/607/607 574/574/574
f 571/571/571 570/570/570 608/608/608
f 608/608/608 606/606/606 571/571/571
f 568/568/568 567/567/567 609/609/609
f 609/609/609 610/610/610 568/568/568
f 611/611/611 612/612/612 613/613/613
f 613/613/613 614/614/614 611/611/611
f 612/612/612 615/615/615 616/616/616
f 616/616/616 613/613/613 612/612/612
f 615/615/615 617/617/617 618/618/618
f 618/618/618 616/616/616 615/615/615
f 617/617/617 619/619/619 620/620/620
f 620/620/620 618/618/618 617/617/617
f 619/619/619 621/621/621 622/622/622
f 622/622/622 620/620/620 619/619/619
f 623/623/623 624/624/624 625/625/625
f 625/625/625 626/626/626 623/623/623
f 627/627/627 628/628/628 612/612/612
f 612/612/612 611/611/611 627/627/627
f 628/628/628 629/629/629 615/615/615
f 615/615/615 612/612/612 628/628/628
f 629/629/629 630/630/630 617/617/617
f 617/617/617 615/615/615 629/629/629
f 630/630/630 631/631/631 619/619/619
f 619/619/619 617/617/617 630/630/630
f 631/631/631 632/632/632 621/621/621
f 621/621/621 619/619/619 631/631/631
f 536/536/536 535/535/535 624/624/624
f 624/624/624 623/623/623 536/536/536
f 633/633/633 634/634/634 70/70/70
f 70/70/70 69/69/69 633/633/633
f 607/607/607 606/606/606 86/86/86
f 86/86/86 85/85/85 607/607/607
f 606/606/606 608/608/608 95/95/95
f 95/95/95 86/86/86 606/606/606
f 610/610/610 609/609/609 20/20/20
f 20/20/20 19/19/19 610/610/610
f 635/635/635 636/636/636 637/637/637
f 637/637/637 638/638/638 635/635/635
f 88/88/88 87/87/87 585/585/585
f 585/585/585 584/584/584 88/88/88
f 87/87/87 96/96/96 588/588/588
f 588/588/588 585/585/585 87/87/87
f 18/18/18 17/17/17 591/591/591
f 591/591/591 590/590/590 18/18/18
f 639/639/639 640/640/640 522/522/522
f 522/522/522 521/521/521 639/639/639
f 640/640/640 641/641/641 525/525/525
f 525/525/525 522/522/522 640/640/640
f 641/641/641 642/642/642 527/527/527
f 527/527/527 525/525/525 641/641/641
f 642/642/642 643/643/643 529/529/529
f 529/529/529 527/527/527 642/642/642
f 643/643/643 644/644/644 531/531/531
f 531/531/531 529/529/529 643/643/643
f 601/601/601 600/600/600 534/534/534
f 534/534/534 533/533/533 601/601/601
f 645/645/645 646/646/646 633/633/633
f 633/633/633 69/69/69 645/645/645
f 647/647/647 648/648/648 649/649/649
f 649/649/649 650/650/650 647/647/647
f 648/648/648 651/651/651 652/652/652
f 652/652/652 649/649/649 648/648/648
f 651/651/651 653/653/653 654/654/654
f 654/654/654 652/652/652 651/651/651
f 653/653/653 655/655/655 656/656/656
f 656/656/656 654/654/654 653/653/653
f 655/655/655 657/657/657 658/658/658
f 658/658/658 656/656/656 655/655/655
f 659/659/659 660/660/660 533/533/533
f 533/533/533 536/536/536 659/659/659
f 661/661/661 645/645/645 69/69/69
f 69/69/69 72/72/72 661/661/661
f 662/662/662 663/663/663 664/664/664
f 664/664/664 665/665/665 662/662/662
f 666/666/666 662/662/662 665/665/665
f 665/665/665 667/667/667 666/666/666
f 668/668/668 666/666/666 667/667/667
f 667/667/667 669/669/669 668/668/668
f 670/670/670 668/668/668 669/669/669
f 669/669/669 671/671/671 670/670/670
f 660/660/660 672/672/672 601/601/601
f 601/601/601 533/533/533 660/660/660
f 673/673/673 670/670/670 671/671/671
f 671/671/671 674/674/674 673/673/673
