# CC0 model adapted from https://polyhaven.com/a/modular_factory_facade
# Coordinates baked to Z-up; see SOURCES.json for source nodes and transforms.
mtllib factory_beam.mtl
o cornice03_standard_standard_01
v 0 -0.15 0.24
v 0 -0.14999997 0.047526492
v 0 -0.068245034 0.047526492
v 0 -0.068245034 0.047526492
v 0 -0.068245034 0.047526492
v 0 -0.051773669 0.23999966
v 0 -0.051773669 0.23999966
v 0 -0.051773669 0.23999966
v -2 -0.15 0.2207115
v -2 -0.15 0.2207115
v -1.9866667 -0.15 0.24
v -1.9866667 -0.15 0.24
v -1.9960947 -0.15 0.23435053
v -1.9960947 -0.15 0.23435053
v -1.9866667 -0.14999997 0.047526492
v -1.9866667 -0.14999997 0.047526492
v -2 -0.14999997 0.066785842
v -2 -0.14999997 0.066785842
v -1.9960947 -0.14999997 0.05316742
v -1.9960947 -0.14999997 0.05316742
v -2 -0.05342438 0.22070985
v -2 -0.05342438 0.22070985
v -2 -0.05342438 0.22070985
v -2 -0.05342438 0.22070985
v -1.9866667 -0.051773568 0.24
v -1.9866667 -0.051773568 0.24
v -1.9866667 -0.051773568 0.24
v -1.9866667 -0.051773568 0.24
v -1.9960947 -0.052257077 0.23435004
v -1.9960947 -0.052257077 0.23435004
v -1.9960947 -0.052257077 0.23435004
v -1.9960947 -0.052257077 0.23435004
v -1.9866667 0.13343208 0.19067087
v -1.9866667 0.13343208 0.19067087
v -1.9866667 0.13343208 0.19067087
v -1.9866667 0.13343208 0.19067087
v -2 0.13297867 0.17106008
v -2 0.13297867 0.17106008
v -2 0.13297867 0.17106008
v -2 0.13297867 0.17106008
v -1.9866667 0.15 0.16701071
v -1.9866667 0.15 0.16701071
v -1.9866667 0.15 0.16701071
v -1.9866667 0.15 0.16701071
v -1.9960947 0.1332054 0.18485173
v -1.9960947 0.1332054 0.18485173
v -1.9960947 0.1332054 0.18485173
v -1.9960947 0.1332054 0.18485173
v -1.9943647 0.14290178 0.17991144
v -1.9943647 0.14290178 0.17991144
v -1.9943647 0.14290178 0.17991144
v -1.9960947 0.14492068 0.16812148
v -1.9960947 0.14492068 0.16812148
v -1.9960947 0.14492068 0.16812148
v -1.9960947 0.14492068 0.16812148
v -1.9866667 0.14524131 0.1819884
v -1.9866667 0.14524131 0.1819884
v -1.9866667 0.14524131 0.1819884
v -1.9866667 0.14524131 0.1819884
v 0 0.15 0.16701071
v 0 0.15 0.16701071
v 0 0.15 0.16701071
v 0 0.15 0.16701071
v 0 0.13343208 0.19067084
v 0 0.13343208 0.19067084
v 0 0.13343208 0.19067084
v 0 0.13343208 0.19067084
v 0 0.14514738 0.1819131
v 0 0.14514738 0.1819131
v 0 0.14514738 0.1819131
v 0 0.14514738 0.1819131
v -1.9866667 0.13333699 4.3021108e-08
v -1.9866667 0.13333699 4.3021108e-08
v -1.9866667 0.13333699 4.3021108e-08
v -1.9866667 0.13333699 4.3021108e-08
v -1.9866667 0.14999997 0.015318727
v -1.9866667 0.14999997 0.015318727
v -1.9866667 0.14999997 0.015318727
v -1.9866667 0.14999997 0.015318727
v -2 0.13297865 0.019733452
v -2 0.13297865 0.019733452
v -2 0.13297865 0.019733452
v -2 0.13297865 0.019733452
v -1.9866667 0.14511948 0.002859484
v -1.9866667 0.14511948 0.002859484
v -1.9866667 0.14511948 0.002859484
v -1.9866667 0.14511948 0.002859484
v -1.9943651 0.14273235 0.006177071
v -1.9943651 0.14273235 0.006177071
v -1.9943651 0.14273235 0.006177071
v -1.9960947 0.1450145 0.017526082
v -1.9960947 0.1450145 0.017526082
v -1.9960947 0.1450145 0.017526082
v -1.9960947 0.1450145 0.017526082
v -1.9960947 0.13243825 0.0059671997
v -1.9960947 0.13243825 0.0059671997
v -1.9960947 0.13243825 0.0059671997
v -1.9960947 0.13243825 0.0059671997
v 0 0.13333699 0
v 0 0.13333699 0
v 0 0.13333699 0
v 0 0.13333699 0
v 0 0.14999997 0.015318727
v 0 0.14999997 0.015318727
v 0 0.14999997 0.015318727
v 0 0.14999997 0.015318727
v 0 0.14511948 0.002859484
v 0 0.14511948 0.002859484
v 0 0.14511948 0.002859484
v 0 0.14511948 0.002859484
v -2 -0.066596835 0.066786731
v -2 -0.066596835 0.066786731
v -2 -0.066596835 0.066786731
v -2 -0.066596835 0.066786731
v -1.9866667 -0.068245059 0.047526894
v -1.9866667 -0.068245059 0.047526894
v -1.9866667 -0.068245059 0.047526894
v -1.9866667 -0.068245059 0.047526894
v -1.9960947 -0.067762311 0.053167965
v -1.9960947 -0.067762311 0.053167965
v -1.9960947 -0.067762311 0.053167965
v -1.9960947 -0.067762311 0.053167965
v 1.9866667 -0.15 0.24
v 1.9866667 -0.15 0.24
v 2 -0.15 0.2207115
v 2 -0.15 0.2207115
v 1.9960947 -0.15 0.23435053
v 1.9960947 -0.15 0.23435053
v 2 -0.14999997 0.066785842
v 2 -0.14999997 0.066785842
v 1.9866667 -0.14999997 0.047526492
v 1.9866667 -0.14999997 0.047526492
v 1.9960947 -0.14999997 0.05316742
v 1.9960947 -0.14999997 0.05316742
v 1.9866667 -0.051773568 0.24
v 1.9866667 -0.051773568 0.24
v 1.9866667 -0.051773568 0.24
v 1.9866667 -0.051773568 0.24
v 2 -0.05342438 0.22070985
v 2 -0.05342438 0.22070985
v 2 -0.05342438 0.22070985
v 2 -0.05342438 0.22070985
v 1.9960947 -0.052257077 0.23435004
v 1.9960947 -0.052257077 0.23435004
v 1.9960947 -0.052257077 0.23435004
v 1.9960947 -0.052257077 0.23435004
v 1.9866667 0.13343208 0.19067087
v 1.9866667 0.13343208 0.19067087
v 1.9866667 0.13343208 0.19067087
v 1.9866667 0.13343208 0.19067087
v 1.9866667 0.15 0.16701071
v 1.9866667 0.15 0.16701071
v 1.9866667 0.15 0.16701071
v 1.9866667 0.15 0.16701071
v 2 0.13297867 0.17106008
v 2 0.13297867 0.17106008
v 2 0.13297867 0.17106008
v 2 0.13297867 0.17106008
v 1.9866667 0.14514738 0.18191312
v 1.9866667 0.14514738 0.18191312
v 1.9866667 0.14514738 0.18191312
v 1.9866667 0.14514738 0.18191312
v 1.9943651 0.14306981 0.18006195
v 1.9943651 0.14306981 0.18006195
v 1.9943651 0.14306981 0.18006195
v 1.9960947 0.14501458 0.16903539
v 1.9960947 0.14501458 0.16903539
v 1.9960947 0.14501458 0.16903539
v 1.9960947 0.14501458 0.16903539
v 1.996095 0.13401334 0.18473609
v 1.996095 0.13401334 0.18473609
v 1.996095 0.13401334 0.18473609
v 1.996095 0.13401334 0.18473609
v 1.9866667 0.13333699 2.8680738e-08
v 1.9866667 0.13333699 2.8680738e-08
v 1.9866667 0.13333699 2.8680738e-08
v 1.9866667 0.13333699 2.8680738e-08
v 2 0.13297865 0.019733452
v 2 0.13297865 0.019733452
v 2 0.13297865 0.019733452
v 2 0.13297865 0.019733452
v 1.9866667 0.14999997 0.015318741
v 1.9866667 0.14999997 0.015318741
v 1.9866667 0.14999997 0.015318741
v 1.9866667 0.14999997 0.015318741
v 1.9960945 0.13315782 0.0058804835
v 1.9960945 0.13315782 0.0058804835
v 1.9960945 0.13315782 0.0058804835
v 1.9960945 0.13315782 0.0058804835
v 1.9943646 0.14288164 0.0059694368
v 1.9943646 0.14288164 0.0059694368
v 1.9943646 0.14288164 0.0059694368
v 1.9960945 0.14494034 0.016712453
v 1.9960945 0.14494034 0.016712453
v 1.9960945 0.14494034 0.016712453
v 1.9960945 0.14494034 0.016712453
v 1.9866665 0.14519372 0.0027588146
v 1.9866665 0.14519372 0.0027588146
v 1.9866665 0.14519372 0.0027588146
v 1.9866665 0.14519372 0.0027588146
v 1.9866667 -0.068245059 0.047526894
v 1.9866667 -0.068245059 0.047526894
v 1.9866667 -0.068245059 0.047526894
v 1.9866667 -0.068245059 0.047526894
v 2 -0.066596835 0.066786731
v 2 -0.066596835 0.066786731
v 2 -0.066596835 0.066786731
v 2 -0.066596835 0.066786731
v 1.9960947 -0.067762311 0.053167965
v 1.9960947 -0.067762311 0.053167965
v 1.9960947 -0.067762311 0.053167965
v 1.9960947 -0.067762311 0.053167965
v 1.7333341 0.13343208 0.19067087
v 1.7333341 0.13343208 0.19067087
v 1.7333341 0.13343208 0.19067087
v 1.7333341 0.13343208 0.19067087
v 1.7333341 0.14514738 0.18191312
v 1.7333341 0.14514738 0.18191312
v 1.7333341 0.14514738 0.18191312
v 1.7333341 0.14514738 0.18191312
v 1.7333341 0.15 0.16701071
v 1.7333341 0.15 0.16701071
v 1.7333341 0.15 0.16701071
v 1.7333341 0.15 0.16701071
v 1.7333341 0.14999997 0.015318741
v 1.7333341 0.14999997 0.015318741
v 1.7333341 0.14999997 0.015318741
v 1.7333341 0.14999997 0.015318741
v 1.7333339 0.14518629 0.0027688815
v 1.7333339 0.14518629 0.0027688815
v 1.7333339 0.14518629 0.0027688815
v 1.7333339 0.14518629 0.0027688815
v 1.7333341 0.13333699 2.8680738e-08
v 1.7333341 0.13333699 2.8680738e-08
v 1.7333341 0.13333699 2.8680738e-08
v 1.7333341 0.13333699 2.8680738e-08
v 1.7333341 -0.051773581 0.23999997
v 1.7333341 -0.051773581 0.23999997
v 1.7333341 -0.051773581 0.23999997
v 1.7333341 -0.051773581 0.23999997
v 1.7333341 -0.068245059 0.047526851
v 1.7333341 -0.068245059 0.047526851
v 1.7333341 -0.068245059 0.047526851
v 1.7333341 -0.068245059 0.047526851
v 1.7333341 -0.15 0.24
v 1.7333341 -0.15 0.24
v 1.7333341 -0.14999997 0.047526492
v 1.7333341 -0.14999997 0.047526492
v -1.7333393 0.15 0.16701071
v -1.7333393 0.15 0.16701071
v -1.7333393 0.15 0.16701071
v -1.7333393 0.15 0.16701071
v -1.7333393 0.1452272 0.18197712
v -1.7333393 0.1452272 0.18197712
v -1.7333393 0.1452272 0.18197712
v -1.7333393 0.1452272 0.18197712
v -1.7333393 0.13343208 0.19067087
v -1.7333393 0.13343208 0.19067087
v -1.7333393 0.13343208 0.19067087
v -1.7333393 0.13343208 0.19067087
v -1.7333393 0.13333699 2.8680738e-08
v -1.7333393 0.13333699 2.8680738e-08
v -1.7333393 0.13333699 2.8680738e-08
v -1.7333393 0.13333699 2.8680738e-08
v -1.7333393 0.14511948 0.002859484
v -1.7333393 0.14511948 0.002859484
v -1.7333393 0.14511948 0.002859484
v -1.7333393 0.14511948 0.002859484
v -1.7333393 0.14999997 0.015318727
v -1.7333393 0.14999997 0.015318727
v -1.7333393 0.14999997 0.015318727
v -1.7333393 0.14999997 0.015318727
v -1.7333393 -0.051773581 0.23999994
v -1.7333393 -0.051773581 0.23999994
v -1.7333393 -0.051773581 0.23999994
v -1.7333393 -0.15 0.24
v -1.7333393 -0.14999997 0.047526492
v -1.7333393 -0.14999997 0.047526492
v -1.7333393 -0.068245059 0.047526836
v -1.7333393 -0.068245059 0.047526836
v -1.7333393 -0.068245059 0.047526836
vt 0.5 0.87433857
vt 0.49999997 0.75714725
vt 0.49999994 0.80760956
vt 0.49999997 0.80760962
vt 0.49999997 0.74113691
vt 0.49999994 0.82610101
vt 0.5 0.89357454
vt 0.5 0.82610095
vt 0.17837235 0.46994609
vt 0.17733324 0.47679484
vt 0.99666667 0.87433821
vt 0.97997421 0.87433887
vt 0.17887336 0.46664304
vt 0.98330706 0.87433898
vt 0.99666655 0.75714707
vt 1.0133411 0.75730312
vt 0.17381115 0.49623287
vt 0.17333555 0.50315088
vt 0.17335793 0.49953759
vt 1.0166746 0.7573511
vt 0.15809159 0.46722829
vt 0.15967317 0.46711004
vt 0.15863436 0.47395897
vt 0.15863436 0.47395885
vt 0.99666661 0.82610059
vt 0.99666667 0.89357424
vt 0.97997403 0.89357412
vt 0.98036253 0.82609379
vt 0.15814002 0.46387672
vt 0.15994816 0.46377248
vt 0.98330694 0.89347947
vt 0.98369199 0.82622582
vt 0.99666667 0.86336243
vt 0.98037714 0.86335629
vt 0.98096323 0.85476249
vt 0.99666804 0.84902763
vt 0.12070628 0.470195
vt 0.12123609 0.47698319
vt 0.1226878 0.47315294
vt 0.12125381 0.47698581
vt 0.99666667 0.77080566
vt 0.98738241 0.76167029
vt 0.99665922 0.77080578
vt 0.99666941 0.7662046
vt 0.12094112 0.46684909
vt 0.12254752 0.47020167
vt 0.9837144 0.86354399
vt 0.98470998 0.85462129
vt 0.11960196 0.47115791
vt 0.98429132 0.85699677
vt 0.98928058 0.75831676
vt 0.11787161 0.4769876
vt 0.11892345 0.47357988
vt 0.99022365 0.76110035
vt 0.99999565 0.77061331
vt 0.98140073 0.85774887
vt 0.98691809 0.75797987
vt 0.99666756 0.85236156
vt 0.99666858 0.76287121
vt 0.49999988 0.7708059
vt 0.5 0.77080601
vt 0.4999992 0.76622975
vt 0.49999928 0.76617771
vt 0.49999991 0.84872472
vt 0.50000119 0.84883726
vt 0.5 0.86336285
vt 0.50000006 0.86336309
vt 0.49999955 0.76289582
vt 0.49999979 0.76284724
vt 0.5 0.8520574
vt 0.50000131 0.85217023
vt 0.99666667 0.76728415
vt 0.99666673 0.75060022
vt 1.0092436 0.75124842
vt 1.0129741 0.76716077
vt 0.99666679 0.79707652
vt 0.99666393 0.7970764
vt 0.99667346 0.78736186
vt 0.99796665 0.79247665
vt 0.10642184 0.48838913
vt 0.11731726 0.50289589
vt 0.11749529 0.49612421
vt 0.11732359 0.5028969
vt 0.99666667 0.74726701
vt 0.99667549 0.79069531
vt 0.9983927 0.79524308
vt 1.0087767 0.74737442
vt 0.10423443 0.49181885
vt 1.0012778 0.79409248
vt 1.0111514 0.74789548
vt 0.10350197 0.48872399
vt 0.11394905 0.50277174
vt 0.99999088 0.79669416
vt 1.001708 0.79155862
vt 0.10668285 0.49222237
vt 0.1172393 0.49947429
vt 1.0121634 0.75115246
vt 1.0163081 0.76748848
vt 0.49999982 0.75060081
vt 0.50000048 0.75077677
vt 0.49999991 0.76728427
vt 0.49999994 0.76728433
vt 0.5 0.79707682
vt 0.50000006 0.79707688
vt 0.50000066 0.78736466
vt 0.50000179 0.78729659
vt 0.49999991 0.74726737
vt 0.50000083 0.79069841
vt 0.50000089 0.74744439
vt 0.50000221 0.79062676
vt 0.15759026 0.49391901
vt 0.15764782 0.4937833
vt 0.15718718 0.50070149
vt 0.15718718 0.50070137
vt 0.99666655 0.80760956
vt 0.99666655 0.74113673
vt 1.0129747 0.80718243
vt 1.0133412 0.7414515
vt 0.15742038 0.49712217
vt 0.15746169 0.49726224
vt 1.0163088 0.80722797
vt 1.016675 0.74140394
vt 0.0033333634 0.87433881
vt 0.020025868 0.87433946
vt 0.10024766 0.59841239
vt 0.099208303 0.59156448
vt 0.016692571 0.8743397
vt 0.10074858 0.60171574
vt 0.095686853 0.57212669
vt 0.095210567 0.56520855
vt 0.0033333297 0.75714737
vt -0.013340937 0.75730437
vt 0.095233783 0.56882274
vt -0.016674249 0.75735205
vt 0.0033333299 0.89357477
vt 0.0033333637 0.82610124
vt 0.019531533 0.82610071
vt 0.020025762 0.89357519
vt 0.079969361 0.60107756
vt 0.081548847 0.60125017
vt 0.080509439 0.59440047
vt 0.080509454 0.59440053
vt 0.016198266 0.82623261
vt 0.016692415 0.89348072
vt 0.080018938 0.60441786
vt 0.081823789 0.60458767
vt 0.0033333641 0.86336333
vt 0.003333569 0.84872454
vt 0.0099844327 0.84815329
vt 0.019531203 0.86336291
vt 0.0033333665 0.77080595
vt 0.0033275136 0.77080601
vt 0.0033334671 0.76622987
vt 0.0035125825 0.76849341
vt 0.042588525 0.59804803
vt 0.043142796 0.59137142
vt 0.052189834 0.60219437
vt 0.0431289 0.5913735
vt 0.0030746982 0.7654984
vt 0.003333447 0.76289558
vt 0.0033335488 0.8520574
vt 0.010469858 0.85185283
vt 0.00015490293 0.76625162
vt 0.008054195 0.85148287
vt 0.050383929 0.60540253
vt 0.039788686 0.59152561
vt 0.049298078 0.60271907
vt -3.3590622e-06 0.77045536
vt -0.00028258064 0.76849967
vt 0.0071092863 0.84884524
vt 0.016197769 0.86371011
vt 0.042664733 0.60139102
vt 0.052702881 0.60589266
vt 0.0033333551 0.76728445
vt 0.0033338701 0.75101447
vt -0.013049877 0.76715589
vt -0.014563633 0.75858742
vt 0.038322855 0.56881595
vt 0.039203648 0.56546175
vt 0.039366782 0.57232976
vt 0.039198678 0.56546247
vt 0.003333359 0.79707658
vt 0.0033312573 0.79707688
vt 0.0033336743 0.78738779
vt -0.0081593888 0.77943486
vt 0.03755283 0.56598049
vt 0.038968768 0.56898111
vt -0.016386786 0.76734281
vt -0.018317517 0.759359
vt 0.034693435 0.56693339
vt -0.010108608 0.78273845
vt -0.017916596 0.75699311
vt 0.034542423 0.569291
vt 0.035841517 0.5654425
vt -7.098075e-06 0.79683548
vt -0.011074713 0.7796849
vt 0.0033335872 0.79072183
vt 0.0033340682 0.74768084
vt -0.007717506 0.78328657
vt -0.015040031 0.75585365
vt 0.0033333248 0.80760992
vt 0.0033333632 0.74113709
vt -0.013069803 0.80717707
vt -0.013340935 0.74145192
vt 0.079464182 0.57450497
vt 0.079523116 0.57458043
vt 0.079062201 0.56765795
vt 0.079062209 0.56765801
vt 0.079295874 0.57124209
vt 0.079335943 0.571154
vt -0.016400144 0.80722177
vt -0.016674254 0.74140394
vt 0.066666365 0.84872383
vt 0.066666588 0.8487255
vt 0.066666499 0.86336333
vt 0.066666506 0.86336309
vt 0.066666171 0.762896
vt 0.066666327 0.85205638
vt 0.066666566 0.85205913
vt 0.06666664 0.76289672
vt 0.066666462 0.77080584
vt 0.066666514 0.77080607
vt 0.066666193 0.76623034
vt 0.06666667 0.76623118
vt 0.066666484 0.79707664
vt 0.066666514 0.79707682
vt 0.066666842 0.7873804
vt 0.066667482 0.78744841
vt 0.066666745 0.79071259
vt 0.066667072 0.74767852
vt 0.06666737 0.74748212
vt 0.066667527 0.79078591
vt 0.066666983 0.75101119
vt 0.066667065 0.75081593
vt 0.066666491 0.76728445
vt 0.066666499 0.76728445
vt 0.066666491 0.89357477
vt 0.066666499 0.89357477
vt 0.066666499 0.8261013
vt 0.066666506 0.82610124
vt 0.066666491 0.80761009
vt 0.066666491 0.74113703
vt 0.066666499 0.74113715
vt 0.066666514 0.80760998
vt 0.066666499 0.87433881
vt 0.066666506 0.87433887
vt 0.066666484 0.75714731
vt 0.066666499 0.75714731
vt 0.93333483 0.77080584
vt 0.93333489 0.7708056
vt 0.93333447 0.76624358
vt 0.9333359 0.7661972
vt 0.93333429 0.76290941
vt 0.93333501 0.85221958
vt 0.93333566 0.76286489
vt 0.93333638 0.85235482
vt 0.9333353 0.84888577
vt 0.93333644 0.84902215
vt 0.93333489 0.86336249
vt 0.93333501 0.86336267
vt 0.93333459 0.75060076
vt 0.93333459 0.75060046
vt 0.93333489 0.76728433
vt 0.93333489 0.76728427
vt 0.93333417 0.74726641
vt 0.93333459 0.74726695
vt 0.93333685 0.79069793
vt 0.93334305 0.79069638
vt 0.93333489 0.7970767
vt 0.93333519 0.79707658
vt 0.93333519 0.78736383
vt 0.93334097 0.78736329
vt 0.93333483 0.89357424
vt 0.93333483 0.82610071
vt 0.93333489 0.82610065
vt 0.93333483 0.87433827
vt 0.93333471 0.75714713
vt 0.93333477 0.75714713
vt 0.93333471 0.80760962
vt 0.93333477 0.74113679
vt 0.93333495 0.80760962
vn 0 0 1
vn 0 0 -1
vn 0 -0.16538676 -0.98622879
vn 0 -0.16538676 -0.98622879
vn 0 -0.16538676 -0.98622879
vn 0 0.17143362 0.98519567
vn 0 0.17143362 0.98519567
vn 0 0.17143362 0.98519567
vn -0.96136751 0 0.27526808
vn -1 0 0
vn 0 0 1
vn -0.51401489 0 0.85778126
vn -0.82168715 0 0.56993879
vn -0.82168715 0 0.56993879
vn 0 0 -1
vn -0.51343958 0 -0.85812575
vn -0.96125631 0 -0.27565614
vn -1 0 0
vn -0.82330518 0 -0.56759896
vn -0.82330518 0 -0.56759896
vn -0.96117775 0.047571809 0.27179818
vn -0.96117775 0.047571809 0.27179818
vn -1 0 0
vn -1 0 0
vn 0 0.17143362 0.98519567
vn 0 0.17143362 0.98519567
vn -0.51614599 0.14715643 0.84376436
vn -0.51614599 0.14715643 0.84376436
vn -0.82250092 0.097793445 0.56029338
vn -0.82250092 0.097793445 0.56029338
vn -0.82250092 0.097793445 0.56029338
vn -0.82250092 0.097793445 0.56029338
vn 0 0.25739748 0.96630561
vn -0.19989737 0.48207148 0.85302293
vn -0.19989737 0.48207148 0.85302293
vn -0.19989737 0.48207148 0.85302293
vn -0.97049501 0.17792214 0.16273645
vn -0.97049501 0.17792214 0.16273645
vn -0.97049501 0.17792214 0.16273645
vn -1 0 0
vn 0 1 0
vn -0.14670639 0.96348165 0.22400969
vn -0.14670639 0.96348165 0.22400969
vn -0.14670639 0.96348165 0.22400969
vn -0.81794727 0.16315797 0.55167176
vn -0.81794727 0.16315797 0.55167176
vn -0.81794727 0.16315797 0.55167176
vn -0.81794727 0.16315797 0.55167176
vn -0.65702666 0.61751023 0.4324316
vn -0.65702666 0.61751023 0.4324316
vn -0.65702666 0.61751023 0.4324316
vn -0.78479601 0.61947016 0.018760138
vn -0.78479601 0.61947016 0.018760138
vn -0.78479601 0.61947016 0.018760138
vn -0.78479601 0.61947016 0.018760138
vn -0.013605425 0.81906554 0.5735386
vn -0.013605425 0.81906554 0.5735386
vn -0.013605425 0.81906554 0.5735386
vn -0.013605425 0.81906554 0.5735386
vn 0 1 0
vn 0 1 0
vn 0 0.9513194 0.30820676
vn 0 0.9513194 0.30820676
vn 0 0.59736348 0.80197062
vn 0 0.59736348 0.80197062
vn 0 0.25739748 0.96630561
vn 0 0.25739748 0.96630561
vn 0 0.81913228 0.57360467
vn 0 0.81913228 0.57360467
vn 0 0.81913228 0.57360467
vn 0 0.81913228 0.57360467
vn 0 -0.22947477 -0.97331461
vn -0.23603647 0.057584768 -0.97003648
vn -0.23603647 0.057584768 -0.97003648
vn -0.23603647 0.057584768 -0.97003648
vn 0 1 0
vn -0.16559647 0.95179403 -0.25819748
vn -0.16559647 0.95179403 -0.25819748
vn -0.16559647 0.95179403 -0.25819748
vn -0.98135925 0.090907958 -0.16932151
vn -0.98135925 0.090907958 -0.16932151
vn -0.98135925 0.090907958 -0.16932151
vn -1 0 0
vn -0.01821339 0.67666994 -0.73606118
vn -0.01821339 0.67666994 -0.73606118
vn -0.01821339 0.67666994 -0.73606118
vn -0.01821339 0.67666994 -0.73606118
vn -0.74873266 0.44859175 -0.48802136
vn -0.74873266 0.44859175 -0.48802136
vn -0.74873266 0.44859175 -0.48802136
vn -0.7898179 0.61302663 -0.019647921
vn -0.7898179 0.61302663 -0.019647921
vn -0.7898179 0.61302663 -0.019647921
vn -0.7898179 0.61302663 -0.019647921
vn -0.82178495 -0.11558801 -0.55795063
vn -0.82178495 -0.11558801 -0.55795063
vn -0.82178495 -0.11558801 -0.55795063
vn -0.82178495 -0.11558801 -0.55795063
vn 0 0.2338031 -0.97228397
vn 0 0.2338031 -0.97228397
vn 0 -0.22947477 -0.97331461
vn 0 -0.22947477 -0.97331461
vn 0 1 0
vn 0 1 0
vn 0 0.93176483 -0.3630624
vn 0 0.93176483 -0.3630624
vn 0 0.67678221 -0.73618329
vn 0 0.67678221 -0.73618329
vn 0 0.67678221 -0.73618329
vn 0 0.67678221 -0.73618329
vn -0.96128745 -0.045291237 -0.27179982
vn -0.96128745 -0.045291237 -0.27179982
vn -1 0 0
vn -1 0 0
vn 0 -0.16538676 -0.98622879
vn 0 -0.16538676 -0.98622879
vn -0.51358162 -0.14164491 -0.84626866
vn -0.51358162 -0.14164491 -0.84626866
vn -0.82222039 -0.093828643 -0.56138206
vn -0.82222039 -0.093828643 -0.56138206
vn -0.82222039 -0.093828643 -0.56138206
vn -0.82222039 -0.093828643 -0.56138206
vn 0 0 1
vn 0.51401489 0 0.85778126
vn 0.96136751 0 0.27526808
vn 1 0 0
vn 0.82168715 0 0.56993879
vn 0.82168715 0 0.56993879
vn 0.96125631 0 -0.27565614
vn 1 0 0
vn 0 0 -1
vn 0.51343958 0 -0.85812575
vn 0.82330518 0 -0.56759896
vn 0.82330518 0 -0.56759896
vn 0 0.17143362 0.98519567
vn 0 0.17143362 0.98519567
vn 0.51395008 0.14735934 0.84506836
vn 0.51395008 0.14735934 0.84506836
vn 0.96135556 0.047483721 0.27118405
vn 0.96135556 0.047483721 0.27118405
vn 1 0 0
vn 1 0 0
vn 0.82250092 0.097793445 0.56029338
vn 0.82250092 0.097793445 0.56029338
vn 0.82250092 0.097793445 0.56029338
vn 0.82250092 0.097793445 0.56029338
vn 0 0.25739748 0.96630561
vn 0.19816281 0.48616116 0.85110447
vn 0.19816281 0.48616116 0.85110447
vn 0.19816281 0.48616116 0.85110447
vn 0 1 0
vn 0.14649052 0.96254215 0.22815156
vn 0.14649052 0.96254215 0.22815156
vn 0.14649052 0.96254215 0.22815156
vn 0.97075551 0.17731469 0.16184324
vn 0.97075551 0.17731469 0.16184324
vn 0.97075551 0.17731469 0.16184324
vn 1 0 0
vn 0.012137364 0.81911536 0.5735004
vn 0.012137364 0.81911536 0.5735004
vn 0.012137364 0.81911536 0.5735004
vn 0.012137364 0.81911536 0.5735004
vn 0.63963074 0.62959376 0.44100364
vn 0.63963074 0.62959376 0.44100364
vn 0.63963074 0.62959376 0.44100364
vn 0.78438282 0.62002051 0.017836987
vn 0.78438282 0.62002051 0.017836987
vn 0.78438282 0.62002051 0.017836987
vn 0.78438282 0.62002051 0.017836987
vn 0.81768474 0.1626527 0.55220989
vn 0.81768474 0.1626527 0.55220989
vn 0.81768474 0.1626527 0.55220989
vn 0.81768474 0.1626527 0.55220989
vn 0 -0.22947477 -0.97331461
vn 0.2366189 0.052352812 -0.97019105
vn 0.2366189 0.052352812 -0.97019105
vn 0.2366189 0.052352812 -0.97019105
vn 0.98136506 0.091138271 -0.16916392
vn 0.98136506 0.091138271 -0.16916392
vn 0.98136506 0.091138271 -0.16916392
vn 1 0 0
vn 0 1 0
vn 0.16477049 0.95327173 -0.25322655
vn 0.16477049 0.95327173 -0.25322655
vn 0.16477049 0.95327173 -0.25322655
vn 0.82149118 -0.11633909 -0.55822707
vn 0.82149118 -0.11633909 -0.55822707
vn 0.82149118 -0.11633909 -0.55822707
vn 0.82149118 -0.11633909 -0.55822707
vn 0.74229648 0.45350372 -0.49328522
vn 0.74229648 0.45350372 -0.49328522
vn 0.74229648 0.45350372 -0.49328522
vn 0.78932391 0.61368424 -0.01895863
vn 0.78932391 0.61368424 -0.01895863
vn 0.78932391 0.61368424 -0.01895863
vn 0.78932391 0.61368424 -0.01895863
vn 0.017255084 0.67668144 -0.73607369
vn 0.017255084 0.67668144 -0.73607369
vn 0.017255084 0.67668144 -0.73607369
vn 0.017255084 0.67668144 -0.73607369
vn 0 -0.16538676 -0.98622879
vn 0 -0.16538676 -0.98622879
vn 0.51554251 -0.14145434 -0.84510744
vn 0.51554251 -0.14145434 -0.84510744
vn 0.96112828 -0.045379913 -0.27234738
vn 0.96112828 -0.045379913 -0.27234738
vn 1 0 0
vn 1 0 0
vn 0.82222039 -0.093828643 -0.56138206
vn 0.82222039 -0.093828643 -0.56138206
vn 0.82222039 -0.093828643 -0.56138206
vn 0.82222039 -0.093828643 -0.56138206
vn 0 0.59875414 0.80093288
vn 0 0.59875414 0.80093288
vn 0 0.25739748 0.96630561
vn 0 0.25739748 0.96630561
vn 0 0.81913228 0.57360467
vn 0 0.81913228 0.57360467
vn 0 0.81913228 0.57360467
vn 0 0.81913228 0.57360467
vn 0 1 0
vn 0 1 0
vn 0 0.95086651 0.30960115
vn 0 0.95086651 0.30960115
vn 0 1 0
vn 0 1 0
vn 0 0.93256673 -0.36099763
vn 0 0.93256673 -0.36099763
vn 0 0.67684038 -0.73612981
vn 0 0.67684038 -0.73612981
vn 0 0.67684038 -0.73612981
vn 0 0.67684038 -0.73612981
vn 0 0.23100983 -0.97295142
vn 0 0.23100983 -0.97295142
vn 0 -0.22947477 -0.97331461
vn 0 -0.22947477 -0.97331461
vn 0 0.17143362 0.98519567
vn 0 0.17143362 0.98519567
vn 0 0.17143362 0.98519567
vn 0 0.17143362 0.98519567
vn 0 -0.16538676 -0.98622879
vn 0 -0.16538676 -0.98622879
vn 0 -0.16538676 -0.98622879
vn 0 -0.16538676 -0.98622879
vn 0 0 1
vn 0 0 1
vn 0 0 -1
vn 0 0 -1
vn 0 1 0
vn 0 1 0
vn 0 0.95193644 0.30629562
vn 0 0.95193644 0.30629562
vn 0 0.81917569 0.57354266
vn 0 0.81917569 0.57354266
vn 0 0.81917569 0.57354266
vn 0 0.81917569 0.57354266
vn 0 0.59566831 0.80323052
vn 0 0.59566831 0.80323052
vn 0 0.25739748 0.96630561
vn 0 0.25739748 0.96630561
vn 0 0.2358055 -0.97180027
vn 0 0.2358055 -0.97180027
vn 0 -0.22947477 -0.97331461
vn 0 -0.22947477 -0.97331461
vn 0 0.67678221 -0.73618329
vn 0 0.67678221 -0.73618329
vn 0 0.67678221 -0.73618329
vn 0 0.67678221 -0.73618329
vn 0 1 0
vn 0 1 0
vn 0 0.93110754 -0.36474477
vn 0 0.93110754 -0.36474477
vn 0 0.17143362 0.98519567
vn 0 0.17143362 0.98519567
vn 0 0.17143362 0.98519567
vn 0 0 1
vn 0 0 -1
vn 0 0 -1
vn 0 -0.16538676 -0.98622879
vn 0 -0.16538676 -0.98622879
vn 0 -0.16538676 -0.98622879
usemtl surface_1
f 10/10/10 114/114/114 18/18/18
f 10/10/10 24/24/24 114/114/114
f 260/260/260 8/8/8 66/66/66
f 260/260/260 274/274/274 8/8/8
f 222/222/222 182/182/182 225/225/225
f 222/222/222 151/151/151 182/182/182
f 23/23/23 83/83/83 113/113/113
f 23/23/23 40/40/40 83/83/83
f 244/244/244 102/102/102 235/235/235
f 244/244/244 3/3/3 102/102/102
f 250/250/250 76/76/76 41/41/41
f 250/250/250 270/270/270 76/76/76
f 278/278/278 5/5/5 2/2/2
f 278/278/278 280/280/280 5/5/5
f 126/126/126 208/208/208 141/141/141
f 126/126/126 130/130/130 208/208/208
f 142/142/142 181/181/181 158/158/158
f 142/142/142 207/207/207 181/181/181
f 216/216/216 6/6/6 239/239/239
f 216/216/216 67/67/67 6/6/6
f 281/281/281 101/101/101 4/4/4
f 281/281/281 263/263/263 101/101/101
f 238/238/238 1/1/1 245/245/245
f 238/238/238 7/7/7 1/1/1
f 248/248/248 5/5/5 242/242/242
f 248/248/248 2/2/2 5/5/5
f 35/35/35 50/50/50 48/48/48
f 35/35/35 56/56/56 50/50/50
f 39/39/39 49/49/49 53/53/53
f 39/39/39 46/46/46 49/49/49
f 42/42/42 51/51/51 57/57/57
f 42/42/42 54/54/54 51/51/51
f 74/74/74 90/90/90 87/87/87
f 74/74/74 97/97/97 90/90/90
f 79/79/79 89/89/89 94/94/94
f 79/79/79 86/86/86 89/89/89
f 80/80/80 88/88/88 95/95/95
f 80/80/80 91/91/91 88/88/88
f 149/149/149 164/164/164 162/162/162
f 149/149/149 170/170/170 164/164/164
f 154/154/154 163/163/163 169/169/169
f 154/154/154 159/159/159 163/163/163
f 157/157/157 165/165/165 173/173/173
f 157/157/157 167/167/167 165/165/165
f 177/177/177 192/192/192 189/189/189
f 177/177/177 200/200/200 192/192/192
f 178/178/178 190/190/190 193/193/193
f 178/178/178 186/186/186 190/190/190
f 185/185/185 191/191/191 199/199/199
f 185/185/185 196/196/196 191/191/191
f 9/9/9 30/30/30 22/22/22
f 9/9/9 13/13/13 30/30/30
f 14/14/14 27/27/27 31/31/31
f 14/14/14 12/12/12 27/27/27
f 251/251/251 69/69/69 63/63/63
f 251/251/251 253/253/253 69/69/69
f 254/254/254 65/65/65 71/71/71
f 254/254/254 257/257/257 65/65/65
f 262/262/262 107/107/107 99/99/99
f 262/262/262 265/265/265 107/107/107
f 267/267/267 105/105/105 108/108/108
f 267/267/267 271/271/271 105/105/105
f 77/77/77 55/55/55 43/43/43
f 77/77/77 93/93/93 55/55/55
f 92/92/92 38/38/38 52/52/52
f 92/92/92 81/81/81 38/38/38
f 82/82/82 120/120/120 111/111/111
f 82/82/82 96/96/96 120/120/120
f 98/98/98 117/117/117 121/121/121
f 98/98/98 75/75/75 117/117/117
f 112/112/112 19/19/19 17/17/17
f 112/112/112 119/119/119 19/19/19
f 122/122/122 16/16/16 20/20/20
f 122/122/122 118/118/118 16/16/16
f 21/21/21 45/45/45 37/37/37
f 21/21/21 29/29/29 45/45/45
f 32/32/32 34/34/34 47/47/47
f 32/32/32 28/28/28 34/34/34
f 124/124/124 144/144/144 138/138/138
f 124/124/124 127/127/127 144/144/144
f 128/128/128 140/140/140 146/146/146
f 128/128/128 125/125/125 140/140/140
f 213/213/213 70/70/70 64/64/64
f 213/213/213 218/218/218 70/70/70
f 217/217/217 62/62/62 68/68/68
f 217/217/217 223/223/223 62/62/62
f 228/228/228 110/110/110 106/106/106
f 228/228/228 232/232/232 110/110/110
f 231/231/231 100/100/100 109/109/109
f 231/231/231 234/234/234 100/100/100
f 179/179/179 166/166/166 156/156/156
f 179/179/179 194/194/194 166/166/166
f 195/195/195 152/152/152 168/168/168
f 195/195/195 183/183/183 152/152/152
f 176/176/176 211/211/211 203/203/203
f 176/176/176 188/188/188 211/211/211
f 187/187/187 205/205/205 210/210/210
f 187/187/187 180/180/180 205/205/205
f 204/204/204 134/134/134 132/132/132
f 204/204/204 212/212/212 134/134/134
f 209/209/209 129/129/129 133/133/133
f 209/209/209 206/206/206 129/129/129
f 137/137/137 171/171/171 150/150/150
f 137/137/137 143/143/143 171/171/171
f 145/145/145 155/155/155 172/172/172
f 145/145/145 139/139/139 155/155/155
f 273/273/273 1/1/1 7/7/7
f 273/273/273 276/276/276 1/1/1
f 198/198/198 233/233/233 230/230/230
f 198/198/198 175/175/175 233/233/233
f 184/184/184 229/229/229 227/227/227
f 184/184/184 197/197/197 229/229/229
f 160/160/160 224/224/224 220/220/220
f 160/160/160 153/153/153 224/224/224
f 148/148/148 219/219/219 214/214/214
f 148/148/148 161/161/161 219/219/219
f 131/131/131 243/243/243 202/202/202
f 131/131/131 247/247/247 243/243/243
f 135/135/135 246/246/246 123/123/123
f 135/135/135 237/237/237 246/246/246
f 147/147/147 240/240/240 136/136/136
f 147/147/147 215/215/215 240/240/240
f 201/201/201 236/236/236 174/174/174
f 201/201/201 241/241/241 236/236/236
f 60/60/60 226/226/226 104/104/104
f 60/60/60 221/221/221 226/226/226
f 26/26/26 276/276/276 273/273/273
f 26/26/26 11/11/11 276/276/276
f 85/85/85 272/272/272 268/268/268
f 85/85/85 78/78/78 272/272/272
f 73/73/73 266/266/266 261/261/261
f 73/73/73 84/84/84 266/266/266
f 58/58/58 258/258/258 256/256/256
f 58/58/58 36/36/36 258/258/258
f 44/44/44 255/255/255 252/252/252
f 44/44/44 59/59/59 255/255/255
f 115/115/115 264/264/264 279/279/279
f 115/115/115 72/72/72 264/264/264
f 15/15/15 280/280/280 277/277/277
f 15/15/15 116/116/116 280/280/280
f 61/61/61 269/269/269 249/249/249
f 61/61/61 103/103/103 269/269/269
f 33/33/33 275/275/275 259/259/259
f 33/33/33 25/25/25 275/275/275
