# CC0 model adapted from https://polyhaven.com/a/modular_factory_facade
# Coordinates baked to Z-up; see SOURCES.json for source nodes and transforms.
mtllib factory_pillar.mtl
o wall_pier_corner_01
v 0.225 0.10499838 3.1789144e-07
v -0.10500037 -0.225 0
v 0.225 0.10499838 4
v -0.10500037 -0.225 4
v 0.225 0.10499838 3.8333333
v 0.225 0.10499838 3.6666667
v 0.225 0.10499838 3.5
v 0.225 0.10499838 3.3333333
v 0.225 0.10499838 3.1666667
v 0.225 0.10499838 3
v 0.225 0.10499838 2.8333333
v 0.225 0.10499838 2.6666667
v 0.225 0.10499838 2.5
v 0.225 0.10499838 2.3333333
v 0.225 0.10499838 2.1666667
v 0.225 0.10499838 2
v 0.225 0.10499838 1.8333333
v 0.225 0.10499838 1.6666667
v 0.225 0.10499838 1.5
v 0.225 0.10499838 1.3333333
v 0.225 0.10499838 1.1666667
v 0.225 0.10499838 1
v 0.225 0.10499838 0.83333341
v 0.225 0.10499838 0.66666683
v 0.225 0.10499838 0.5000002
v 0.225 0.10499838 0.33333357
v 0.225 0.10499838 0.16666694
v -0.10500037 -0.225 0.16666667
v -0.10500037 -0.225 0.33333333
v -0.10500037 -0.225 0.5
v -0.10500037 -0.225 0.66666667
v -0.10500037 -0.225 0.83333333
v -0.10500037 -0.225 1
v -0.10500037 -0.225 1.1666667
v -0.10500037 -0.225 1.3333333
v -0.10500037 -0.225 1.5
v -0.10500037 -0.225 1.6666667
v -0.10500037 -0.225 1.8333333
v -0.10500037 -0.225 2
v -0.10500037 -0.225 2.1666667
v -0.10500037 -0.225 2.3333333
v -0.10500037 -0.225 2.5
v -0.10500037 -0.225 2.6666667
v -0.10500037 -0.225 2.8333333
v -0.10500037 -0.225 3
v -0.10500037 -0.225 3.1666667
v -0.10500037 -0.225 3.3333333
v -0.10500037 -0.225 3.5
v -0.10500037 -0.225 3.6666667
v -0.10500037 -0.225 3.8333333
v -8.1024693e-07 0.22499999 4
v -8.1024693e-07 0.22499999 3.1789144e-07
v -8.1024693e-07 0.22499999 3.8333333
v -8.1024693e-07 0.22499999 3.6666667
v -8.1024693e-07 0.22499999 3.5
v -8.1024693e-07 0.22499999 3.3333333
v -8.1024693e-07 0.22499999 3.1666667
v -8.1024693e-07 0.22499999 3
v -8.1024693e-07 0.22499999 2.8333333
v -8.1024693e-07 0.22499999 2.6666667
v -8.1024693e-07 0.22499999 2.5000002
v -8.1024693e-07 0.22499999 2.3333335
v -8.1024693e-07 0.22499999 2.1666668
v -8.1024693e-07 0.22499999 2.0000002
v -8.1024693e-07 0.22499999 1.8333335
v -8.1024693e-07 0.22499999 1.6666668
v -8.1024693e-07 0.22499999 1.5000002
v -8.1024693e-07 0.22499999 1.3333335
v -8.1024693e-07 0.22499999 1.1666668
v -8.1024693e-07 0.22499999 1.0000002
v -8.1024693e-07 0.22499999 0.83333349
v -8.1024693e-07 0.22499999 0.66666691
v -8.1024693e-07 0.22499999 0.50000024
v -8.1024693e-07 0.22499999 0.33333361
v -8.1024693e-07 0.22499999 0.16666696
v -0.22499992 -5.5880017e-09 1.5894572e-07
v -0.22499992 -5.5880017e-09 4
v -0.22499992 -5.5880017e-09 3.8333333
v -0.22499992 -5.5880017e-09 3.6666667
v -0.22499992 -5.5880017e-09 3.5
v -0.22499992 -5.5880017e-09 3.3333333
v -0.22499992 -5.5880017e-09 3.1666667
v -0.22499992 -5.5880017e-09 3
v -0.22499992 -5.5880017e-09 2.8333333
v -0.22499992 -5.5880017e-09 2.6666667
v -0.22499992 -5.5880017e-09 2.5000002
v -0.22499992 -5.5880017e-09 2.3333335
v -0.22499992 -5.5880017e-09 2.1666668
v -0.22499992 -5.5880017e-09 2.0000002
v -0.22499992 -5.5880017e-09 1.8333335
v -0.22499992 -5.5880017e-09 1.6666668
v -0.22499992 -5.5880017e-09 1.5000002
v -0.22499992 -5.5880017e-09 1.3333335
v -0.22499992 -5.5880017e-09 1.1666668
v -0.22499992 -5.5880017e-09 1.0000002
v -0.22499992 -5.5880017e-09 0.83333349
v -0.22499992 -5.5880017e-09 0.66666683
v -0.22499992 -5.5880017e-09 0.50000016
v -0.22499992 -5.5880017e-09 0.33333349
v -0.22499992 -5.5880017e-09 0.16666683
v 0.22499844 0.20999983 3.1789144e-07
v 0.22499844 0.20999983 3.1789144e-07
v 0.20999827 0.225 3.1789144e-07
v 0.20999827 0.225 3.1789144e-07
v 0.22060493 0.22060653 3.1789144e-07
v -0.225 -0.20999981 1.0596513e-08
v -0.225 -0.20999981 1.0596513e-08
v -0.21000007 -0.225 0
v -0.21000007 -0.225 0
v -0.22060661 -0.22060653 3.103656e-09
v -0.21000007 -0.225 4
v -0.21000007 -0.225 4
v -0.225 -0.20999981 4
v -0.225 -0.20999981 4
v -0.22060661 -0.22060653 4
v 0.20999827 0.225 4
v 0.20999827 0.225 4
v 0.22499844 0.20999983 4
v 0.22499844 0.20999983 4
v 0.22060493 0.22060653 4
v -0.22499984 0.20999981 4
v -0.22499984 0.20999981 4
v -0.2099999 0.22499999 4
v -0.2099999 0.22499999 4
v -0.22060646 0.22060655 4
v -0.2099999 0.22499999 3.1789144e-07
v -0.2099999 0.22499999 3.1789144e-07
v -0.22499984 0.20999981 3.0729493e-07
v -0.22499984 0.20999981 3.0729493e-07
v -0.22060646 0.22060655 3.1478781e-07
v 0.20999827 0.225 3.8333333
v 0.20999827 0.225 3.8333333
v 0.22499844 0.20999983 3.8333333
v 0.22499844 0.20999983 3.8333333
v 0.22060493 0.22060653 3.8333333
v 0.20999827 0.225 3.6666667
v 0.20999827 0.225 3.6666667
v 0.20999827 0.225 3.6666667
v 0.20999827 0.225 3.6666667
v 0.22499844 0.20999983 3.6666667
v 0.22499844 0.20999983 3.6666667
v 0.22499844 0.20999983 3.6666667
v 0.22499844 0.20999983 3.6666667
v 0.22060493 0.22060653 3.6666667
v 0.20999827 0.225 3.5
v 0.20999827 0.225 3.5
v 0.20999827 0.225 3.5
v 0.20999827 0.225 3.5
v 0.22499844 0.20999983 3.5
v 0.22499844 0.20999983 3.5
v 0.22060493 0.22060653 3.5
v 0.20999827 0.225 3.3333333
v 0.20999827 0.225 3.3333333
v 0.20999827 0.225 3.3333333
v 0.20999827 0.225 3.3333333
v 0.22499844 0.20999983 3.3333333
v 0.22499844 0.20999983 3.3333333
v 0.22060493 0.22060653 3.3333333
v 0.20999827 0.225 3.1666667
v 0.20999827 0.225 3.1666667
v 0.20999827 0.225 3.1666667
v 0.20999827 0.225 3.1666667
v 0.22499844 0.20999983 3.1666667
v 0.22499844 0.20999983 3.1666667
v 0.22060493 0.22060653 3.1666667
v 0.20999827 0.225 3
v 0.20999827 0.225 3
v 0.20999827 0.225 3
v 0.20999827 0.225 3
v 0.22499844 0.20999983 3
v 0.22499844 0.20999983 3
v 0.22060493 0.22060653 3
v 0.20999827 0.225 2.8333333
v 0.20999827 0.225 2.8333333
v 0.20999827 0.225 2.8333333
v 0.20999827 0.225 2.8333333
v 0.22499844 0.20999983 2.8333333
v 0.22499844 0.20999983 2.8333333
v 0.22060493 0.22060653 2.8333333
v 0.20999827 0.225 2.6666667
v 0.20999827 0.225 2.6666667
v 0.20999827 0.225 2.6666667
v 0.20999827 0.225 2.6666667
v 0.22499844 0.20999983 2.6666667
v 0.22499844 0.20999983 2.6666667
v 0.22499844 0.20999983 2.6666667
v 0.22499844 0.20999983 2.6666667
v 0.22060493 0.22060653 2.6666667
v 0.20999827 0.225 2.5
v 0.20999827 0.225 2.5
v 0.22499844 0.20999983 2.5
v 0.22499844 0.20999983 2.5
v 0.22060493 0.22060653 2.5
v 0.20999827 0.225 2.3333333
v 0.20999827 0.225 2.3333333
v 0.22499844 0.20999983 2.3333333
v 0.22499844 0.20999983 2.3333333
v 0.22060493 0.22060653 2.3333333
v 0.20999827 0.225 2.1666667
v 0.20999827 0.225 2.1666667
v 0.22499844 0.20999983 2.1666667
v 0.22499844 0.20999983 2.1666667
v 0.22060493 0.22060653 2.1666667
v 0.20999827 0.225 2
v 0.20999827 0.225 2
v 0.20999827 0.225 2
v 0.20999827 0.225 2
v 0.22499844 0.20999983 2
v 0.22499844 0.20999983 2
v 0.22060493 0.22060653 2
v 0.20999827 0.225 1.8333333
v 0.20999827 0.225 1.8333333
v 0.22499844 0.20999983 1.8333333
v 0.22499844 0.20999983 1.8333333
v 0.22060493 0.22060653 1.8333333
v 0.20999827 0.225 1.6666667
v 0.20999827 0.225 1.6666667
v 0.22499844 0.20999983 1.6666667
v 0.22499844 0.20999983 1.6666667
v 0.22060493 0.22060653 1.6666667
v 0.20999827 0.225 1.5
v 0.20999827 0.225 1.5
v 0.22499844 0.20999983 1.5
v 0.22499844 0.20999983 1.5
v 0.22499844 0.20999983 1.5
v 0.22499844 0.20999983 1.5
v 0.22060493 0.22060653 1.5
v 0.20999827 0.225 1.3333333
v 0.20999827 0.225 1.3333333
v 0.20999827 0.225 1.3333333
v 0.20999827 0.225 1.3333333
v 0.22499844 0.20999983 1.3333333
v 0.22499844 0.20999983 1.3333333
v 0.22060493 0.22060653 1.3333333
v 0.20999827 0.225 1.1666667
v 0.20999827 0.225 1.1666667
v 0.20999827 0.225 1.1666667
v 0.20999827 0.225 1.1666667
v 0.22499844 0.20999983 1.1666667
v 0.22499844 0.20999983 1.1666667
v 0.22060493 0.22060653 1.1666667
v 0.20999827 0.225 1
v 0.20999827 0.225 1
v 0.20999827 0.225 1
v 0.20999827 0.225 1
v 0.22499844 0.20999983 1
v 0.22499844 0.20999983 1
v 0.22060493 0.22060653 1
v 0.20999827 0.225 0.83333341
v 0.20999827 0.225 0.83333341
v 0.20999827 0.225 0.83333341
v 0.20999827 0.225 0.83333341
v 0.22499844 0.20999983 0.83333341
v 0.22499844 0.20999983 0.83333341
v 0.22060493 0.22060653 0.83333341
v 0.20999827 0.225 0.66666683
v 0.20999827 0.225 0.66666683
v 0.20999827 0.225 0.66666683
v 0.20999827 0.225 0.66666683
v 0.22499844 0.20999983 0.66666683
v 0.22499844 0.20999983 0.66666683
v 0.22060493 0.22060653 0.66666683
v 0.20999827 0.225 0.5000002
v 0.20999827 0.225 0.5000002
v 0.20999827 0.225 0.5000002
v 0.20999827 0.225 0.5000002
v 0.22499844 0.20999983 0.5000002
v 0.22499844 0.20999983 0.5000002
v 0.22060493 0.22060653 0.5000002
v 0.20999827 0.225 0.33333357
v 0.20999827 0.225 0.33333357
v 0.20999827 0.225 0.33333357
v 0.20999827 0.225 0.33333357
v 0.22499844 0.20999983 0.33333357
v 0.22499844 0.20999983 0.33333357
v 0.22060493 0.22060653 0.33333357
v 0.22499844 0.20999983 0.16666694
v 0.22499844 0.20999983 0.16666694
v 0.20999827 0.225 0.16666694
v 0.20999827 0.225 0.16666694
v 0.22060493 0.22060653 0.16666694
v -0.225 -0.20999981 0.16666669
v -0.225 -0.20999981 0.16666669
v -0.21000007 -0.225 0.16666667
v -0.21000007 -0.225 0.16666667
v -0.22060661 -0.22060653 0.16666667
v -0.225 -0.20999981 0.33333333
v -0.225 -0.20999981 0.33333333
v -0.21000007 -0.225 0.33333333
v -0.21000007 -0.225 0.33333333
v -0.22060661 -0.22060653 0.33333333
v -0.225 -0.20999981 0.5
v -0.225 -0.20999981 0.5
v -0.21000007 -0.225 0.5
v -0.21000007 -0.225 0.5
v -0.21000007 -0.225 0.5
v -0.21000007 -0.225 0.5
v -0.22060661 -0.22060653 0.5
v -0.225 -0.20999981 0.66666667
v -0.225 -0.20999981 0.66666667
v -0.21000007 -0.225 0.66666667
v -0.21000007 -0.225 0.66666667
v -0.22060661 -0.22060653 0.66666667
v -0.225 -0.20999981 0.83333333
v -0.225 -0.20999981 0.83333333
v -0.21000007 -0.225 0.83333333
v -0.21000007 -0.225 0.83333333
v -0.22060661 -0.22060653 0.83333333
v -0.225 -0.20999981 1
v -0.225 -0.20999981 1
v -0.21000007 -0.225 1
v -0.21000007 -0.225 1
v -0.22060661 -0.22060653 1
v -0.225 -0.20999981 1.1666667
v -0.225 -0.20999981 1.1666667
v -0.21000007 -0.225 1.1666667
v -0.21000007 -0.225 1.1666667
v -0.22060661 -0.22060653 1.1666667
v -0.225 -0.20999981 1.3333333
v -0.225 -0.20999981 1.3333333
v -0.21000007 -0.225 1.3333333
v -0.21000007 -0.225 1.3333333
v -0.22060661 -0.22060653 1.3333333
v -0.225 -0.20999981 1.5
v -0.225 -0.20999981 1.5
v -0.21000007 -0.225 1.5
v -0.21000007 -0.225 1.5
v -0.22060661 -0.22060653 1.5
v -0.225 -0.20999981 1.6666667
v -0.225 -0.20999981 1.6666667
v -0.21000007 -0.225 1.6666667
v -0.21000007 -0.225 1.6666667
v -0.22060661 -0.22060653 1.6666667
v -0.225 -0.20999981 1.8333333
v -0.225 -0.20999981 1.8333333
v -0.21000007 -0.225 1.8333333
v -0.21000007 -0.225 1.8333333
v -0.22060661 -0.22060653 1.8333333
v -0.225 -0.20999981 2
v -0.225 -0.20999981 2
v -0.21000007 -0.225 2
v -0.21000007 -0.225 2
v -0.22060661 -0.22060653 2
v -0.225 -0.20999981 2.1666667
v -0.225 -0.20999981 2.1666667
v -0.21000007 -0.225 2.1666667
v -0.21000007 -0.225 2.1666667
v -0.22060661 -0.22060653 2.1666667
v -0.225 -0.20999981 2.3333333
v -0.225 -0.20999981 2.3333333
v -0.21000007 -0.225 2.3333333
v -0.21000007 -0.225 2.3333333
v -0.22060661 -0.22060653 2.3333333
v -0.225 -0.20999981 2.5
v -0.225 -0.20999981 2.5
v -0.21000007 -0.225 2.5
v -0.21000007 -0.225 2.5
v -0.22060661 -0.22060653 2.5
v -0.225 -0.20999981 2.6666667
v -0.225 -0.20999981 2.6666667
v -0.21000007 -0.225 2.6666667
v -0.21000007 -0.225 2.6666667
v -0.22060661 -0.22060653 2.6666667
v -0.225 -0.20999981 2.8333333
v -0.225 -0.20999981 2.8333333
v -0.21000007 -0.225 2.8333333
v -0.21000007 -0.225 2.8333333
v -0.22060661 -0.22060653 2.8333333
v -0.225 -0.20999981 3
v -0.225 -0.20999981 3
v -0.21000007 -0.225 3
v -0.21000007 -0.225 3
v -0.22060661 -0.22060653 3
v -0.225 -0.20999981 3.1666667
v -0.225 -0.20999981 3.1666667
v -0.21000007 -0.225 3.1666667
v -0.21000007 -0.225 3.1666667
v -0.21000007 -0.225 3.1666667
v -0.21000007 -0.225 3.1666667
v -0.22060661 -0.22060653 3.1666667
v -0.225 -0.20999981 3.3333333
v -0.225 -0.20999981 3.3333333
v -0.21000007 -0.225 3.3333333
v -0.21000007 -0.225 3.3333333
v -0.21000007 -0.225 3.3333333
v -0.21000007 -0.225 3.3333333
v -0.22060661 -0.22060653 3.3333333
v -0.225 -0.20999981 3.5
v -0.225 -0.20999981 3.5
v -0.21000007 -0.225 3.5
v -0.21000007 -0.225 3.5
v -0.22060661 -0.22060653 3.5
v -0.225 -0.20999981 3.6666667
v -0.225 -0.20999981 3.6666667
v -0.21000007 -0.225 3.6666667
v -0.21000007 -0.225 3.6666667
v -0.22060661 -0.22060653 3.6666667
v -0.21000007 -0.225 3.8333333
v -0.21000007 -0.225 3.8333333
v -0.225 -0.20999981 3.8333333
v -0.225 -0.20999981 3.8333333
v -0.22060661 -0.22060653 3.8333333
v -0.2099999 0.22499999 0.16666698
v -0.2099999 0.22499999 0.16666698
v -0.22499984 0.20999981 0.16666696
v -0.22499984 0.20999981 0.16666696
v -0.22060646 0.22060655 0.16666698
v -0.2099999 0.22499999 0.33333365
v -0.2099999 0.22499999 0.33333365
v -0.22499984 0.20999981 0.33333365
v -0.22499984 0.20999981 0.33333365
v -0.22060646 0.22060655 0.33333365
v -0.2099999 0.22499999 0.50000032
v -0.2099999 0.22499999 0.50000032
v -0.22499984 0.20999981 0.50000032
v -0.22499984 0.20999981 0.50000032
v -0.22060646 0.22060655 0.50000032
v -0.2099999 0.22499999 0.66666698
v -0.2099999 0.22499999 0.66666698
v -0.2099999 0.22499999 0.66666698
v -0.2099999 0.22499999 0.66666698
v -0.22499984 0.20999981 0.66666698
v -0.22499984 0.20999981 0.66666698
v -0.22060646 0.22060655 0.66666698
v -0.2099999 0.22499999 0.83333365
v -0.2099999 0.22499999 0.83333365
v -0.22499984 0.20999981 0.83333365
v -0.22499984 0.20999981 0.83333365
v -0.22060646 0.22060655 0.83333365
v -0.2099999 0.22499999 1.0000003
v -0.2099999 0.22499999 1.0000003
v -0.22499984 0.20999981 1.0000003
v -0.22499984 0.20999981 1.0000003
v -0.22060646 0.22060655 1.0000003
v -0.2099999 0.22499999 1.166667
v -0.2099999 0.22499999 1.166667
v -0.22499984 0.20999981 1.166667
v -0.22499984 0.20999981 1.166667
v -0.22060646 0.22060655 1.166667
v -0.2099999 0.22499999 1.3333337
v -0.2099999 0.22499999 1.3333337
v -0.22499984 0.20999981 1.3333337
v -0.22499984 0.20999981 1.3333337
v -0.22060646 0.22060655 1.3333337
v -0.2099999 0.22499999 1.5000003
v -0.2099999 0.22499999 1.5000003
v -0.22499984 0.20999981 1.5000003
v -0.22499984 0.20999981 1.5000003
v -0.22060646 0.22060655 1.5000003
v -0.2099999 0.22499999 1.666667
v -0.2099999 0.22499999 1.666667
v -0.2099999 0.22499999 1.666667
v -0.2099999 0.22499999 1.666667
v -0.22499984 0.20999981 1.666667
v -0.22499984 0.20999981 1.666667
v -0.22499984 0.20999981 1.666667
v -0.22499984 0.20999981 1.666667
v -0.22060646 0.22060655 1.666667
v -0.2099999 0.22499999 1.8333337
v -0.2099999 0.22499999 1.8333337
v -0.22499984 0.20999981 1.8333337
v -0.22499984 0.20999981 1.8333337
v -0.22060646 0.22060655 1.8333337
v -0.2099999 0.22499999 2.0000003
v -0.2099999 0.22499999 2.0000003
v -0.22499984 0.20999981 2.0000003
v -0.22499984 0.20999981 2.0000003
v -0.22060646 0.22060655 2.0000003
v -0.2099999 0.22499999 2.166667
v -0.2099999 0.22499999 2.166667
v -0.22499984 0.20999981 2.166667
v -0.22499984 0.20999981 2.166667
v -0.22060646 0.22060655 2.166667
v -0.2099999 0.22499999 2.3333337
v -0.2099999 0.22499999 2.3333337
v -0.22499984 0.20999981 2.3333337
v -0.22499984 0.20999981 2.3333337
v -0.22060646 0.22060655 2.3333337
v -0.2099999 0.22499999 2.5000003
v -0.2099999 0.22499999 2.5000003
v -0.2099999 0.22499999 2.5000003
v -0.2099999 0.22499999 2.5000003
v -0.22499984 0.20999981 2.5000003
v -0.22499984 0.20999981 2.5000003
v -0.22060646 0.22060655 2.5000003
v -0.2099999 0.22499999 2.666667
v -0.2099999 0.22499999 2.666667
v -0.22499984 0.20999981 2.666667
v -0.22499984 0.20999981 2.666667
v -0.22060646 0.22060655 2.666667
v -0.2099999 0.22499999 2.8333337
v -0.2099999 0.22499999 2.8333337
v -0.22499984 0.20999981 2.8333337
v -0.22499984 0.20999981 2.8333337
v -0.22060646 0.22060655 2.8333337
v -0.2099999 0.22499999 3.0000003
v -0.2099999 0.22499999 3.0000003
v -0.22499984 0.20999981 3.0000003
v -0.22499984 0.20999981 3.0000003
v -0.22060646 0.22060655 3.0000003
v -0.2099999 0.22499999 3.166667
v -0.2099999 0.22499999 3.166667
v -0.22499984 0.20999981 3.166667
v -0.22499984 0.20999981 3.166667
v -0.22060646 0.22060655 3.166667
v -0.2099999 0.22499999 3.3333337
v -0.2099999 0.22499999 3.3333337
v -0.2099999 0.22499999 3.3333337
v -0.2099999 0.22499999 3.3333337
v -0.22499984 0.20999981 3.3333337
v -0.22499984 0.20999981 3.3333337
v -0.22499984 0.20999981 3.3333337
v -0.22499984 0.20999981 3.3333337
v -0.22060646 0.22060655 3.3333337
v -0.2099999 0.22499999 3.5000003
v -0.2099999 0.22499999 3.5000003
v -0.22499984 0.20999981 3.5000003
v -0.22499984 0.20999981 3.5000003
v -0.22499984 0.20999981 3.5000003
v -0.22499984 0.20999981 3.5000003
v -0.22060646 0.22060655 3.5000003
v -0.2099999 0.22499999 3.666667
v -0.2099999 0.22499999 3.666667
v -0.22499984 0.20999981 3.666667
v -0.22499984 0.20999981 3.666667
v -0.22499984 0.20999981 3.666667
v -0.22499984 0.20999981 3.666667
v -0.22060646 0.22060655 3.666667
v -0.22499984 0.20999981 3.8333333
v -0.22499984 0.20999981 3.8333333
v -0.2099999 0.22499999 3.8333333
v -0.2099999 0.22499999 3.8333333
v -0.2099999 0.22499999 3.8333333
v -0.2099999 0.22499999 3.8333333
v -0.22060646 0.22060655 3.8333333
vt 0.25333223 5.9604645e-08
vt 2.483527e-08 0
vt 0.25333229 1
vt 2.9802322e-08 1
vt 0.25333232 0.95833343
vt 0.25333232 0.91666663
vt 0.25333232 0.87499994
vt 0.25333235 0.83333337
vt 0.25333235 0.79166669
vt 0.25333235 0.74999994
vt 0.25333232 0.70833325
vt 0.25333235 0.66666663
vt 0.25333232 0.62499994
vt 0.25333229 0.58333325
vt 0.25333229 0.54166663
vt 0.25333229 0.49999988
vt 0.25333226 0.45833325
vt 0.25333226 0.41666663
vt 0.25333223 0.37499994
vt 0.25333223 0.33333325
vt 0.25333223 0.29166663
vt 0.25333223 0.24999994
vt 0.25333223 0.20833331
vt 0.25333223 0.16666669
vt 0.25333223 0.125
vt 0.25333223 0.083333373
vt 0.25333223 0.041666687
vt 1.9868216e-08 0.041666627
vt 1.4901161e-08 0.083333313
vt 1.4901161e-08 0.12499994
vt 9.9341078e-09 0.16666663
vt 9.9341078e-09 0.20833331
vt 9.9341078e-09 0.24999994
vt 4.9670539e-09 0.29166663
vt 4.9670539e-09 0.33333325
vt 0 0.37499994
vt 0 0.41666663
vt -4.9670539e-09 0.45833325
vt -4.9670539e-09 0.5
vt 0 0.54166663
vt 0 0.58333331
vt 4.9670539e-09 0.625
vt 1.4901161e-08 0.66666663
vt 1.9868216e-08 0.70833325
vt 2.9802322e-08 0.74999994
vt 3.9736431e-08 0.79166669
vt 4.4703484e-08 0.83333337
vt 3.9736431e-08 0.875
vt 3.9736431e-08 0.91666663
vt 3.9736431e-08 0.95833325
vt 0.17666556 1
vt 0.1766655 5.9604645e-08
vt 0.17666557 0.95833337
vt 0.17666557 0.91666669
vt 0.17666557 0.875
vt 0.1766656 0.83333337
vt 0.17666557 0.79166669
vt 0.1766656 0.75
vt 0.1766656 0.70833325
vt 0.17666557 0.66666657
vt 0.17666556 0.625
vt 0.17666556 0.58333337
vt 0.17666554 0.54166663
vt 0.17666556 0.5
vt 0.17666554 0.45833331
vt 0.17666551 0.41666663
vt 0.17666551 0.375
vt 0.17666554 0.33333331
vt 0.1766655 0.29166663
vt 0.17666551 0.25
vt 0.17666551 0.20833337
vt 0.1766655 0.16666669
vt 0.17666551 0.125
vt 0.17666551 0.083333373
vt 0.17666551 0.041666746
vt 0.076666132 0
vt 0.076666147 1
vt 0.076666161 0.95833337
vt 0.076666169 0.91666669
vt 0.076666147 0.87499994
vt 0.076666161 0.83333325
vt 0.076666147 0.79166669
vt 0.076666161 0.75
vt 0.076666147 0.70833325
vt 0.076666139 0.66666663
vt 0.076666132 0.625
vt 0.076666132 0.58333337
vt 0.076666132 0.54166663
vt 0.076666117 0.5
vt 0.076666117 0.45833331
vt 0.076666117 0.41666663
vt 0.076666109 0.375
vt 0.076666117 0.33333331
vt 0.076666117 0.29166663
vt 0.076666109 0.25
vt 0.076666117 0.20833331
vt 0.076666117 0.16666663
vt 0.076666109 0.125
vt 0.076666117 0.083333373
vt 0.076666109 0.041666687
vt 0.22999886 5.9604645e-08
vt 0.22999886 5.9604645e-08
vt 0.22333217 5.9604645e-08
vt 0.22333217 5.9604645e-08
vt 0.22666551 5.9604645e-08
vt 0.030000057 0
vt 0.030000057 0
vt 0.023333391 0
vt 0.023333391 0
vt 0.026666721 0
vt 0.023333404 1
vt 0.023333404 1
vt 0.030000072 1
vt 0.030000072 1
vt 0.026666736 1
vt 0.22333224 1
vt 0.22333224 1
vt 0.2299989 1
vt 0.2299989 1
vt 0.22666557 1
vt 0.12333222 1
vt 0.12333222 1
vt 0.12999888 1
vt 0.12999888 1
vt 0.12666555 1
vt 0.12999886 5.9604645e-08
vt 0.12999886 5.9604645e-08
vt 0.1233322 5.9604645e-08
vt 0.1233322 5.9604645e-08
vt 0.12666553 5.9604645e-08
vt 0.22333226 0.95833337
vt 0.22333226 0.95833337
vt 0.22999892 0.95833337
vt 0.22999892 0.95833337
vt 0.22666559 0.95833337
vt 0.22333226 0.91666675
vt 0.22333226 0.91666669
vt 0.22333226 0.91666675
vt 0.22333226 0.91666669
vt 0.22999892 0.91666669
vt 0.22999892 0.91666663
vt 0.22999892 0.91666669
vt 0.22999892 0.91666663
vt 0.22666559 0.91666669
vt 0.22333227 0.875
vt 0.22333229 0.875
vt 0.22333227 0.875
vt 0.22333229 0.875
vt 0.22999895 0.875
vt 0.22999895 0.875
vt 0.22666562 0.875
vt 0.22333227 0.83333325
vt 0.22333229 0.83333331
vt 0.22333227 0.83333325
vt 0.22333229 0.83333331
vt 0.22999896 0.83333325
vt 0.22999896 0.83333325
vt 0.22666562 0.83333325
vt 0.22333227 0.79166669
vt 0.22333229 0.79166669
vt 0.22333227 0.79166669
vt 0.22333229 0.79166669
vt 0.22999896 0.79166669
vt 0.22999896 0.79166669
vt 0.22666562 0.79166669
vt 0.22333227 0.75
vt 0.22333229 0.75
vt 0.22333227 0.75
vt 0.22333229 0.75
vt 0.22999896 0.75
vt 0.22999896 0.75
vt 0.22666562 0.75
vt 0.22333227 0.70833325
vt 0.22333229 0.70833331
vt 0.22333227 0.70833325
vt 0.22333229 0.70833331
vt 0.22999895 0.70833325
vt 0.22999895 0.70833325
vt 0.22666562 0.70833325
vt 0.22333227 0.66666657
vt 0.22333229 0.66666657
vt 0.22333227 0.66666657
vt 0.22333229 0.66666657
vt 0.22999896 0.66666663
vt 0.22999896 0.66666657
vt 0.22999896 0.66666663
vt 0.22999896 0.66666657
vt 0.22666562 0.66666657
vt 0.22333226 0.62499994
vt 0.22333226 0.62499994
vt 0.22999892 0.62499994
vt 0.22999892 0.62499994
vt 0.22666559 0.62499994
vt 0.22333224 0.58333325
vt 0.22333224 0.58333325
vt 0.2299989 0.58333325
vt 0.2299989 0.58333325
vt 0.22666557 0.58333325
vt 0.22333226 0.54166663
vt 0.22333226 0.54166663
vt 0.22999892 0.54166663
vt 0.22999892 0.54166663
vt 0.22666559 0.54166663
vt 0.22333223 0.49999994
vt 0.22333224 0.49999994
vt 0.22333223 0.49999994
vt 0.22333224 0.49999994
vt 0.22999889 0.49999994
vt 0.22999889 0.49999994
vt 0.22666556 0.49999994
vt 0.22333223 0.45833325
vt 0.22333223 0.45833325
vt 0.22999889 0.45833325
vt 0.22999889 0.45833325
vt 0.22666556 0.45833325
vt 0.22333223 0.41666663
vt 0.22333223 0.41666663
vt 0.22999889 0.41666663
vt 0.22999889 0.41666663
vt 0.22666556 0.41666663
vt 0.2233322 0.375
vt 0.2233322 0.375
vt 0.22999886 0.375
vt 0.22999886 0.37499994
vt 0.22999886 0.375
vt 0.22999886 0.37499994
vt 0.22666553 0.375
vt 0.22333218 0.33333325
vt 0.2233322 0.33333325
vt 0.22333218 0.33333325
vt 0.2233322 0.33333325
vt 0.22999886 0.33333325
vt 0.22999886 0.33333325
vt 0.22666551 0.33333325
vt 0.22333218 0.29166663
vt 0.2233322 0.29166663
vt 0.22333218 0.29166663
vt 0.2233322 0.29166663
vt 0.22999886 0.29166663
vt 0.22999886 0.29166663
vt 0.22666553 0.29166663
vt 0.22333217 0.25
vt 0.22333218 0.25
vt 0.22333217 0.25
vt 0.22333218 0.25
vt 0.22999886 0.25
vt 0.22999886 0.25
vt 0.22666551 0.25
vt 0.22333217 0.20833331
vt 0.22333218 0.20833331
vt 0.22333217 0.20833331
vt 0.22333218 0.20833331
vt 0.22999886 0.20833331
vt 0.22999886 0.20833331
vt 0.22666551 0.20833331
vt 0.22333218 0.16666663
vt 0.2233322 0.16666663
vt 0.22333218 0.16666663
vt 0.2233322 0.16666663
vt 0.22999886 0.16666663
vt 0.22999886 0.16666663
vt 0.22666553 0.16666663
vt 0.22333217 0.125
vt 0.22333218 0.125
vt 0.22333217 0.125
vt 0.22333218 0.125
vt 0.22999886 0.125
vt 0.22999886 0.125
vt 0.22666551 0.125
vt 0.22333217 0.083333373
vt 0.22333218 0.083333373
vt 0.22333217 0.083333373
vt 0.22333218 0.083333373
vt 0.22999886 0.083333373
vt 0.22999886 0.083333373
vt 0.22666551 0.083333373
vt 0.22999886 0.041666687
vt 0.22999886 0.041666687
vt 0.2233322 0.041666687
vt 0.2233322 0.041666687
vt 0.22666553 0.041666687
vt 0.030000061 0.041666627
vt 0.030000061 0.041666627
vt 0.023333395 0.041666627
vt 0.023333395 0.041666627
vt 0.026666727 0.041666627
vt 0.030000057 0.083333313
vt 0.030000057 0.083333313
vt 0.023333389 0.083333313
vt 0.023333389 0.083333313
vt 0.026666721 0.083333313
vt 0.030000055 0.12499994
vt 0.030000055 0.12499994
vt 0.023333389 0.125
vt 0.023333389 0.12499994
vt 0.023333389 0.125
vt 0.023333389 0.12499994
vt 0.026666721 0.12499994
vt 0.03000005 0.16666663
vt 0.03000005 0.16666663
vt 0.023333384 0.16666663
vt 0.023333384 0.16666663
vt 0.026666716 0.16666663
vt 0.030000046 0.20833325
vt 0.030000046 0.20833325
vt 0.023333382 0.20833325
vt 0.023333382 0.20833325
vt 0.026666712 0.20833325
vt 0.030000046 0.25
vt 0.030000046 0.25
vt 0.023333382 0.25
vt 0.023333382 0.25
vt 0.026666712 0.25
vt 0.030000046 0.29166663
vt 0.030000046 0.29166663
vt 0.02333338 0.29166663
vt 0.02333338 0.29166663
vt 0.026666712 0.29166663
vt 0.030000046 0.33333325
vt 0.030000046 0.33333325
vt 0.02333338 0.33333325
vt 0.02333338 0.33333325
vt 0.026666712 0.33333325
vt 0.030000046 0.37499994
vt 0.030000046 0.37499994
vt 0.02333338 0.37499994
vt 0.02333338 0.37499994
vt 0.026666712 0.37499994
vt 0.030000042 0.41666663
vt 0.030000042 0.41666663
vt 0.023333374 0.41666663
vt 0.023333374 0.41666663
vt 0.026666706 0.41666663
vt 0.030000042 0.45833325
vt 0.030000042 0.45833325
vt 0.023333374 0.45833325
vt 0.023333374 0.45833325
vt 0.026666706 0.45833325
vt 0.030000046 0.5
vt 0.030000046 0.5
vt 0.02333338 0.5
vt 0.02333338 0.5
vt 0.026666712 0.5
vt 0.030000048 0.54166663
vt 0.030000048 0.54166663
vt 0.02333338 0.54166663
vt 0.02333338 0.54166663
vt 0.026666712 0.54166663
vt 0.030000051 0.58333337
vt 0.030000051 0.58333337
vt 0.023333382 0.58333337
vt 0.023333382 0.58333337
vt 0.026666716 0.58333337
vt 0.030000051 0.625
vt 0.030000051 0.625
vt 0.023333382 0.625
vt 0.023333382 0.625
vt 0.026666716 0.625
vt 0.030000066 0.66666663
vt 0.030000066 0.66666663
vt 0.023333397 0.66666663
vt 0.023333397 0.66666663
vt 0.026666731 0.66666663
vt 0.030000076 0.70833337
vt 0.030000076 0.70833337
vt 0.023333408 0.70833337
vt 0.023333408 0.70833337
vt 0.026666742 0.70833337
vt 0.030000081 0.75
vt 0.030000081 0.75
vt 0.023333412 0.75
vt 0.023333412 0.75
vt 0.026666746 0.75
vt 0.030000079 0.79166669
vt 0.030000079 0.79166669
vt 0.023333414 0.79166675
vt 0.023333414 0.79166669
vt 0.023333414 0.79166675
vt 0.023333414 0.79166669
vt 0.026666746 0.79166669
vt 0.030000087 0.83333337
vt 0.030000087 0.83333337
vt 0.023333419 0.83333343
vt 0.023333419 0.83333337
vt 0.023333419 0.83333343
vt 0.023333419 0.83333337
vt 0.026666751 0.83333337
vt 0.030000087 0.87499994
vt 0.030000087 0.87499994
vt 0.023333419 0.875
vt 0.023333419 0.875
vt 0.026666751 0.87499994
vt 0.030000087 0.91666663
vt 0.030000087 0.91666663
vt 0.023333419 0.91666663
vt 0.023333419 0.91666663
vt 0.026666751 0.91666663
vt 0.023333419 0.95833343
vt 0.023333419 0.95833343
vt 0.030000087 0.95833343
vt 0.030000087 0.95833343
vt 0.026666751 0.95833343
vt 0.12999883 0.041666746
vt 0.12999883 0.041666746
vt 0.12333217 0.041666746
vt 0.12333217 0.041666746
vt 0.1266655 0.041666746
vt 0.12999883 0.083333373
vt 0.12999883 0.083333373
vt 0.12333217 0.083333373
vt 0.12333217 0.083333373
vt 0.1266655 0.083333373
vt 0.12999883 0.12500006
vt 0.12999883 0.12500006
vt 0.12333217 0.12500006
vt 0.12333217 0.12500006
vt 0.1266655 0.12500006
vt 0.12999883 0.16666675
vt 0.12999883 0.16666669
vt 0.12999883 0.16666675
vt 0.12999883 0.16666669
vt 0.12333217 0.16666675
vt 0.12333217 0.16666675
vt 0.1266655 0.16666675
vt 0.12999886 0.20833337
vt 0.12999886 0.20833337
vt 0.1233322 0.20833337
vt 0.1233322 0.20833337
vt 0.12666553 0.20833337
vt 0.12999883 0.25
vt 0.12999883 0.25
vt 0.12333217 0.25
vt 0.12333217 0.25
vt 0.1266655 0.25
vt 0.12999886 0.29166675
vt 0.12999886 0.29166675
vt 0.1233322 0.29166675
vt 0.1233322 0.29166675
vt 0.12666553 0.29166675
vt 0.12999886 0.33333337
vt 0.12999886 0.33333337
vt 0.1233322 0.33333337
vt 0.1233322 0.33333337
vt 0.12666553 0.33333337
vt 0.12999883 0.375
vt 0.12999883 0.375
vt 0.12333217 0.375
vt 0.12333217 0.375
vt 0.1266655 0.375
vt 0.12999886 0.41666675
vt 0.12999886 0.41666669
vt 0.12999886 0.41666675
vt 0.12999886 0.41666669
vt 0.1233322 0.41666675
vt 0.1233322 0.41666669
vt 0.1233322 0.41666675
vt 0.1233322 0.41666669
vt 0.12666553 0.41666675
vt 0.12999886 0.45833337
vt 0.12999886 0.45833337
vt 0.1233322 0.45833337
vt 0.1233322 0.45833337
vt 0.12666553 0.45833337
vt 0.12999886 0.5
vt 0.12999886 0.5
vt 0.1233322 0.5
vt 0.1233322 0.5
vt 0.12666553 0.5
vt 0.12999886 0.54166669
vt 0.12999886 0.54166669
vt 0.1233322 0.54166669
vt 0.1233322 0.54166669
vt 0.12666553 0.54166669
vt 0.12999888 0.58333337
vt 0.12999888 0.58333337
vt 0.12333222 0.58333337
vt 0.12333222 0.58333337
vt 0.12666555 0.58333337
vt 0.12999889 0.62500006
vt 0.12999889 0.625
vt 0.12999889 0.62500006
vt 0.12999889 0.625
vt 0.12333223 0.62500006
vt 0.12333223 0.62500006
vt 0.12666556 0.62500006
vt 0.12999889 0.66666675
vt 0.12999889 0.66666675
vt 0.12333223 0.66666675
vt 0.12333223 0.66666675
vt 0.12666556 0.66666675
vt 0.12999889 0.70833337
vt 0.12999889 0.70833337
vt 0.12333223 0.70833337
vt 0.12333223 0.70833337
vt 0.12666556 0.70833337
vt 0.12999889 0.75000012
vt 0.12999889 0.75000012
vt 0.12333223 0.75000012
vt 0.12333223 0.75000012
vt 0.12666556 0.75000012
vt 0.12999889 0.79166675
vt 0.12999889 0.79166675
vt 0.12333223 0.79166675
vt 0.12333223 0.79166675
vt 0.12666556 0.79166675
vt 0.12999889 0.83333343
vt 0.12999889 0.83333337
vt 0.12999889 0.83333343
vt 0.12999889 0.83333337
vt 0.12333223 0.83333343
vt 0.12333223 0.83333337
vt 0.12333223 0.83333343
vt 0.12333223 0.83333337
vt 0.12666556 0.83333343
vt 0.12999889 0.87500012
vt 0.12999889 0.87500012
vt 0.12333223 0.87500012
vt 0.12333223 0.87500006
vt 0.12333223 0.87500012
vt 0.12333223 0.87500006
vt 0.12666556 0.87500012
vt 0.12999889 0.91666669
vt 0.12999889 0.91666669
vt 0.12333223 0.91666669
vt 0.12333224 0.91666669
vt 0.12333223 0.91666669
vt 0.12333224 0.91666669
vt 0.12666556 0.91666669
vt 0.12333223 0.95833337
vt 0.12333223 0.95833337
vt 0.12999889 0.95833337
vt 0.12999889 0.95833331
vt 0.12999889 0.95833337
vt 0.12999889 0.95833331
vt 0.12666556 0.95833337
vn 1 0 0
vn 0 -1 0
vn 1 0 0
vn 0 -1 0
vn 1 0 0
vn 1 0 0
vn 1 0 0
vn 1 0 0
vn 1 0 0
vn 1 0 0
vn 1 0 0
vn 1 0 0
vn 1 0 0
vn 1 0 0
vn 1 0 0
vn 1 0 0
vn 1 0 0
vn 1 0 0
vn 1 0 0
vn 1 0 0
vn 1 0 0
vn 1 0 0
vn 1 0 0
vn 1 0 0
vn 1 0 0
vn 1 0 0
vn 1 0 0
vn 0 -1 0
vn 0 -1 0
vn 0 -1 0
vn 0 -1 0
vn 0 -1 0
vn 0 -1 0
vn 0 -1 0
vn 0 -1 0
vn 0 -1 0
vn 0 -1 0
vn 0 -1 0
vn 0 -1 0
vn 0 -1 0
vn 0 -1 0
vn 0 -1 0
vn 0 -1 0
vn 0 -1 0
vn 0 -1 0
vn 0 -1 0
vn 0 -1 0
vn 0 -1 0
vn 0 -1 0
vn 0 -1 0
vn 0 1 0
vn 0 1 0
vn 0 1 0
vn 0 1 0
vn 0 1 0
vn 0 1 0
vn 0 1 0
vn 0 1 0
vn 0 1 0
vn 0 1 0
vn 0 1 0
vn 0 1 0
vn 0 1 0
vn 0 1 0
vn 0 1 0
vn 0 1 0
vn 0 1 0
vn 0 1 0
vn 0 1 0
vn 0 1 0
vn 0 1 0
vn 0 1 0
vn 0 1 0
vn 0 1 0
vn 0 1 0
vn -1 0 0
vn -1 0 0
vn -1 0 0
vn -1 0 0
vn -1 0 0
vn -1 0 0
vn -1 0 0
vn -1 0 0
vn -1 0 0
vn -1 0 0
vn -1 0 0
vn -1 0 0
vn -1 0 0
vn -1 0 0
vn -1 0 0
vn -1 0 0
vn -1 0 0
vn -1 0 0
vn -1 0 0
vn -1 0 0
vn -1 0 0
vn -1 0 0
vn -1 0 0
vn -1 0 0
vn -1 0 0
vn 0.9238789 0.38268495 0
vn 1 0 0
vn 0 1 0
vn 0.3826957 0.92387445 0
vn 0.70711259 0.70710097 0
vn -0.9238789 -0.38268495 0
vn -1 0 0
vn 0 -1 0
vn -0.3826957 -0.92387445 0
vn -0.70711259 -0.70710097 0
vn 0 -1 0
vn -0.3826957 -0.92387445 0
vn -0.9238789 -0.38268495 0
vn -1 0 0
vn -0.70711259 -0.70710097 0
vn 0 1 0
vn 0.3826957 0.92387445 0
vn 0.9238789 0.38268495 0
vn 1 0 0
vn 0.70711259 0.70710097 0
vn -0.9238789 0.38268495 0
vn -1 0 0
vn 0 1 0
vn -0.3826957 0.92387445 0
vn -0.70711259 0.70710097 0
vn 0 1 0
vn -0.3826957 0.92387445 0
vn -0.9238789 0.38268495 0
vn -1 0 0
vn -0.70711259 0.70710097 0
vn 0 1 0
vn 0.3826957 0.92387445 0
vn 0.9238789 0.38268495 0
vn 1 0 0
vn 0.70711259 0.70710097 0
vn 0 1 0
vn 0 1 0
vn 0.3826957 0.92387445 0
vn 0.3826957 0.92387445 0
vn 0.9238789 0.38268495 0
vn 0.9238789 0.38268495 0
vn 1 0 0
vn 1 0 0
vn 0.70711259 0.70710097 0
vn 0 1 0
vn 0 1 0
vn 0.3826957 0.92387445 0
vn 0.3826957 0.92387445 0
vn 0.9238789 0.38268495 0
vn 1 0 0
vn 0.70711259 0.70710097 0
vn 0 1 0
vn 0 1 0
vn 0.3826957 0.92387445 0
vn 0.3826957 0.92387445 0
vn 0.9238789 0.38268495 0
vn 1 0 0
vn 0.70711259 0.70710097 0
vn 0 1 0
vn 0 1 0
vn 0.3826957 0.92387445 0
vn 0.3826957 0.92387445 0
vn 0.9238789 0.38268495 0
vn 1 0 0
vn 0.70711259 0.70710097 0
vn 0 1 0
vn 0 1 0
vn 0.3826957 0.92387445 0
vn 0.3826957 0.92387445 0
vn 0.9238789 0.38268495 0
vn 1 0 0
vn 0.70711259 0.70710097 0
vn 0 1 0
vn 0 1 0
vn 0.3826957 0.92387445 0
vn 0.3826957 0.92387445 0
vn 0.9238789 0.38268495 0
vn 1 0 0
vn 0.70711259 0.70710097 0
vn 0 1 0
vn 0 1 0
vn 0.3826957 0.92387445 0
vn 0.3826957 0.92387445 0
vn 0.9238789 0.38268495 0
vn 0.9238789 0.38268495 0
vn 1 0 0
vn 1 0 0
vn 0.70711259 0.70710097 0
vn 0 1 0
vn 0.3826957 0.92387445 0
vn 0.9238789 0.38268495 0
vn 1 0 0
vn 0.70711259 0.70710097 0
vn 0 1 0
vn 0.3826957 0.92387445 0
vn 0.9238789 0.38268495 0
vn 1 0 0
vn 0.70711259 0.70710097 0
vn 0 1 0
vn 0.3826957 0.92387445 0
vn 0.9238789 0.38268495 0
vn 1 0 0
vn 0.70711259 0.70710097 0
vn 0 1 0
vn 0 1 0
vn 0.3826957 0.92387445 0
vn 0.3826957 0.92387445 0
vn 0.9238789 0.38268495 0
vn 1 0 0
vn 0.70711259 0.70710097 0
vn 0 1 0
vn 0.3826957 0.92387445 0
vn 0.9238789 0.38268495 0
vn 1 0 0
vn 0.70711259 0.70710097 0
vn 0 1 0
vn 0.3826957 0.92387445 0
vn 0.9238789 0.38268495 0
vn 1 0 0
vn 0.70711259 0.70710097 0
vn 0 1 0
vn 0.3826957 0.92387445 0
vn 0.9238789 0.38268495 0
vn 0.9238789 0.38268495 0
vn 1 0 0
vn 1 0 0
vn 0.70711259 0.70710097 0
vn 0 1 0
vn 0 1 0
vn 0.3826957 0.92387445 0
vn 0.3826957 0.92387445 0
vn 0.9238789 0.38268495 0
vn 1 0 0
vn 0.70711259 0.70710097 0
vn 0 1 0
vn 0 1 0
vn 0.3826957 0.92387445 0
vn 0.3826957 0.92387445 0
vn 0.9238789 0.38268495 0
vn 1 0 0
vn 0.70711259 0.70710097 0
vn 0 1 0
vn 0 1 0
vn 0.3826957 0.92387445 0
vn 0.3826957 0.92387445 0
vn 0.9238789 0.38268495 0
vn 1 0 0
vn 0.70711259 0.70710097 0
vn 0 1 0
vn 0 1 0
vn 0.3826957 0.92387445 0
vn 0.3826957 0.92387445 0
vn 0.9238789 0.38268495 0
vn 1 0 0
vn 0.70711259 0.70710097 0
vn 0 1 0
vn 0 1 0
vn 0.3826957 0.92387445 0
vn 0.3826957 0.92387445 0
vn 0.9238789 0.38268495 0
vn 1 0 0
vn 0.70711259 0.70710097 0
vn 0 1 0
vn 0 1 0
vn 0.3826957 0.92387445 0
vn 0.3826957 0.92387445 0
vn 0.9238789 0.38268495 0
vn 1 0 0
vn 0.70711259 0.70710097 0
vn 0 1 0
vn 0 1 0
vn 0.3826957 0.92387445 0
vn 0.3826957 0.92387445 0
vn 0.9238789 0.38268495 0
vn 1 0 0
vn 0.70711259 0.70710097 0
vn 0.9238789 0.38268495 0
vn 1 0 0
vn 0 1 0
vn 0.3826957 0.92387445 0
vn 0.70711259 0.70710097 0
vn -0.9238789 -0.38268495 0
vn -1 0 0
vn 0 -1 0
vn -0.3826957 -0.92387445 0
vn -0.70711259 -0.70710097 0
vn -0.9238789 -0.38268495 0
vn -1 0 0
vn 0 -1 0
vn -0.3826957 -0.92387445 0
vn -0.70711259 -0.70710097 0
vn -0.9238789 -0.38268495 0
vn -1 0 0
vn 0 -1 0
vn 0 -1 0
vn -0.3826957 -0.92387445 0
vn -0.3826957 -0.92387445 0
vn -0.70711259 -0.70710097 0
vn -0.9238789 -0.38268495 0
vn -1 0 0
vn 0 -1 0
vn -0.3826957 -0.92387445 0
vn -0.70711259 -0.70710097 0
vn -0.9238789 -0.38268495 0
vn -1 0 0
vn 0 -1 0
vn -0.3826957 -0.92387445 0
vn -0.70711259 -0.70710097 0
vn -0.9238789 -0.38268495 0
vn -1 0 0
vn 0 -1 0
vn -0.3826957 -0.92387445 0
vn -0.70711259 -0.70710097 0
vn -0.9238789 -0.38268495 0
vn -1 0 0
vn 0 -1 0
vn -0.3826957 -0.92387445 0
vn -0.70711259 -0.70710097 0
vn -0.9238789 -0.38268495 0
vn -1 0 0
vn 0 -1 0
vn -0.3826957 -0.92387445 0
vn -0.70711259 -0.70710097 0
vn -0.9238789 -0.38268495 0
vn -1 0 0
vn 0 -1 0
vn -0.3826957 -0.92387445 0
vn -0.70711259 -0.70710097 0
vn -0.9238789 -0.38268495 0
vn -1 0 0
vn 0 -1 0
vn -0.3826957 -0.92387445 0
vn -0.70711259 -0.70710097 0
vn -0.9238789 -0.38268495 0
vn -1 0 0
vn 0 -1 0
vn -0.3826957 -0.92387445 0
vn -0.70711259 -0.70710097 0
vn -0.9238789 -0.38268495 0
vn -1 0 0
vn 0 -1 0
vn -0.3826957 -0.92387445 0
vn -0.70711259 -0.70710097 0
vn -0.9238789 -0.38268495 0
vn -1 0 0
vn 0 -1 0
vn -0.3826957 -0.92387445 0
vn -0.70711259 -0.70710097 0
vn -0.9238789 -0.38268495 0
vn -1 0 0
vn 0 -1 0
vn -0.3826957 -0.92387445 0
vn -0.70711259 -0.70710097 0
vn -0.9238789 -0.38268495 0
vn -1 0 0
vn 0 -1 0
vn -0.3826957 -0.92387445 0
vn -0.70711259 -0.70710097 0
vn -0.9238789 -0.38268495 0
vn -1 0 0
vn 0 -1 0
vn -0.3826957 -0.92387445 0
vn -0.70711259 -0.70710097 0
vn -0.9238789 -0.38268495 0
vn -1 0 0
vn 0 -1 0
vn -0.3826957 -0.92387445 0
vn -0.70711259 -0.70710097 0
vn -0.9238789 -0.38268495 0
vn -1 0 0
vn 0 -1 0
vn -0.3826957 -0.92387445 0
vn -0.70711259 -0.70710097 0
vn -0.9238789 -0.38268495 0
vn -1 0 0
vn 0 -1 0
vn 0 -1 0
vn -0.3826957 -0.92387445 0
vn -0.3826957 -0.92387445 0
vn -0.70711259 -0.70710097 0
vn -0.9238789 -0.38268495 0
vn -1 0 0
vn 0 -1 0
vn 0 -1 0
vn -0.3826957 -0.92387445 0
vn -0.3826957 -0.92387445 0
vn -0.70711259 -0.70710097 0
vn -0.9238789 -0.38268495 0
vn -1 0 0
vn 0 -1 0
vn -0.3826957 -0.92387445 0
vn -0.70711259 -0.70710097 0
vn -0.9238789 -0.38268495 0
vn -1 0 0
vn 0 -1 0
vn -0.3826957 -0.92387445 0
vn -0.70711259 -0.70710097 0
vn 0 -1 0
vn -0.3826957 -0.92387445 0
vn -0.9238789 -0.38268495 0
vn -1 0 0
vn -0.70711259 -0.70710097 0
vn 0 1 0
vn -0.3826957 0.92387445 0
vn -0.9238789 0.38268495 0
vn -1 0 0
vn -0.70711259 0.70710097 0
vn 0 1 0
vn -0.3826957 0.92387445 0
vn -0.9238789 0.38268495 0
vn -1 0 0
vn -0.70711259 0.70710097 0
vn 0 1 0
vn -0.3826957 0.92387445 0
vn -0.9238789 0.38268495 0
vn -1 0 0
vn -0.70711259 0.70710097 0
vn 0 1 0
vn 0 1 0
vn -0.3826957 0.92387445 0
vn -0.3826957 0.92387445 0
vn -0.9238789 0.38268495 0
vn -1 0 0
vn -0.70711259 0.70710097 0
vn 0 1 0
vn -0.3826957 0.92387445 0
vn -0.9238789 0.38268495 0
vn -1 0 0
vn -0.70711259 0.70710097 0
vn 0 1 0
vn -0.3826957 0.92387445 0
vn -0.9238789 0.38268495 0
vn -1 0 0
vn -0.70711259 0.70710097 0
vn 0 1 0
vn -0.3826957 0.92387445 0
vn -0.9238789 0.38268495 0
vn -1 0 0
vn -0.70711259 0.70710097 0
vn 0 1 0
vn -0.3826957 0.92387445 0
vn -0.9238789 0.38268495 0
vn -1 0 0
vn -0.70711259 0.70710097 0
vn 0 1 0
vn -0.3826957 0.92387445 0
vn -0.9238789 0.38268495 0
vn -1 0 0
vn -0.70711259 0.70710097 0
vn 0 1 0
vn 0 1 0
vn -0.3826957 0.92387445 0
vn -0.3826957 0.92387445 0
vn -0.9238789 0.38268495 0
vn -0.9238789 0.38268495 0
vn -1 0 0
vn -1 0 0
vn -0.70711259 0.70710097 0
vn 0 1 0
vn -0.3826957 0.92387445 0
vn -0.9238789 0.38268495 0
vn -1 0 0
vn -0.70711259 0.70710097 0
vn 0 1 0
vn -0.3826957 0.92387445 0
vn -0.9238789 0.38268495 0
vn -1 0 0
vn -0.70711259 0.70710097 0
vn 0 1 0
vn -0.3826957 0.92387445 0
vn -0.9238789 0.38268495 0
vn -1 0 0
vn -0.70711259 0.70710097 0
vn 0 1 0
vn -0.3826957 0.92387445 0
vn -0.9238789 0.38268495 0
vn -1 0 0
vn -0.70711259 0.70710097 0
vn 0 1 0
vn 0 1 0
vn -0.3826957 0.92387445 0
vn -0.3826957 0.92387445 0
vn -0.9238789 0.38268495 0
vn -1 0 0
vn -0.70711259 0.70710097 0
vn 0 1 0
vn -0.3826957 0.92387445 0
vn -0.9238789 0.38268495 0
vn -1 0 0
vn -0.70711259 0.70710097 0
vn 0 1 0
vn -0.3826957 0.92387445 0
vn -0.9238789 0.38268495 0
vn -1 0 0
vn -0.70711259 0.70710097 0
vn 0 1 0
vn -0.3826957 0.92387445 0
vn -0.9238789 0.38268495 0
vn -1 0 0
vn -0.70711259 0.70710097 0
vn 0 1 0
vn -0.3826957 0.92387445 0
vn -0.9238789 0.38268495 0
vn -1 0 0
vn -0.70711259 0.70710097 0
vn 0 1 0
vn 0 1 0
vn -0.3826957 0.92387445 0
vn -0.3826957 0.92387445 0
vn -0.9238789 0.38268495 0
vn -0.9238789 0.38268495 0
vn -1 0 0
vn -1 0 0
vn -0.70711259 0.70710097 0
vn 0 1 0
vn -0.3826957 0.92387445 0
vn -0.9238789 0.38268495 0
vn -0.9238789 0.38268495 0
vn -1 0 0
vn -1 0 0
vn -0.70711259 0.70710097 0
vn 0 1 0
vn -0.3826957 0.92387445 0
vn -0.9238789 0.38268495 0
vn -0.9238789 0.38268495 0
vn -1 0 0
vn -1 0 0
vn -0.70711259 0.70710097 0
vn -0.9238789 0.38268495 0
vn -1 0 0
vn 0 1 0
vn 0 1 0
vn -0.3826957 0.92387445 0
vn -0.3826957 0.92387445 0
vn -0.70711259 0.70710097 0
usemtl surface_4
f 28/28/28 108/108/108 2/2/2
f 28/28/28 284/284/284 108/108/108
f 51/51/51 131/131/131 53/53/53
f 51/51/51 116/116/116 131/131/131
f 283/283/283 76/76/76 107/107/107
f 283/283/283 100/100/100 76/76/76
f 53/53/53 137/137/137 54/54/54
f 53/53/53 131/131/131 137/137/137
f 123/123/123 53/53/53 532/532/532
f 123/123/123 51/51/51 53/53/53
f 531/531/531 54/54/54 522/522/522
f 531/531/531 53/53/53 54/54/54
f 522/522/522 55/55/55 515/515/515
f 522/522/522 54/54/54 55/55/55
f 515/515/515 56/56/56 507/507/507
f 515/515/515 55/55/55 56/56/56
f 506/506/506 57/57/57 501/501/501
f 506/506/506 56/56/56 57/57/57
f 501/501/501 58/58/58 496/496/496
f 501/501/501 57/57/57 58/58/58
f 496/496/496 59/59/59 491/491/491
f 496/496/496 58/58/58 59/59/59
f 491/491/491 60/60/60 486/486/486
f 491/491/491 59/59/59 60/60/60
f 486/486/486 61/61/61 480/480/480
f 486/486/486 60/60/60 61/61/61
f 479/479/479 62/62/62 474/474/474
f 479/479/479 61/61/61 62/62/62
f 474/474/474 63/63/63 469/469/469
f 474/474/474 62/62/62 63/63/63
f 469/469/469 64/64/64 464/464/464
f 469/469/469 63/63/63 64/64/64
f 464/464/464 65/65/65 459/459/459
f 464/464/464 64/64/64 65/65/65
f 459/459/459 66/66/66 451/451/451
f 459/459/459 65/65/65 66/66/66
f 450/450/450 67/67/67 445/445/445
f 450/450/450 66/66/66 67/67/67
f 445/445/445 68/68/68 440/440/440
f 445/445/445 67/67/67 68/68/68
f 440/440/440 69/69/69 435/435/435
f 440/440/440 68/68/68 69/69/69
f 435/435/435 70/70/70 430/430/430
f 435/435/435 69/69/69 70/70/70
f 430/430/430 71/71/71 425/425/425
f 430/430/430 70/70/70 71/71/71
f 425/425/425 72/72/72 418/418/418
f 425/425/425 71/71/71 72/72/72
f 419/419/419 73/73/73 413/413/413
f 419/419/419 72/72/72 73/73/73
f 413/413/413 74/74/74 408/408/408
f 413/413/413 73/73/73 74/74/74
f 114/114/114 78/78/78 401/401/401
f 114/114/114 77/77/77 78/78/78
f 408/408/408 75/75/75 403/403/403
f 408/408/408 74/74/74 75/75/75
f 401/401/401 79/79/79 394/394/394
f 401/401/401 78/78/78 79/79/79
f 394/394/394 80/80/80 389/389/389
f 394/394/394 79/79/79 80/80/80
f 389/389/389 81/81/81 382/382/382
f 389/389/389 80/80/80 81/81/81
f 382/382/382 82/82/82 375/375/375
f 382/382/382 81/81/81 82/82/82
f 375/375/375 83/83/83 370/370/370
f 375/375/375 82/82/82 83/83/83
f 370/370/370 84/84/84 365/365/365
f 370/370/370 83/83/83 84/84/84
f 365/365/365 85/85/85 360/360/360
f 365/365/365 84/84/84 85/85/85
f 360/360/360 86/86/86 355/355/355
f 360/360/360 85/85/85 86/86/86
f 355/355/355 87/87/87 350/350/350
f 355/355/355 86/86/86 87/87/87
f 350/350/350 88/88/88 345/345/345
f 350/350/350 87/87/87 88/88/88
f 345/345/345 89/89/89 340/340/340
f 345/345/345 88/88/88 89/89/89
f 340/340/340 90/90/90 335/335/335
f 340/340/340 89/89/89 90/90/90
f 335/335/335 91/91/91 330/330/330
f 335/335/335 90/90/90 91/91/91
f 330/330/330 92/92/92 325/325/325
f 330/330/330 91/91/91 92/92/92
f 325/325/325 93/93/93 320/320/320
f 325/325/325 92/92/92 93/93/93
f 320/320/320 94/94/94 315/315/315
f 320/320/320 93/93/93 94/94/94
f 315/315/315 95/95/95 310/310/310
f 315/315/315 94/94/94 95/95/95
f 310/310/310 96/96/96 305/305/305
f 310/310/310 95/95/95 96/96/96
f 305/305/305 97/97/97 300/300/300
f 305/305/305 96/96/96 97/97/97
f 300/300/300 98/98/98 293/293/293
f 300/300/300 97/97/97 98/98/98
f 293/293/293 99/99/99 288/288/288
f 293/293/293 98/98/98 99/99/99
f 75/75/75 103/103/103 52/52/52
f 75/75/75 279/279/279 103/103/103
f 288/288/288 100/100/100 283/283/283
f 288/288/288 99/99/99 100/100/100
f 74/74/74 279/279/279 75/75/75
f 74/74/74 271/271/271 279/279/279
f 73/73/73 270/270/270 74/74/74
f 73/73/73 264/264/264 270/270/270
f 72/72/72 263/263/263 73/73/73
f 72/72/72 257/257/257 263/263/263
f 71/71/71 256/256/256 72/72/72
f 71/71/71 250/250/250 256/256/256
f 70/70/70 249/249/249 71/71/71
f 70/70/70 243/243/243 249/249/249
f 69/69/69 242/242/242 70/70/70
f 69/69/69 236/236/236 242/242/242
f 68/68/68 235/235/235 69/69/69
f 68/68/68 229/229/229 235/235/235
f 67/67/67 228/228/228 68/68/68
f 67/67/67 221/221/221 228/228/228
f 66/66/66 221/221/221 67/67/67
f 66/66/66 216/216/216 221/221/221
f 65/65/65 216/216/216 66/66/66
f 65/65/65 211/211/211 216/216/216
f 64/64/64 211/211/211 65/65/65
f 64/64/64 205/205/205 211/211/211
f 63/63/63 204/204/204 64/64/64
f 63/63/63 199/199/199 204/204/204
f 62/62/62 199/199/199 63/63/63
f 62/62/62 194/194/194 199/199/199
f 61/61/61 194/194/194 62/62/62
f 61/61/61 189/189/189 194/194/194
f 60/60/60 189/189/189 61/61/61
f 60/60/60 181/181/181 189/189/189
f 59/59/59 180/180/180 60/60/60
f 59/59/59 174/174/174 180/180/180
f 58/58/58 173/173/173 59/59/59
f 58/58/58 167/167/167 173/173/173
f 57/57/57 166/166/166 58/58/58
f 57/57/57 160/160/160 166/166/166
f 56/56/56 159/159/159 57/57/57
f 56/56/56 153/153/153 159/159/159
f 55/55/55 152/152/152 56/56/56
f 55/55/55 146/146/146 152/152/152
f 54/54/54 145/145/145 55/55/55
f 54/54/54 136/136/136 145/145/145
f 77/77/77 530/530/530 78/78/78
f 77/77/77 122/122/122 530/530/530
f 6/6/6 134/134/134 5/5/5
f 6/6/6 142/142/142 134/134/134
f 7/7/7 143/143/143 6/6/6
f 7/7/7 150/150/150 143/143/143
f 8/8/8 150/150/150 7/7/7
f 8/8/8 157/157/157 150/150/150
f 9/9/9 157/157/157 8/8/8
f 9/9/9 164/164/164 157/157/157
f 10/10/10 164/164/164 9/9/9
f 10/10/10 171/171/171 164/164/164
f 11/11/11 171/171/171 10/10/10
f 11/11/11 178/178/178 171/171/171
f 12/12/12 178/178/178 11/11/11
f 12/12/12 186/186/186 178/178/178
f 13/13/13 187/187/187 12/12/12
f 13/13/13 192/192/192 187/187/187
f 14/14/14 192/192/192 13/13/13
f 14/14/14 197/197/197 192/192/192
f 15/15/15 197/197/197 14/14/14
f 15/15/15 202/202/202 197/197/197
f 16/16/16 202/202/202 15/15/15
f 16/16/16 209/209/209 202/202/202
f 17/17/17 209/209/209 16/16/16
f 17/17/17 214/214/214 209/209/209
f 18/18/18 214/214/214 17/17/17
f 18/18/18 219/219/219 214/214/214
f 19/19/19 219/219/219 18/18/18
f 19/19/19 225/225/225 219/219/219
f 20/20/20 226/226/226 19/19/19
f 20/20/20 233/233/233 226/226/226
f 21/21/21 233/233/233 20/20/20
f 21/21/21 240/240/240 233/233/233
f 22/22/22 240/240/240 21/21/21
f 22/22/22 247/247/247 240/240/240
f 23/23/23 247/247/247 22/22/22
f 23/23/23 254/254/254 247/247/247
f 24/24/24 254/254/254 23/23/23
f 24/24/24 261/261/261 254/254/254
f 25/25/25 261/261/261 24/24/24
f 25/25/25 268/268/268 261/261/261
f 26/26/26 268/268/268 25/25/25
f 26/26/26 275/275/275 268/268/268
f 27/27/27 275/275/275 26/26/26
f 27/27/27 278/278/278 275/275/275
f 99/99/99 406/406/406 100/100/100
f 99/99/99 411/411/411 406/406/406
f 98/98/98 411/411/411 99/99/99
f 98/98/98 416/416/416 411/411/411
f 97/97/97 416/416/416 98/98/98
f 97/97/97 423/423/423 416/416/416
f 96/96/96 423/423/423 97/97/97
f 96/96/96 428/428/428 423/423/423
f 95/95/95 428/428/428 96/96/96
f 95/95/95 433/433/433 428/428/428
f 94/94/94 433/433/433 95/95/95
f 94/94/94 438/438/438 433/433/433
f 93/93/93 438/438/438 94/94/94
f 93/93/93 443/443/443 438/438/438
f 92/92/92 443/443/443 93/93/93
f 92/92/92 448/448/448 443/443/443
f 91/91/91 448/448/448 92/92/92
f 91/91/91 456/456/456 448/448/448
f 90/90/90 457/457/457 91/91/91
f 90/90/90 462/462/462 457/457/457
f 89/89/89 462/462/462 90/90/90
f 89/89/89 467/467/467 462/462/462
f 88/88/88 467/467/467 89/89/89
f 88/88/88 472/472/472 467/467/467
f 87/87/87 472/472/472 88/88/88
f 87/87/87 477/477/477 472/472/472
f 86/86/86 477/477/477 87/87/87
f 86/86/86 484/484/484 477/477/477
f 85/85/85 484/484/484 86/86/86
f 85/85/85 489/489/489 484/484/484
f 84/84/84 489/489/489 85/85/85
f 84/84/84 494/494/494 489/489/489
f 83/83/83 494/494/494 84/84/84
f 83/83/83 499/499/499 494/494/494
f 82/82/82 499/499/499 83/83/83
f 82/82/82 504/504/504 499/499/499
f 81/81/81 504/504/504 82/82/82
f 81/81/81 512/512/512 504/504/504
f 80/80/80 513/513/513 81/81/81
f 80/80/80 519/519/519 513/513/513
f 79/79/79 520/520/520 80/80/80
f 79/79/79 526/526/526 520/520/520
f 78/78/78 527/527/527 79/79/79
f 78/78/78 530/530/530 527/527/527
f 403/403/403 52/52/52 126/126/126
f 403/403/403 75/75/75 52/52/52
f 100/100/100 129/129/129 76/76/76
f 100/100/100 406/406/406 129/129/129
f 29/29/29 284/284/284 28/28/28
f 29/29/29 289/289/289 284/284/284
f 30/30/30 289/289/289 29/29/29
f 30/30/30 294/294/294 289/289/289
f 31/31/31 295/295/295 30/30/30
f 31/31/31 301/301/301 295/295/295
f 32/32/32 301/301/301 31/31/31
f 32/32/32 306/306/306 301/301/301
f 33/33/33 306/306/306 32/32/32
f 33/33/33 311/311/311 306/306/306
f 34/34/34 311/311/311 33/33/33
f 34/34/34 316/316/316 311/311/311
f 35/35/35 316/316/316 34/34/34
f 35/35/35 321/321/321 316/316/316
f 36/36/36 321/321/321 35/35/35
f 36/36/36 326/326/326 321/321/321
f 37/37/37 326/326/326 36/36/36
f 37/37/37 331/331/331 326/326/326
f 38/38/38 331/331/331 37/37/37
f 38/38/38 336/336/336 331/331/331
f 39/39/39 336/336/336 38/38/38
f 39/39/39 341/341/341 336/336/336
f 40/40/40 341/341/341 39/39/39
f 40/40/40 346/346/346 341/341/341
f 41/41/41 346/346/346 40/40/40
f 41/41/41 351/351/351 346/346/346
f 42/42/42 351/351/351 41/41/41
f 42/42/42 356/356/356 351/351/351
f 43/43/43 356/356/356 42/42/42
f 43/43/43 361/361/361 356/356/356
f 44/44/44 361/361/361 43/43/43
f 44/44/44 366/366/366 361/361/361
f 45/45/45 366/366/366 44/44/44
f 45/45/45 371/371/371 366/366/366
f 46/46/46 371/371/371 45/45/45
f 46/46/46 376/376/376 371/371/371
f 47/47/47 377/377/377 46/46/46
f 47/47/47 383/383/383 377/377/377
f 48/48/48 384/384/384 47/47/47
f 48/48/48 390/390/390 384/384/384
f 49/49/49 390/390/390 48/48/48
f 49/49/49 395/395/395 390/390/390
f 50/50/50 395/395/395 49/49/49
f 50/50/50 398/398/398 395/395/395
f 5/5/5 119/119/119 3/3/3
f 5/5/5 134/134/134 119/119/119
f 4/4/4 398/398/398 50/50/50
f 4/4/4 111/111/111 398/398/398
f 280/280/280 105/105/105 104/104/104
f 280/280/280 281/281/281 105/105/105
f 281/281/281 101/101/101 105/105/105
f 281/281/281 277/277/277 101/101/101
f 400/400/400 115/115/115 113/113/113
f 400/400/400 402/402/402 115/115/115
f 402/402/402 112/112/112 115/115/115
f 402/402/402 399/399/399 112/112/112
f 534/534/534 125/125/125 124/124/124
f 534/534/534 535/535/535 125/125/125
f 535/535/535 121/121/121 125/125/125
f 535/535/535 529/529/529 121/121/121
f 117/117/117 135/135/135 132/132/132
f 117/117/117 120/120/120 135/135/135
f 120/120/120 133/133/133 135/135/135
f 120/120/120 118/118/118 133/133/133
f 132/132/132 144/144/144 139/139/139
f 132/132/132 135/135/135 144/144/144
f 135/135/135 140/140/140 144/144/144
f 135/135/135 133/133/133 140/140/140
f 138/138/138 151/151/151 147/147/147
f 138/138/138 144/144/144 151/151/151
f 144/144/144 149/149/149 151/151/151
f 144/144/144 141/141/141 149/149/149
f 148/148/148 158/158/158 154/154/154
f 148/148/148 151/151/151 158/158/158
f 151/151/151 156/156/156 158/158/158
f 151/151/151 149/149/149 156/156/156
f 155/155/155 165/165/165 161/161/161
f 155/155/155 158/158/158 165/165/165
f 158/158/158 163/163/163 165/165/165
f 158/158/158 156/156/156 163/163/163
f 162/162/162 172/172/172 168/168/168
f 162/162/162 165/165/165 172/172/172
f 165/165/165 170/170/170 172/172/172
f 165/165/165 163/163/163 170/170/170
f 169/169/169 179/179/179 175/175/175
f 169/169/169 172/172/172 179/179/179
f 172/172/172 177/177/177 179/179/179
f 172/172/172 170/170/170 177/177/177
f 176/176/176 188/188/188 182/182/182
f 176/176/176 179/179/179 188/188/188
f 179/179/179 184/184/184 188/188/188
f 179/179/179 177/177/177 184/184/184
f 183/183/183 193/193/193 190/190/190
f 183/183/183 188/188/188 193/193/193
f 188/188/188 191/191/191 193/193/193
f 188/188/188 185/185/185 191/191/191
f 190/190/190 198/198/198 195/195/195
f 190/190/190 193/193/193 198/198/198
f 193/193/193 196/196/196 198/198/198
f 193/193/193 191/191/191 196/196/196
f 195/195/195 203/203/203 200/200/200
f 195/195/195 198/198/198 203/203/203
f 198/198/198 201/201/201 203/203/203
f 198/198/198 196/196/196 201/201/201
f 200/200/200 210/210/210 206/206/206
f 200/200/200 203/203/203 210/210/210
f 203/203/203 208/208/208 210/210/210
f 203/203/203 201/201/201 208/208/208
f 207/207/207 215/215/215 212/212/212
f 207/207/207 210/210/210 215/215/215
f 210/210/210 213/213/213 215/215/215
f 210/210/210 208/208/208 213/213/213
f 212/212/212 220/220/220 217/217/217
f 212/212/212 215/215/215 220/220/220
f 215/215/215 218/218/218 220/220/220
f 215/215/215 213/213/213 218/218/218
f 217/217/217 227/227/227 222/222/222
f 217/217/217 220/220/220 227/227/227
f 220/220/220 223/223/223 227/227/227
f 220/220/220 218/218/218 223/223/223
f 222/222/222 234/234/234 230/230/230
f 222/222/222 227/227/227 234/234/234
f 227/227/227 232/232/232 234/234/234
f 227/227/227 224/224/224 232/232/232
f 231/231/231 241/241/241 237/237/237
f 231/231/231 234/234/234 241/241/241
f 234/234/234 239/239/239 241/241/241
f 234/234/234 232/232/232 239/239/239
f 238/238/238 248/248/248 244/244/244
f 238/238/238 241/241/241 248/248/248
f 241/241/241 246/246/246 248/248/248
f 241/241/241 239/239/239 246/246/246
f 245/245/245 255/255/255 251/251/251
f 245/245/245 248/248/248 255/255/255
f 248/248/248 253/253/253 255/255/255
f 248/248/248 246/246/246 253/253/253
f 252/252/252 262/262/262 258/258/258
f 252/252/252 255/255/255 262/262/262
f 255/255/255 260/260/260 262/262/262
f 255/255/255 253/253/253 260/260/260
f 259/259/259 269/269/269 265/265/265
f 259/259/259 262/262/262 269/269/269
f 262/262/262 267/267/267 269/269/269
f 262/262/262 260/260/260 267/267/267
f 266/266/266 276/276/276 272/272/272
f 266/266/266 269/269/269 276/276/276
f 269/269/269 274/274/274 276/276/276
f 269/269/269 267/267/267 274/274/274
f 273/273/273 281/281/281 280/280/280
f 273/273/273 276/276/276 281/281/281
f 276/276/276 277/277/277 281/281/281
f 276/276/276 274/274/274 277/277/277
f 106/106/106 286/286/286 282/282/282
f 106/106/106 110/110/110 286/286/286
f 110/110/110 285/285/285 286/286/286
f 110/110/110 109/109/109 285/285/285
f 282/282/282 291/291/291 287/287/287
f 282/282/282 286/286/286 291/291/291
f 286/286/286 290/290/290 291/291/291
f 286/286/286 285/285/285 290/290/290
f 287/287/287 298/298/298 292/292/292
f 287/287/287 291/291/291 298/298/298
f 291/291/291 296/296/296 298/298/298
f 291/291/291 290/290/290 296/296/296
f 292/292/292 303/303/303 299/299/299
f 292/292/292 298/298/298 303/303/303
f 298/298/298 302/302/302 303/303/303
f 298/298/298 297/297/297 302/302/302
f 299/299/299 308/308/308 304/304/304
f 299/299/299 303/303/303 308/308/308
f 303/303/303 307/307/307 308/308/308
f 303/303/303 302/302/302 307/307/307
f 304/304/304 313/313/313 309/309/309
f 304/304/304 308/308/308 313/313/313
f 308/308/308 312/312/312 313/313/313
f 308/308/308 307/307/307 312/312/312
f 309/309/309 318/318/318 314/314/314
f 309/309/309 313/313/313 318/318/318
f 313/313/313 317/317/317 318/318/318
f 313/313/313 312/312/312 317/317/317
f 314/314/314 323/323/323 319/319/319
f 314/314/314 318/318/318 323/323/323
f 318/318/318 322/322/322 323/323/323
f 318/318/318 317/317/317 322/322/322
f 319/319/319 328/328/328 324/324/324
f 319/319/319 323/323/323 328/328/328
f 323/323/323 327/327/327 328/328/328
f 323/323/323 322/322/322 327/327/327
f 324/324/324 333/333/333 329/329/329
f 324/324/324 328/328/328 333/333/333
f 328/328/328 332/332/332 333/333/333
f 328/328/328 327/327/327 332/332/332
f 329/329/329 338/338/338 334/334/334
f 329/329/329 333/333/333 338/338/338
f 333/333/333 337/337/337 338/338/338
f 333/333/333 332/332/332 337/337/337
f 334/334/334 343/343/343 339/339/339
f 334/334/334 338/338/338 343/343/343
f 338/338/338 342/342/342 343/343/343
f 338/338/338 337/337/337 342/342/342
f 339/339/339 348/348/348 344/344/344
f 339/339/339 343/343/343 348/348/348
f 343/343/343 347/347/347 348/348/348
f 343/343/343 342/342/342 347/347/347
f 344/344/344 353/353/353 349/349/349
f 344/344/344 348/348/348 353/353/353
f 348/348/348 352/352/352 353/353/353
f 348/348/348 347/347/347 352/352/352
f 349/349/349 358/358/358 354/354/354
f 349/349/349 353/353/353 358/358/358
f 353/353/353 357/357/357 358/358/358
f 353/353/353 352/352/352 357/357/357
f 354/354/354 363/363/363 359/359/359
f 354/354/354 358/358/358 363/363/363
f 358/358/358 362/362/362 363/363/363
f 358/358/358 357/357/357 362/362/362
f 359/359/359 368/368/368 364/364/364
f 359/359/359 363/363/363 368/368/368
f 363/363/363 367/367/367 368/368/368
f 363/363/363 362/362/362 367/367/367
f 364/364/364 373/373/373 369/369/369
f 364/364/364 368/368/368 373/373/373
f 368/368/368 372/372/372 373/373/373
f 368/368/368 367/367/367 372/372/372
f 369/369/369 380/380/380 374/374/374
f 369/369/369 373/373/373 380/380/380
f 373/373/373 378/378/378 380/380/380
f 373/373/373 372/372/372 378/378/378
f 374/374/374 387/387/387 381/381/381
f 374/374/374 380/380/380 387/387/387
f 380/380/380 385/385/385 387/387/387
f 380/380/380 379/379/379 385/385/385
f 381/381/381 392/392/392 388/388/388
f 381/381/381 387/387/387 392/392/392
f 387/387/387 391/391/391 392/392/392
f 387/387/387 386/386/386 391/391/391
f 388/388/388 397/397/397 393/393/393
f 388/388/388 392/392/392 397/397/397
f 392/392/392 396/396/396 397/397/397
f 392/392/392 391/391/391 396/396/396
f 393/393/393 402/402/402 400/400/400
f 393/393/393 397/397/397 402/402/402
f 397/397/397 399/399/399 402/402/402
f 397/397/397 396/396/396 399/399/399
f 127/127/127 407/407/407 404/404/404
f 127/127/127 130/130/130 407/407/407
f 130/130/130 405/405/405 407/407/407
f 130/130/130 128/128/128 405/405/405
f 404/404/404 412/412/412 409/409/409
f 404/404/404 407/407/407 412/412/412
f 407/407/407 410/410/410 412/412/412
f 407/407/407 405/405/405 410/410/410
f 409/409/409 417/417/417 414/414/414
f 409/409/409 412/412/412 417/417/417
f 412/412/412 415/415/415 417/417/417
f 412/412/412 410/410/410 415/415/415
f 414/414/414 424/424/424 421/421/421
f 414/414/414 417/417/417 424/424/424
f 417/417/417 422/422/422 424/424/424
f 417/417/417 415/415/415 422/422/422
f 420/420/420 429/429/429 426/426/426
f 420/420/420 424/424/424 429/429/429
f 424/424/424 427/427/427 429/429/429
f 424/424/424 422/422/422 427/427/427
f 426/426/426 434/434/434 431/431/431
f 426/426/426 429/429/429 434/434/434
f 429/429/429 432/432/432 434/434/434
f 429/429/429 427/427/427 432/432/432
f 431/431/431 439/439/439 436/436/436
f 431/431/431 434/434/434 439/439/439
f 434/434/434 437/437/437 439/439/439
f 434/434/434 432/432/432 437/437/437
f 436/436/436 444/444/444 441/441/441
f 436/436/436 439/439/439 444/444/444
f 439/439/439 442/442/442 444/444/444
f 439/439/439 437/437/437 442/442/442
f 441/441/441 449/449/449 446/446/446
f 441/441/441 444/444/444 449/449/449
f 444/444/444 447/447/447 449/449/449
f 444/444/444 442/442/442 447/447/447
f 446/446/446 458/458/458 452/452/452
f 446/446/446 449/449/449 458/458/458
f 449/449/449 454/454/454 458/458/458
f 449/449/449 447/447/447 454/454/454
f 453/453/453 463/463/463 460/460/460
f 453/453/453 458/458/458 463/463/463
f 458/458/458 461/461/461 463/463/463
f 458/458/458 455/455/455 461/461/461
f 460/460/460 468/468/468 465/465/465
f 460/460/460 463/463/463 468/468/468
f 463/463/463 466/466/466 468/468/468
f 463/463/463 461/461/461 466/466/466
f 465/465/465 473/473/473 470/470/470
f 465/465/465 468/468/468 473/473/473
f 468/468/468 471/471/471 473/473/473
f 468/468/468 466/466/466 471/471/471
f 470/470/470 478/478/478 475/475/475
f 470/470/470 473/473/473 478/478/478
f 473/473/473 476/476/476 478/478/478
f 473/473/473 471/471/471 476/476/476
f 475/475/475 485/485/485 481/481/481
f 475/475/475 478/478/478 485/485/485
f 478/478/478 483/483/483 485/485/485
f 478/478/478 476/476/476 483/483/483
f 482/482/482 490/490/490 487/487/487
f 482/482/482 485/485/485 490/490/490
f 485/485/485 488/488/488 490/490/490
f 485/485/485 483/483/483 488/488/488
f 487/487/487 495/495/495 492/492/492
f 487/487/487 490/490/490 495/495/495
f 490/490/490 493/493/493 495/495/495
f 490/490/490 488/488/488 493/493/493
f 492/492/492 500/500/500 497/497/497
f 492/492/492 495/495/495 500/500/500
f 495/495/495 498/498/498 500/500/500
f 495/495/495 493/493/493 498/498/498
f 497/497/497 505/505/505 502/502/502
f 497/497/497 500/500/500 505/505/505
f 500/500/500 503/503/503 505/505/505
f 500/500/500 498/498/498 503/503/503
f 502/502/502 514/514/514 508/508/508
f 502/502/502 505/505/505 514/514/514
f 505/505/505 510/510/510 514/514/514
f 505/505/505 503/503/503 510/510/510
f 509/509/509 521/521/521 516/516/516
f 509/509/509 514/514/514 521/521/521
f 514/514/514 517/517/517 521/521/521
f 514/514/514 511/511/511 517/517/517
f 516/516/516 528/528/528 523/523/523
f 516/516/516 521/521/521 528/528/528
f 521/521/521 524/524/524 528/528/528
f 521/521/521 518/518/518 524/524/524
f 523/523/523 535/535/535 533/533/533
f 523/523/523 528/528/528 535/535/535
f 528/528/528 529/529/529 535/535/535
f 528/528/528 525/525/525 529/529/529
f 1/1/1 278/278/278 27/27/27
f 1/1/1 102/102/102 278/278/278
