# CC0 model adapted from https://polyhaven.com/a/modular_industrial_pipes_01
# Coordinates baked to Z-up; see SOURCES.json for source nodes and transforms.
mtllib industrial_pipe.mtl
o modular_industrial_pipes_01_pipe02
v 1.9494179 -0.00044039223 0.2048088
v 1.9494179 -0.00044039223 0.2048088
v 1.9494179 -0.00044039223 0.2048088
v 1.9494176 -0.038724742 0.19287723
v 1.9494176 -0.038724742 0.19287723
v 1.9494176 -0.066187351 0.16434173
v 1.9494176 -0.066187351 0.16434173
v 1.9494176 -0.077031411 0.12550278
v 1.9494176 -0.077031411 0.12550278
v 1.9494176 -0.067779728 0.08675551
v 1.9494176 -0.067779728 0.08675551
v 1.9494176 -0.039319053 0.056778377
v 1.9494176 -0.039319053 0.056778377
v 1.9494179 -0.00050891758 0.044494397
v 1.9494179 -0.00050891758 0.044494397
v 1.9494179 -0.00050891758 0.044494397
v 1.9494179 0.04116144 0.054798353
v 1.9494179 0.04116144 0.054798353
v 1.9494183 0.072500389 0.084572645
v 1.9494183 0.072500389 0.084572645
v 1.9494183 0.082616584 0.12585376
v 1.9494183 0.082616584 0.12585376
v 1.9494183 0.071282476 0.16616036
v 1.9494183 0.071282476 0.16616036
v 1.9494179 0.040885096 0.1952512
v 1.9494179 0.040885096 0.1952512
v 1.999999 -0.062540323 0.23328123
v 1.999999 -0.062540323 0.23328123
v 2 -0.00045576 0.2499978
v 2 -0.00045576 0.2499978
v 2 0.062712273 0.23307949
v 2 0.062712273 0.23307949
v 1.9999996 0.10846635 0.18769079
v 1.9999996 0.10846635 0.18769079
v 1.9999996 0.12499898 0.12545572
v 1.9999996 0.12499898 0.12545572
v 1.9999996 0.10828672 0.063266002
v 1.9999996 0.10828672 0.063266002
v 1.9999994 0.062551928 0.017720283
v 1.9999994 0.062551928 0.017720283
v 1.9999994 -0.00048467238 9.8931479e-08
v 1.9999994 -0.00048467238 9.8931479e-08
v 1.9999994 -0.00048467238 9.8931479e-08
v 1.9999984 -0.062314987 0.017703383
v 1.9999984 -0.062314987 0.017703383
v 1.9999988 -0.1081722 0.063227873
v 1.9999988 -0.1081722 0.063227873
v 1.9999988 -0.125 0.12552101
v 1.9999988 -0.125 0.12552101
v 1.9999988 -0.10804962 0.18773859
v 1.9999988 -0.10804962 0.18773859
v 4.4330483e-08 -0.038724304 0.19287839
v 4.4330483e-08 -0.038724304 0.19287839
v 4.1504219e-08 -0.00043972624 0.20480995
v 4.1504219e-08 -0.00043972624 0.20480995
v -2.6589999e-07 -0.066186845 0.16434288
v -2.6589999e-07 -0.066186845 0.16434288
v -2.6509945e-07 -0.077030887 0.12550407
v -2.6509945e-07 -0.077030887 0.12550407
v -2.6578243e-07 -0.067779272 0.08675689
v -2.6578243e-07 -0.067779272 0.08675689
v -2.6788349e-07 -0.039318525 0.056779757
v -2.6788349e-07 -0.039318525 0.056779757
v -2.7074858e-07 -0.0005082516 0.044495503
v -2.7074858e-07 -0.0005082516 0.044495503
v -2.738248e-07 0.041161991 0.054799549
v -2.738248e-07 0.041161991 0.054799549
v -1.2000942e-07 0.07250094 0.084573796
v -1.2000942e-07 0.07250094 0.084573796
v -1.2075623e-07 0.082617153 0.12585477
v -1.2075623e-07 0.082617153 0.12585477
v -1.199195e-07 0.071283004 0.16616151
v -1.199195e-07 0.071283004 0.16616151
v 3.8453447e-08 0.040885624 0.19525249
v 3.8453447e-08 0.040885624 0.19525249
v 1.9976312 0.00011798098 0.19555862
v 1.9976312 0.00011798098 0.19555862
v 1.9976305 -0.035119613 0.18615596
v 1.9976305 -0.035119613 0.18615596
v 1.9976303 -0.060747409 0.16049543
v 1.9976303 -0.060747409 0.16049543
v 1.9976303 -0.07031265 0.12546313
v 1.9976303 -0.07031265 0.12546313
v 1.9976305 -0.06083999 0.090427201
v 1.9976305 -0.06083999 0.090427201
v 1.9976305 -0.03488154 0.064717623
v 1.9976305 -0.03488154 0.064717623
v 1.9976309 0.00012378195 0.05468084
v 1.9976309 0.00012378195 0.05468084
v 1.9976309 0.00012378195 0.05468084
v 1.9976309 0.037444615 0.062757355
v 1.9976309 0.037444615 0.062757355
v 1.9976312 0.065519042 0.089331809
v 1.9976312 0.065519042 0.089331809
v 1.9976315 0.07547394 0.12563162
v 1.9976315 0.07547394 0.12563162
v 1.9976312 0.064648825 0.16157645
v 1.9976312 0.064648825 0.16157645
v 1.9976309 0.037556013 0.1881055
v 1.9976309 0.037556013 0.1881055
v 1.8690993 -0.035119177 0.18615614
v 1.8690993 -0.035119177 0.18615614
v 1.8691003 0.0001176541 0.19555848
v 1.8691003 0.0001176541 0.19555848
v 1.8690996 0.037556956 0.18810509
v 1.8690996 0.037556956 0.18810509
v 1.8690999 0.064649092 0.16157613
v 1.8690999 0.064649092 0.16157613
v 1.8691003 0.075474008 0.12563162
v 1.8691003 0.075474008 0.12563162
v 1.8690999 0.065519029 0.089331762
v 1.8690999 0.065519029 0.089331762
v 1.8690996 0.037445028 0.062757629
v 1.8690996 0.037445028 0.062757629
v 1.8690999 0.00012343196 0.054680885
v 1.8690999 0.00012343196 0.054680885
v 1.8690999 0.00012343196 0.054680885
v 1.8690993 -0.034881545 0.064717713
v 1.8690993 -0.034881545 0.064717713
v 1.8690993 -0.060840063 0.090427246
v 1.8690993 -0.060840063 0.090427246
v 1.8690989 -0.070312627 0.12546364
v 1.8690989 -0.070312627 0.12546364
v 1.8690989 -0.060747847 0.16049469
v 1.8690989 -0.060747847 0.16049469
v 1.8690993 0.0015819938 0.12540861
v 1.9598439 -0.00045412017 0.24549471
v 1.9598439 -0.00045412017 0.24549471
v 1.9687176 -0.00045566839 0.24999756
v 1.9687176 -0.00045566839 0.24999756
v 1.9687174 -0.06253836 0.23328201
v 1.9687174 -0.06253836 0.23328201
v 1.9598835 -0.060247625 0.22939619
v 1.9598835 -0.060247625 0.22939619
v 1.968717 -0.10804958 0.18773827
v 1.968717 -0.10804958 0.18773827
v 1.9599055 -0.10410295 0.18553247
v 1.9599055 -0.10410295 0.18553247
v 1.968717 -0.12499988 0.12552092
v 1.968717 -0.12499988 0.12552092
v 1.9599049 -0.12047469 0.12551917
v 1.9599049 -0.12047469 0.12551917
v 1.968717 -0.10817269 0.063228471
v 1.968717 -0.10817269 0.063228471
v 1.9598777 -0.10426827 0.065502833
v 1.9598777 -0.10426827 0.065502833
v 1.9687168 -0.062314084 0.017702601
v 1.9687168 -0.062314084 0.017702601
v 1.9598458 -0.060027881 0.021587083
v 1.9598458 -0.060027881 0.021587083
v 1.968718 -0.00048455766 0
v 1.968718 -0.00048455766 0
v 1.968718 -0.00048455766 0
v 1.9598264 -0.00048703082 0.0045011125
v 1.9598264 -0.00048703082 0.0045011125
v 1.9687174 0.062553797 0.01772111
v 1.9687174 0.062553797 0.01772111
v 1.95978 0.060304767 0.021620099
v 1.95978 0.060304767 0.021620099
v 1.9687176 0.10828671 0.063265727
v 1.9687176 0.10828671 0.063265727
v 1.959745 0.10441489 0.065570939
v 1.959745 0.10441489 0.065570939
v 1.9687176 0.12499897 0.12545549
v 1.9687176 0.12499897 0.12545549
v 1.959765 0.12048664 0.12549785
v 1.959765 0.12048664 0.12549785
v 1.9687176 0.10846638 0.18769056
v 1.9687176 0.10846638 0.18769056
v 1.9597824 0.10456355 0.18543071
v 1.9597824 0.10456355 0.18543071
v 1.968718 0.062712287 0.23307935
v 1.968718 0.062712287 0.23307935
v 1.9598042 0.060461604 0.22917867
v 1.9598042 0.060461604 0.22917867
v -1.949418 -0.038723753 0.19287945
v -1.949418 -0.038723753 0.19287945
v -1.9494181 -0.00043940692 0.20481101
v -1.9494181 -0.00043940692 0.20481101
v -1.9494181 -0.00043940692 0.20481101
v -1.949418 -0.06618634 0.16434394
v -1.949418 -0.06618634 0.16434394
v -1.949418 -0.077030409 0.12550499
v -1.949418 -0.077030409 0.12550499
v -1.9494181 -0.067778717 0.086757718
v -1.9494181 -0.067778717 0.086757718
v -1.9494181 -0.039318065 0.056780585
v -1.9494181 -0.039318065 0.056780585
v -1.9494185 -0.00050793227 0.044496609
v -1.9494185 -0.00050793227 0.044496609
v -1.9494185 -0.00050793227 0.044496609
v -1.9494184 0.041162446 0.054800565
v -1.9494184 0.041162446 0.054800565
v -1.9494184 0.072501387 0.084574853
v -1.9494184 0.072501387 0.084574853
v -1.9494184 0.082617586 0.12585597
v -1.9494184 0.082617586 0.12585597
v -1.9494181 0.071283474 0.16616256
v -1.9494181 0.071283474 0.16616256
v -1.9494181 0.040886084 0.19525341
v -1.9494181 0.040886084 0.19525341
v -1.9687174 -0.062537348 0.23328421
v -1.9687174 -0.062537348 0.23328421
v -1.9999988 -0.062539289 0.23328343
v -1.9999988 -0.062539289 0.23328343
v -1.9999996 -0.00045475421 0.25
v -1.9999996 -0.00045475421 0.25
v -1.9687176 -0.00045466093 0.24999978
v -1.9687176 -0.00045466093 0.24999978
v -1.9999989 -0.10804862 0.1877408
v -1.9999989 -0.10804862 0.1877408
v -1.9687174 -0.10804857 0.18774048
v -1.9687174 -0.10804857 0.18774048
v -1.9999991 -0.124999 0.12552322
v -1.9999991 -0.124999 0.12552322
v -1.9687176 -0.12499888 0.12552313
v -1.9687176 -0.12499888 0.12552313
v -1.9999991 -0.1081712 0.063230085
v -1.9999991 -0.1081712 0.063230085
v -1.9687177 -0.10817169 0.063230683
v -1.9687177 -0.10817169 0.063230683
v -1.9999991 -0.062313953 0.017705596
v -1.9999991 -0.062313953 0.017705596
v -1.9687177 -0.062313077 0.017704804
v -1.9687177 -0.062313077 0.017704804
v -2 -0.00048364348 2.3024053e-06
v -2 -0.00048364348 2.3024053e-06
v -2 -0.00048364348 2.3024053e-06
v -1.9687188 -0.00048355021 2.2124676e-06
v -1.9687188 -0.00048355021 2.2124676e-06
v -1.9687188 -0.00048355021 2.2124676e-06
v -1.9999998 0.062552949 0.017722495
v -1.9999998 0.062552949 0.017722495
v -1.9687179 0.062554822 0.017723323
v -1.9687179 0.062554822 0.017723323
v -1.9999996 0.10828773 0.06326821
v -1.9999996 0.10828773 0.06326821
v -1.9687177 0.1082877 0.063267935
v -1.9687177 0.1082877 0.063267935
v -1.9999994 0.125 0.12545793
v -1.9999994 0.125 0.12545793
v -1.9687177 0.12499996 0.1254577
v -1.9687177 0.12499996 0.1254577
v -1.9999994 0.10846738 0.187693
v -1.9999994 0.10846738 0.187693
v -1.9687176 0.10846738 0.18769277
v -1.9687176 0.10846738 0.18769277
v -1.9999993 0.062713307 0.2330817
v -1.9999993 0.062713307 0.2330817
v -1.9687176 0.062713293 0.23308156
v -1.9687176 0.062713293 0.23308156
v -1.9598835 -0.060246614 0.2293984
v -1.9598835 -0.060246614 0.2293984
v -1.9598436 -0.00045311222 0.24549691
v -1.9598436 -0.00045311222 0.24549691
v -1.9599058 -0.10410196 0.18553468
v -1.9599058 -0.10410196 0.18553468
v -1.9599052 -0.12047369 0.12552138
v -1.9599052 -0.12047369 0.12552138
v -1.9598784 -0.10426727 0.065505046
v -1.9598784 -0.10426727 0.065505046
v -1.9598464 -0.06002687 0.021589286
v -1.9598464 -0.06002687 0.021589286
v -1.9598273 -0.0004860229 0.0045033249
v -1.9598273 -0.0004860229 0.0045033249
v -1.9597805 0.060305778 0.021622302
v -1.9597805 0.060305778 0.021622302
v -1.959745 0.10441587 0.065573151
v -1.959745 0.10441587 0.065573151
v -1.9597648 0.12048764 0.12550006
v -1.9597648 0.12048764 0.12550006
v -1.9597822 0.10456455 0.18543291
v -1.9597822 0.10456455 0.18543291
v -1.9598038 0.060462611 0.22918087
v -1.9598038 0.060462611 0.22918087
v -1.9976314 0.00011901004 0.19556083
v -1.9976314 0.00011901004 0.19556083
v -1.9976307 -0.035118584 0.18615817
v -1.9976307 -0.035118584 0.18615817
v -1.8690997 -0.035118209 0.18615827
v -1.8690997 -0.035118209 0.18615827
v -1.8691004 0.00011859737 0.1955606
v -1.8691004 0.00011859737 0.1955606
v -1.9976306 -0.060746376 0.16049764
v -1.9976306 -0.060746376 0.16049764
v -1.8690993 -0.060746881 0.16049681
v -1.8690993 -0.060746881 0.16049681
v -1.9976306 -0.070311638 0.12546534
v -1.9976306 -0.070311638 0.12546534
v -1.8690996 -0.070311661 0.12546576
v -1.8690996 -0.070311661 0.12546576
v -1.997631 -0.060838961 0.090429411
v -1.997631 -0.060838961 0.090429411
v -1.8690998 -0.060839097 0.090429364
v -1.8690998 -0.060839097 0.090429364
v -1.997631 -0.034880536 0.064719831
v -1.997631 -0.034880536 0.064719831
v -1.8690998 -0.034880577 0.064719831
v -1.8690998 -0.034880577 0.064719831
v -1.9976312 0.00012481101 0.054683048
v -1.9976312 0.00012481101 0.054683048
v -1.9976312 0.00012481101 0.054683048
v -1.8691004 0.00012439833 0.054683003
v -1.8691004 0.00012439833 0.054683003
v -1.8691004 0.00012439833 0.054683003
v -1.9976312 0.037445622 0.062759562
v -1.9976312 0.037445622 0.062759562
v -1.8691 0.037445996 0.062759747
v -1.8691 0.037445996 0.062759747
v -1.9976312 0.065520063 0.089334019
v -1.9976312 0.065520063 0.089334019
v -1.8691 0.065519981 0.08933388
v -1.8691 0.065519981 0.08933388
v -1.9976314 0.075474974 0.12563383
v -1.9976314 0.075474974 0.12563383
v -1.8691003 0.075474974 0.12563374
v -1.8691003 0.075474974 0.12563374
v -1.9976311 0.06464985 0.16157866
v -1.9976311 0.06464985 0.16157866
v -1.8690998 0.064650044 0.16157825
v -1.8690998 0.064650044 0.16157825
v -1.9976311 0.037557019 0.18810771
v -1.9976311 0.037557019 0.18810771
v -1.8690998 0.037557924 0.1881072
v -1.8690998 0.037557924 0.1881072
v -1.8690997 0.0015829602 0.12541073
v 0.97470885 -0.00044007078 0.20480936
v 0.97470885 -0.00044007078 0.20480936
v 0.97470855 -0.038724512 0.19287784
v 0.97470855 -0.066187098 0.16434233
v 0.97470855 -0.077031158 0.12550342
v 0.97470855 -0.067779498 0.086756198
v 0.97470855 -0.039318773 0.056779065
v 0.97470885 -0.00050857304 0.044494954
v 0.97470885 -0.00050857304 0.044494954
v 0.97470885 0.041161715 0.054798951
v 0.97470916 0.072500665 0.084573198
v 0.97470916 0.082616873 0.12585426
v 0.97470916 0.071282742 0.16616095
v 0.97470885 0.040885371 0.19525185
v -0.97470897 -0.00043956656 0.20481047
v -0.97470897 -0.00043956656 0.20481047
v -0.9747091 -0.038724033 0.19287894
v -0.9747091 -0.066186597 0.16434343
v -0.97470916 -0.077030662 0.12550453
v -0.97470922 -0.067778997 0.086757304
v -0.97470922 -0.039318295 0.056780171
v -0.97470928 -0.00050809192 0.04449606
v -0.97470928 -0.00050809192 0.04449606
v -0.97470922 0.041162216 0.054800057
v -0.97470922 0.072501157 0.0845743
v -0.97470916 0.08261737 0.12585537
v -0.9747091 0.07128323 0.16616206
v -0.9747091 0.040885872 0.19525295
v 1.958204 0.10049667 0.11253583
v 1.958204 0.10049667 0.11253583
v 1.958204 0.089071361 0.1191073
v 1.958204 0.089071361 0.1191073
v 1.958204 0.08907137 0.13225023
v 1.958204 0.08907137 0.13225023
v 1.958204 0.10049667 0.1388217
v 1.958204 0.10049667 0.1388217
v 1.958204 0.11192198 0.13225023
v 1.958204 0.11192198 0.13225023
v 1.958204 0.11192198 0.1191073
v 1.958204 0.11192198 0.1191073
v 1.9434152 0.10049667 0.11253583
v 1.9434152 0.10049667 0.11253583
v 1.9434152 0.10049667 0.11253583
v 1.9434152 0.089071361 0.1191073
v 1.9434152 0.089071361 0.1191073
v 1.9434152 0.089071361 0.1191073
v 1.9434152 0.089071361 0.13225023
v 1.9434152 0.089071361 0.13225023
v 1.9434152 0.089071361 0.13225023
v 1.9434152 0.10049667 0.1388217
v 1.9434152 0.10049667 0.1388217
v 1.9434152 0.10049667 0.1388217
v 1.9434152 0.11192198 0.13225023
v 1.9434152 0.11192198 0.13225023
v 1.9434152 0.11192198 0.13225023
v 1.9434152 0.11192198 0.1191073
v 1.9434152 0.11192198 0.1191073
v 1.9434152 0.11192198 0.1191073
v 1.9434152 0.10049667 0.12567876
v 1.9600748 0.069177193 0.04320505
v 1.9600748 0.069177193 0.04320505
v 1.9600752 0.057751885 0.049776524
v 1.9600752 0.057751885 0.049776524
v 1.9600752 0.057751885 0.062919463
v 1.9600752 0.057751885 0.062919463
v 1.9600748 0.069177197 0.069490919
v 1.9600748 0.069177197 0.069490919
v 1.9600748 0.080602505 0.062919449
v 1.9600748 0.080602505 0.062919449
v 1.9600748 0.080602505 0.049776515
v 1.9600748 0.080602505 0.049776515
v 1.9452863 0.069177193 0.04320505
v 1.9452863 0.069177193 0.04320505
v 1.9452863 0.069177193 0.04320505
v 1.9452863 0.05775188 0.049776533
v 1.9452863 0.05775188 0.049776533
v 1.9452863 0.05775188 0.049776533
v 1.9452863 0.057751885 0.062919467
v 1.9452863 0.057751885 0.062919467
v 1.9452863 0.057751885 0.062919467
v 1.9452863 0.069177197 0.069490923
v 1.9452863 0.069177197 0.069490923
v 1.9452863 0.069177197 0.069490923
v 1.9452863 0.080602505 0.062919454
v 1.9452863 0.080602505 0.062919454
v 1.9452863 0.080602505 0.062919454
v 1.9452863 0.080602505 0.049776519
v 1.9452863 0.080602505 0.049776519
v 1.9452863 0.080602505 0.049776519
v 1.9452863 0.069177193 0.056347989
v 1.9582765 -0.00014503558 0.014457397
v 1.9582765 -0.00014503558 0.014457397
v 1.9582769 -0.01157034 0.021028857
v 1.9582769 -0.01157034 0.021028857
v 1.9582769 -0.011570339 0.034171796
v 1.9582769 -0.011570339 0.034171796
v 1.9582765 -0.00014503307 0.040743266
v 1.9582765 -0.00014503307 0.040743266
v 1.9582765 0.011280266 0.034171796
v 1.9582765 0.011280266 0.034171796
v 1.9582765 0.011280265 0.021028857
v 1.9582765 0.011280265 0.021028857
v 1.943488 -0.00014503673 0.014457397
v 1.943488 -0.00014503673 0.014457397
v 1.943488 -0.00014503673 0.014457397
v 1.943488 -0.011570341 0.021028857
v 1.943488 -0.011570341 0.021028857
v 1.943488 -0.011570341 0.021028857
v 1.943488 -0.011570339 0.034171805
v 1.943488 -0.011570339 0.034171805
v 1.943488 -0.011570339 0.034171805
v 1.943488 -0.00014503422 0.040743266
v 1.943488 -0.00014503422 0.040743266
v 1.943488 -0.00014503422 0.040743266
v 1.943488 0.011280265 0.034171805
v 1.943488 0.011280265 0.034171805
v 1.943488 0.011280265 0.034171805
v 1.943488 0.011280264 0.021028857
v 1.943488 0.011280264 0.021028857
v 1.943488 0.011280264 0.021028857
v 1.943488 -0.00014503547 0.027600327
v 1.9600752 -0.066011374 0.043205032
v 1.9600752 -0.066011374 0.043205032
v 1.9600752 -0.077436673 0.049776501
v 1.9600752 -0.077436673 0.049776501
v 1.9600752 -0.077436673 0.062919436
v 1.9600752 -0.077436673 0.062919436
v 1.9600752 -0.06601137 0.069490905
v 1.9600752 -0.06601137 0.069490905
v 1.9600752 -0.054586071 0.062919427
v 1.9600752 -0.054586071 0.062919427
v 1.9600752 -0.054586071 0.049776492
v 1.9600752 -0.054586071 0.049776492
v 1.9452863 -0.066011374 0.043205041
v 1.9452863 -0.066011374 0.043205041
v 1.9452863 -0.066011374 0.043205041
v 1.9452863 -0.077436673 0.04977651
v 1.9452863 -0.077436673 0.04977651
v 1.9452863 -0.077436673 0.04977651
v 1.9452863 -0.077436673 0.062919445
v 1.9452863 -0.077436673 0.062919445
v 1.9452863 -0.077436673 0.062919445
v 1.9452863 -0.06601137 0.06949091
v 1.9452863 -0.06601137 0.06949091
v 1.9452863 -0.06601137 0.06949091
v 1.9452863 -0.054586071 0.062919431
v 1.9452863 -0.054586071 0.062919431
v 1.9452863 -0.054586071 0.062919431
v 1.9452863 -0.054586071 0.049776497
v 1.9452863 -0.054586071 0.049776497
v 1.9452863 -0.054586071 0.049776497
v 1.9452863 -0.066011374 0.056347975
v 1.9582044 -0.097330779 0.11253584
v 1.9582044 -0.097330779 0.11253584
v 1.9582044 -0.10875609 0.1191073
v 1.9582044 -0.10875609 0.1191073
v 1.9582044 -0.10875609 0.13225024
v 1.9582044 -0.10875609 0.13225024
v 1.9582044 -0.097330779 0.1388217
v 1.9582044 -0.097330779 0.1388217
v 1.9582044 -0.085905466 0.13225023
v 1.9582044 -0.085905466 0.13225023
v 1.9582044 -0.085905466 0.1191073
v 1.9582044 -0.085905466 0.1191073
v 1.9434156 -0.097330779 0.11253584
v 1.9434156 -0.097330779 0.11253584
v 1.9434156 -0.097330779 0.11253584
v 1.9434156 -0.10875609 0.1191073
v 1.9434156 -0.10875609 0.1191073
v 1.9434156 -0.10875609 0.1191073
v 1.9434156 -0.10875609 0.13225024
v 1.9434156 -0.10875609 0.13225024
v 1.9434156 -0.10875609 0.13225024
v 1.9434156 -0.097330779 0.1388217
v 1.9434156 -0.097330779 0.1388217
v 1.9434156 -0.097330779 0.1388217
v 1.9434156 -0.085905466 0.13225023
v 1.9434156 -0.085905466 0.13225023
v 1.9434156 -0.085905466 0.13225023
v 1.9434156 -0.085905466 0.1191073
v 1.9434156 -0.085905466 0.1191073
v 1.9434156 -0.085905466 0.1191073
v 1.9434156 -0.097330779 0.12567877
v 1.9600752 -0.066011343 0.18133205
v 1.9600752 -0.066011343 0.18133205
v 1.9600752 -0.077436637 0.18790352
v 1.9600752 -0.077436637 0.18790352
v 1.9600752 -0.077436637 0.20104646
v 1.9600752 -0.077436637 0.20104646
v 1.9600752 -0.066011334 0.20761792
v 1.9600752 -0.066011334 0.20761792
v 1.9600752 -0.05458603 0.20104644
v 1.9600752 -0.05458603 0.20104644
v 1.9600752 -0.05458603 0.1879035
v 1.9600752 -0.05458603 0.1879035
v 1.9452863 -0.066011343 0.18133206
v 1.9452863 -0.066011343 0.18133206
v 1.9452863 -0.066011343 0.18133206
v 1.9452863 -0.077436637 0.18790352
v 1.9452863 -0.077436637 0.18790352
v 1.9452863 -0.077436637 0.18790352
v 1.9452863 -0.077436637 0.20104646
v 1.9452863 -0.077436637 0.20104646
v 1.9452863 -0.077436637 0.20104646
v 1.9452863 -0.066011334 0.20761793
v 1.9452863 -0.066011334 0.20761793
v 1.9452863 -0.066011334 0.20761793
v 1.9452863 -0.05458603 0.20104645
v 1.9452863 -0.05458603 0.20104645
v 1.9452863 -0.05458603 0.20104645
v 1.9452863 -0.05458603 0.18790351
v 1.9452863 -0.05458603 0.18790351
v 1.9452863 -0.05458603 0.18790351
v 1.9452863 -0.066011334 0.19447499
v 1.9582769 -0.0001450284 0.21007969
v 1.9582769 -0.0001450284 0.21007969
v 1.9582769 -0.011570333 0.21665116
v 1.9582769 -0.011570333 0.21665116
v 1.9582769 -0.011570331 0.22979409
v 1.9582769 -0.011570331 0.22979409
v 1.9582769 -0.00014502589 0.23636556
v 1.9582769 -0.00014502589 0.23636556
v 1.9582769 0.011280284 0.22979409
v 1.9582769 0.011280284 0.22979409
v 1.9582769 0.011280283 0.21665116
v 1.9582769 0.011280283 0.21665116
v 1.943488 -0.00014502956 0.2100797
v 1.943488 -0.00014502956 0.2100797
v 1.943488 -0.00014502956 0.2100797
v 1.943488 -0.011570334 0.21665116
v 1.943488 -0.011570334 0.21665116
v 1.943488 -0.011570334 0.21665116
v 1.943488 -0.011570333 0.22979409
v 1.943488 -0.011570333 0.22979409
v 1.943488 -0.011570333 0.22979409
v 1.943488 -0.00014502704 0.23636556
v 1.943488 -0.00014502704 0.23636556
v 1.943488 -0.00014502704 0.23636556
v 1.943488 0.011280283 0.22979409
v 1.943488 0.011280283 0.22979409
v 1.943488 0.011280283 0.22979409
v 1.943488 0.011280282 0.21665116
v 1.943488 0.011280282 0.21665116
v 1.943488 0.011280282 0.21665116
v 1.943488 -0.0001450283 0.22322263
v 1.9600748 0.069177193 0.18133201
v 1.9600748 0.069177193 0.18133201
v 1.9600752 0.057751894 0.18790349
v 1.9600752 0.057751894 0.18790349
v 1.9600752 0.057751894 0.20104642
v 1.9600752 0.057751894 0.20104642
v 1.9600748 0.069177202 0.20761788
v 1.9600748 0.069177202 0.20761788
v 1.9600748 0.080602514 0.20104641
v 1.9600748 0.080602514 0.20104641
v 1.9600748 0.080602514 0.18790348
v 1.9600748 0.080602514 0.18790348
v 1.9452863 0.069177193 0.18133202
v 1.9452863 0.069177193 0.18133202
v 1.9452863 0.069177193 0.18133202
v 1.9452863 0.057751894 0.18790349
v 1.9452863 0.057751894 0.18790349
v 1.9452863 0.057751894 0.18790349
v 1.9452863 0.057751894 0.20104643
v 1.9452863 0.057751894 0.20104643
v 1.9452863 0.057751894 0.20104643
v 1.9452863 0.069177197 0.20761788
v 1.9452863 0.069177197 0.20761788
v 1.9452863 0.069177197 0.20761788
v 1.9452863 0.080602514 0.20104642
v 1.9452863 0.080602514 0.20104642
v 1.9452863 0.080602514 0.20104642
v 1.9452863 0.080602514 0.18790348
v 1.9452863 0.080602514 0.18790348
v 1.9452863 0.080602514 0.18790348
v 1.9452863 0.069177197 0.19447495
v -1.9582049 0.10049646 0.11253593
v -1.9582049 0.10049646 0.11253593
v -1.9582049 0.089071153 0.1191074
v -1.9582049 0.089071153 0.1191074
v -1.9582049 0.089071153 0.13225033
v -1.9582049 0.089071153 0.13225033
v -1.9582049 0.10049646 0.1388218
v -1.9582049 0.10049646 0.1388218
v -1.9582049 0.11192176 0.13225033
v -1.9582049 0.11192176 0.13225033
v -1.9582049 0.11192176 0.1191074
v -1.9582049 0.11192176 0.1191074
v -1.9434161 0.10049646 0.11253593
v -1.9434161 0.10049646 0.11253593
v -1.9434161 0.10049646 0.11253593
v -1.9434161 0.089071153 0.1191074
v -1.9434161 0.089071153 0.1191074
v -1.9434161 0.089071153 0.1191074
v -1.9434161 0.089071153 0.13225033
v -1.9434161 0.089071153 0.13225033
v -1.9434161 0.089071153 0.13225033
v -1.9434161 0.10049646 0.1388218
v -1.9434161 0.10049646 0.1388218
v -1.9434161 0.10049646 0.1388218
v -1.9434161 0.11192176 0.13225033
v -1.9434161 0.11192176 0.13225033
v -1.9434161 0.11192176 0.13225033
v -1.9434161 0.11192176 0.1191074
v -1.9434161 0.11192176 0.1191074
v -1.9434161 0.11192176 0.1191074
v -1.9434161 0.10049646 0.12567886
v -1.9600756 0.069176989 0.043205149
v -1.9600756 0.069176989 0.043205149
v -1.960076 0.057751681 0.049776627
v -1.960076 0.057751681 0.049776627
v -1.960076 0.057751681 0.062919566
v -1.960076 0.057751681 0.062919566
v -1.9600756 0.069176998 0.069491022
v -1.9600756 0.069176998 0.069491022
v -1.9600756 0.080602288 0.062919553
v -1.9600756 0.080602288 0.062919553
v -1.9600756 0.080602288 0.049776618
v -1.9600756 0.080602288 0.049776618
v -1.9452872 0.069176989 0.043205149
v -1.9452872 0.069176989 0.043205149
v -1.9452872 0.069176989 0.043205149
v -1.9452872 0.057751677 0.049776627
v -1.9452872 0.057751677 0.049776627
v -1.9452872 0.057751677 0.049776627
v -1.9452872 0.057751681 0.062919566
v -1.9452872 0.057751681 0.062919566
v -1.9452872 0.057751681 0.062919566
v -1.9452872 0.069176998 0.069491022
v -1.9452872 0.069176998 0.069491022
v -1.9452872 0.069176998 0.069491022
v -1.9452872 0.080602288 0.062919553
v -1.9452872 0.080602288 0.062919553
v -1.9452872 0.080602288 0.062919553
v -1.9452872 0.080602288 0.049776618
v -1.9452872 0.080602288 0.049776618
v -1.9452872 0.080602288 0.049776618
v -1.9452872 0.069176989 0.056348083
v -1.9582774 -0.00014523832 0.014457496
v -1.9582774 -0.00014523832 0.014457496
v -1.9582777 -0.011570543 0.021028965
v -1.9582777 -0.011570543 0.021028965
v -1.9582777 -0.011570541 0.034171895
v -1.9582777 -0.011570541 0.034171895
v -1.9582774 -0.0001452358 0.040743365
v -1.9582774 -0.0001452358 0.040743365
v -1.9582774 0.011280063 0.034171895
v -1.9582774 0.011280063 0.034171895
v -1.9582774 0.011280062 0.021028965
v -1.9582774 0.011280062 0.021028965
v -1.9434889 -0.00014523793 0.014457496
v -1.9434889 -0.00014523793 0.014457496
v -1.9434889 -0.00014523793 0.014457496
v -1.9434889 -0.011570543 0.021028965
v -1.9434889 -0.011570543 0.021028965
v -1.9434889 -0.011570543 0.021028965
v -1.9434889 -0.011570541 0.034171895
v -1.9434889 -0.011570541 0.034171895
v -1.9434889 -0.011570541 0.034171895
v -1.9434889 -0.00014523541 0.040743365
v -1.9434889 -0.00014523541 0.040743365
v -1.9434889 -0.00014523541 0.040743365
v -1.9434889 0.011280063 0.034171895
v -1.9434889 0.011280063 0.034171895
v -1.9434889 0.011280063 0.034171895
v -1.9434889 0.011280062 0.021028965
v -1.9434889 0.011280062 0.021028965
v -1.9434889 0.011280062 0.021028965
v -1.9434889 -0.00014523667 0.027600435
v -1.960076 -0.066011578 0.04320514
v -1.960076 -0.066011578 0.04320514
v -1.960076 -0.07743689 0.049776605
v -1.960076 -0.07743689 0.049776605
v -1.960076 -0.07743689 0.062919539
v -1.960076 -0.07743689 0.062919539
v -1.960076 -0.066011569 0.069491009
v -1.960076 -0.066011569 0.069491009
v -1.960076 -0.054586274 0.06291953
v -1.960076 -0.054586274 0.06291953
v -1.960076 -0.054586274 0.049776596
v -1.960076 -0.054586274 0.049776596
v -1.9452872 -0.066011578 0.04320514
v -1.9452872 -0.066011578 0.04320514
v -1.9452872 -0.066011578 0.04320514
v -1.9452872 -0.07743689 0.049776605
v -1.9452872 -0.07743689 0.049776605
v -1.9452872 -0.07743689 0.049776605
v -1.9452872 -0.07743689 0.062919539
v -1.9452872 -0.07743689 0.062919539
v -1.9452872 -0.07743689 0.062919539
v -1.9452872 -0.066011569 0.069491009
v -1.9452872 -0.066011569 0.069491009
v -1.9452872 -0.066011569 0.069491009
v -1.9452872 -0.054586274 0.06291953
v -1.9452872 -0.054586274 0.06291953
v -1.9452872 -0.054586274 0.06291953
v -1.9452872 -0.054586274 0.049776596
v -1.9452872 -0.054586274 0.049776596
v -1.9452872 -0.054586274 0.049776596
v -1.9452872 -0.066011578 0.056348074
v -1.9582053 -0.097330986 0.11253594
v -1.9582053 -0.097330986 0.11253594
v -1.9582053 -0.10875631 0.1191074
v -1.9582053 -0.10875631 0.1191074
v -1.9582053 -0.10875631 0.13225034
v -1.9582053 -0.10875631 0.13225034
v -1.9582053 -0.097330986 0.1388218
v -1.9582053 -0.097330986 0.1388218
v -1.9582053 -0.085905674 0.13225033
v -1.9582053 -0.085905674 0.13225033
v -1.9582053 -0.085905674 0.1191074
v -1.9582053 -0.085905674 0.1191074
v -1.9434164 -0.097330986 0.11253594
v -1.9434164 -0.097330986 0.11253594
v -1.9434164 -0.097330986 0.11253594
v -1.9434164 -0.10875631 0.11910741
v -1.9434164 -0.10875631 0.11910741
v -1.9434164 -0.10875631 0.11910741
v -1.9434164 -0.10875631 0.13225034
v -1.9434164 -0.10875631 0.13225034
v -1.9434164 -0.10875631 0.13225034
v -1.9434164 -0.097330986 0.1388218
v -1.9434164 -0.097330986 0.1388218
v -1.9434164 -0.097330986 0.1388218
v -1.9434164 -0.085905674 0.13225033
v -1.9434164 -0.085905674 0.13225033
v -1.9434164 -0.085905674 0.13225033
v -1.9434164 -0.085905674 0.1191074
v -1.9434164 -0.085905674 0.1191074
v -1.9434164 -0.085905674 0.1191074
v -1.9434164 -0.097330986 0.12567887
v -1.960076 -0.066011546 0.18133215
v -1.960076 -0.066011546 0.18133215
v -1.960076 -0.077436845 0.18790362
v -1.960076 -0.077436845 0.18790362
v -1.960076 -0.077436845 0.20104655
v -1.960076 -0.077436845 0.20104655
v -1.960076 -0.066011532 0.20761802
v -1.960076 -0.066011532 0.20761802
v -1.960076 -0.054586229 0.20104655
v -1.960076 -0.054586229 0.20104655
v -1.960076 -0.054586229 0.18790361
v -1.960076 -0.054586229 0.18790361
v -1.9452872 -0.066011546 0.18133215
v -1.9452872 -0.066011546 0.18133215
v -1.9452872 -0.066011546 0.18133215
v -1.9452872 -0.077436845 0.18790362
v -1.9452872 -0.077436845 0.18790362
v -1.9452872 -0.077436845 0.18790362
v -1.9452872 -0.077436845 0.20104655
v -1.9452872 -0.077436845 0.20104655
v -1.9452872 -0.077436845 0.20104655
v -1.9452872 -0.066011532 0.20761802
v -1.9452872 -0.066011532 0.20761802
v -1.9452872 -0.066011532 0.20761802
v -1.9452872 -0.054586229 0.20104655
v -1.9452872 -0.054586229 0.20104655
v -1.9452872 -0.054586229 0.20104655
v -1.9452872 -0.054586229 0.18790361
v -1.9452872 -0.054586229 0.18790361
v -1.9452872 -0.054586229 0.18790361
v -1.9452872 -0.066011532 0.19447509
v -1.9582777 -0.00014523114 0.2100798
v -1.9582777 -0.00014523114 0.2100798
v -1.9582777 -0.011570535 0.21665126
v -1.9582777 -0.011570535 0.21665126
v -1.9582777 -0.011570534 0.2297942
v -1.9582777 -0.011570534 0.2297942
v -1.9582777 -0.00014522862 0.23636567
v -1.9582777 -0.00014522862 0.23636567
v -1.9582777 0.011280082 0.2297942
v -1.9582777 0.011280082 0.2297942
v -1.9582777 0.011280081 0.21665126
v -1.9582777 0.011280081 0.21665126
v -1.9434889 -0.00014523075 0.2100798
v -1.9434889 -0.00014523075 0.2100798
v -1.9434889 -0.00014523075 0.2100798
v -1.9434889 -0.011570536 0.21665126
v -1.9434889 -0.011570536 0.21665126
v -1.9434889 -0.011570536 0.21665126
v -1.9434889 -0.011570535 0.2297942
v -1.9434889 -0.011570535 0.2297942
v -1.9434889 -0.011570535 0.2297942
v -1.9434889 -0.00014522823 0.23636567
v -1.9434889 -0.00014522823 0.23636567
v -1.9434889 -0.00014522823 0.23636567
v -1.9434889 0.011280081 0.2297942
v -1.9434889 0.011280081 0.2297942
v -1.9434889 0.011280081 0.2297942
v -1.9434889 0.01128008 0.21665126
v -1.9434889 0.01128008 0.21665126
v -1.9434889 0.01128008 0.21665126
v -1.9434889 -0.00014522949 0.22322273
v -1.9600756 0.069176989 0.18133211
v -1.9600756 0.069176989 0.18133211
v -1.960076 0.057751695 0.18790359
v -1.960076 0.057751695 0.18790359
v -1.960076 0.057751695 0.20104653
v -1.960076 0.057751695 0.20104653
v -1.9600756 0.069177007 0.20761798
v -1.9600756 0.069177007 0.20761798
v -1.9600756 0.080602306 0.20104652
v -1.9600756 0.080602306 0.20104652
v -1.9600756 0.080602306 0.18790358
v -1.9600756 0.080602306 0.18790358
v -1.9452872 0.069176989 0.18133211
v -1.9452872 0.069176989 0.18133211
v -1.9452872 0.069176989 0.18133211
v -1.9452872 0.057751695 0.18790359
v -1.9452872 0.057751695 0.18790359
v -1.9452872 0.057751695 0.18790359
v -1.9452872 0.057751695 0.20104653
v -1.9452872 0.057751695 0.20104653
v -1.9452872 0.057751695 0.20104653
v -1.9452872 0.069176998 0.20761798
v -1.9452872 0.069176998 0.20761798
v -1.9452872 0.069176998 0.20761798
v -1.9452872 0.080602306 0.20104652
v -1.9452872 0.080602306 0.20104652
v -1.9452872 0.080602306 0.20104652
v -1.9452872 0.080602306 0.18790358
v -1.9452872 0.080602306 0.18790358
v -1.9452872 0.080602306 0.18790358
v -1.9452872 0.069176998 0.19447505
vt 0.53220224 0.96142793
vt 0.53220224 0.77949059
vt 0.67649174 0.81557429
vt 0.53220224 0.81458342
vt 0.69897175 0.83732498
vt 0.53220224 0.84617293
vt 0.70700097 0.86718011
vt 0.53220224 0.87051976
vt 0.69896889 0.89728093
vt 0.67702436 0.91922832
vt 0.53220224 0.89453852
vt 0.647048 0.92726064
vt 0.53220224 0.92630625
vt 0.61623621 0.91860247
vt 0.53220224 0.96142793
vt 0.53220224 0.77949059
vt 0.59512424 0.89728093
vt 0.53220224 0.81458342
vt 0.58708906 0.8671968
vt 0.53220224 0.84617293
vt 0.53220224 0.87051976
vt 0.59512138 0.83732498
vt 0.53220224 0.89453852
vt 0.61767864 0.81555188
vt 0.53220224 0.92630625
vt 0.647048 0.80731022
vt 0.42170656 0.76488477
vt 0.75722045 0.61021411
vt 0.3644399 0.76488477
vt 0.72985667 0.58009893
vt 0.30463257 0.76488477
vt 0.68937701 0.56921035
vt 0.24620417 0.76488483
vt 0.64903992 0.58004659
vt 0.61948961 0.60973084
vt 0.18759133 0.76488483
vt 0.60847014 0.64955246
vt 0.12906168 0.76488483
vt 0.61941689 0.69078052
vt 0.070522659 0.76488483
vt 0.64872855 0.72000206
vt 0.010651844 0.76488483
vt 0.71323305 0.76488477
vt 0.68937701 0.73089898
vt 0.65604329 0.76488477
vt 0.72954792 0.72005427
vt 0.59747338 0.76488477
vt 0.53887439 0.76488477
vt 0.75716823 0.69126666
vt 0.48022723 0.76488477
vt 0.76872343 0.64955246
vt 0.012043824 0.92633492
vt 0.012043824 0.81458342
vt 0.012043824 0.96142787
vt 0.012043824 0.77949059
vt 0.012043824 0.89474547
vt 0.012043824 0.84617293
vt 0.012043824 0.87051976
vt 0.012043824 0.87039864
vt 0.012043824 0.89453852
vt 0.012043824 0.84637988
vt 0.012043824 0.92630619
vt 0.012043824 0.81461227
vt 0.012043824 0.96142787
vt 0.012043824 0.77949059
vt 0.012043824 0.92633492
vt 0.012043824 0.81458342
vt 0.012043824 0.89474547
vt 0.012043824 0.84617293
vt 0.012043824 0.87051976
vt 0.012043824 0.87039864
vt 0.012043824 0.89453852
vt 0.012043824 0.84637988
vt 0.012043824 0.92630619
vt 0.012043824 0.81461227
vt 0.71220201 0.61012399
vt 0.99385411 0.25765359
vt 0.72886389 0.62708557
vt 0.99385411 0.2322669
vt 0.73500103 0.64955246
vt 0.99385411 0.20692647
vt 0.72883195 0.67355382
vt 0.99385411 0.18166554
vt 0.99385411 0.15645444
vt 0.71215266 0.69046009
vt 0.99385411 0.13104784
vt 0.68937701 0.696612
vt 0.99385411 0.41224563
vt 0.99385411 0.10569751
vt 0.66694182 0.69089425
vt 0.99385411 0.38633227
vt 0.64790744 0.67391503
vt 0.99385411 0.36048186
vt 0.64238447 0.64955246
vt 0.6484167 0.6249634
vt 0.99385411 0.33489656
vt 0.66425771 0.61073244
vt 0.99385411 0.30931109
vt 0.68937701 0.60394609
vt 0.99385411 0.28358996
vt 0.62892061 0.89825612
vt 0.94958752 0.2322669
vt 0.64755785 0.90326029
vt 0.9495874 0.25765359
vt 0.6665023 0.89763492
vt 0.94958729 0.28358996
vt 0.67945492 0.88382059
vt 0.94958729 0.30931109
vt 0.68411058 0.86598402
vt 0.94958729 0.33489656
vt 0.94958729 0.36048186
vt 0.67875814 0.84663731
vt 0.94958729 0.38633227
vt 0.66532505 0.83461481
vt 0.94958729 0.41224563
vt 0.94958752 0.10569751
vt 0.64755785 0.83023018
vt 0.94958752 0.13104784
vt 0.6289708 0.83560461
vt 0.94958752 0.15645444
vt 0.61586988 0.84864765
vt 0.61116254 0.86598402
vt 0.94958752 0.18166554
vt 0.61644399 0.88601297
vt 0.94958752 0.20692647
vt 0.64755785 0.86598402
vt 0.69164896 0.78965533
vt 0.69164896 0.78965533
vt 0.3644399 0.75020629
vt 0.69397211 0.78563488
vt 0.42170656 0.75020629
vt 0.72837639 0.82005107
vt 0.72434688 0.82238615
vt 0.72434688 0.82238615
vt 0.48022723 0.75020629
vt 0.74096823 0.86718011
vt 0.73630381 0.86718011
vt 0.73630381 0.86718011
vt 0.53887439 0.75020629
vt 0.72835827 0.91415691
vt 0.72434974 0.91184568
vt 0.72434974 0.91184568
vt 0.69398117 0.94852817
vt 0.59747338 0.75020629
vt 0.69165516 0.94446588
vt 0.69165516 0.94446588
vt 0.647048 0.9614253
vt 0.65604329 0.75020629
vt 0.647048 0.95686078
vt 0.647048 0.95686078
vt 0.5979023 0.94880664
vt 0.010651844 0.75020629
vt 0.71323305 0.75020629
vt 0.60040236 0.94429207
vt 0.60040236 0.94429207
vt 0.56573176 0.91416883
vt 0.070522659 0.75020629
vt 0.56977034 0.91184568
vt 0.56977034 0.91184568
vt 0.55314279 0.8671968
vt 0.12906168 0.75020629
vt 0.55780983 0.8671968
vt 0.55780983 0.8671968
vt 0.18759133 0.75020629
vt 0.56574345 0.81999719
vt 0.569767 0.82235622
vt 0.569767 0.82235622
vt 0.24620417 0.75020629
vt 0.59934473 0.78537762
vt 0.60184169 0.78985643
vt 0.60184169 0.78985643
vt 0.30463257 0.75020629
vt 0.647048 0.77235138
vt 0.647048 0.77692294
vt 0.647048 0.77692294
vt 0.53219318 0.92633522
vt 0.69897175 0.83732498
vt 0.53219318 0.96142793
vt 0.53219318 0.77949059
vt 0.67649174 0.81557429
vt 0.53219318 0.89474571
vt 0.70700097 0.86718011
vt 0.53219318 0.87039864
vt 0.69896889 0.89728093
vt 0.67702436 0.91922832
vt 0.53219318 0.84637988
vt 0.647048 0.92726064
vt 0.53219318 0.81461251
vt 0.61623621 0.91860247
vt 0.53219318 0.96142793
vt 0.53219318 0.77949059
vt 0.59512424 0.89728093
vt 0.53219318 0.92633522
vt 0.58708906 0.8671968
vt 0.53219318 0.89474571
vt 0.53219318 0.87039864
vt 0.59512138 0.83732498
vt 0.53219318 0.84637988
vt 0.61767864 0.81555188
vt 0.53219318 0.81461251
vt 0.647048 0.80731022
vt 0.42170656 0.76488477
vt 0.72837639 0.82005107
vt 0.42170656 0.75020629
vt 0.75722045 0.61021411
vt 0.3644399 0.75020629
vt 0.72985667 0.58009893
vt 0.3644399 0.76488477
vt 0.69397211 0.78563488
vt 0.48022723 0.75020629
vt 0.76872343 0.64955246
vt 0.48022723 0.76488477
vt 0.74096823 0.86718011
vt 0.53887439 0.75020629
vt 0.75716823 0.69126666
vt 0.53887439 0.76488477
vt 0.72835827 0.91415691
vt 0.72954792 0.72005427
vt 0.59747338 0.75020629
vt 0.69398117 0.94852817
vt 0.59747338 0.76488477
vt 0.68937701 0.73089898
vt 0.65604329 0.75020629
vt 0.647048 0.9614253
vt 0.65604329 0.76488477
vt 0.64872855 0.72000206
vt 0.010651844 0.75020629
vt 0.71323305 0.75020629
vt 0.5979023 0.94880664
vt 0.010651844 0.76488483
vt 0.71323305 0.76488477
vt 0.61941689 0.69078052
vt 0.070522659 0.75020629
vt 0.56573176 0.91416883
vt 0.070522659 0.76488483
vt 0.60847014 0.64955246
vt 0.12906168 0.75020629
vt 0.55314279 0.8671968
vt 0.12906168 0.76488483
vt 0.61948961 0.60973084
vt 0.18759133 0.75020629
vt 0.18759133 0.76488483
vt 0.56574345 0.81999719
vt 0.24620417 0.75020629
vt 0.64903992 0.58004659
vt 0.24620417 0.76488483
vt 0.59934473 0.78537762
vt 0.30463257 0.75020629
vt 0.68937701 0.56921035
vt 0.30463257 0.76488477
vt 0.647048 0.77235138
vt 0.72434688 0.82238615
vt 0.72434688 0.82238615
vt 0.69164896 0.78965533
vt 0.69164896 0.78965533
vt 0.73630381 0.86718011
vt 0.73630381 0.86718011
vt 0.72434974 0.91184568
vt 0.72434974 0.91184568
vt 0.69165516 0.94446588
vt 0.69165516 0.94446588
vt 0.647048 0.95686078
vt 0.647048 0.95686078
vt 0.60040236 0.94429207
vt 0.60040236 0.94429207
vt 0.56977034 0.91184568
vt 0.56977034 0.91184568
vt 0.55780983 0.8671968
vt 0.55780983 0.8671968
vt 0.569767 0.82235622
vt 0.569767 0.82235622
vt 0.60184169 0.78985643
vt 0.60184169 0.78985643
vt 0.647048 0.77692294
vt 0.647048 0.77692294
vt 0.71220201 0.61012399
vt 0.99385411 0.25765359
vt 0.72886389 0.62708557
vt 0.99385411 0.2322669
vt 0.62892061 0.89825612
vt 0.94958752 0.2322669
vt 0.64755785 0.90326029
vt 0.9495874 0.25765359
vt 0.73500103 0.64955246
vt 0.99385411 0.20692647
vt 0.61644399 0.88601297
vt 0.94958752 0.20692647
vt 0.72883195 0.67355382
vt 0.99385411 0.18166554
vt 0.61116254 0.86598402
vt 0.94958752 0.18166554
vt 0.99385411 0.15645444
vt 0.71215266 0.69046009
vt 0.94958752 0.15645444
vt 0.61586988 0.84864765
vt 0.99385411 0.13104784
vt 0.68937701 0.696612
vt 0.94958752 0.13104784
vt 0.6289708 0.83560461
vt 0.99385411 0.41224563
vt 0.99385411 0.10569751
vt 0.66694182 0.69089425
vt 0.94958729 0.41224563
vt 0.94958752 0.10569751
vt 0.64755785 0.83023018
vt 0.99385411 0.38633227
vt 0.64790744 0.67391503
vt 0.94958729 0.38633227
vt 0.66532505 0.83461481
vt 0.99385411 0.36048186
vt 0.64238447 0.64955246
vt 0.94958729 0.36048186
vt 0.67875814 0.84663731
vt 0.6484167 0.6249634
vt 0.99385411 0.33489656
vt 0.68411058 0.86598402
vt 0.94958729 0.33489656
vt 0.66425771 0.61073244
vt 0.99385411 0.30931109
vt 0.67945492 0.88382059
vt 0.94958729 0.30931109
vt 0.68937701 0.60394609
vt 0.99385411 0.28358996
vt 0.6665023 0.89763492
vt 0.94958729 0.28358996
vt 0.64755785 0.86598402
vt 0.27212334 0.96142793
vt 0.27212334 0.77949059
vt 0.27212334 0.81458342
vt 0.27212334 0.84617293
vt 0.27212334 0.87051976
vt 0.27212334 0.89453852
vt 0.27212334 0.92630625
vt 0.27212334 0.96142793
vt 0.27212334 0.77949059
vt 0.27212334 0.81458342
vt 0.27212334 0.84617293
vt 0.27212334 0.87051976
vt 0.27212334 0.89453852
vt 0.27212334 0.92630625
vt 0.27211809 0.96142793
vt 0.27211809 0.77949059
vt 0.27211809 0.92633522
vt 0.27211809 0.89474571
vt 0.27211809 0.87039864
vt 0.27211809 0.84637988
vt 0.27211809 0.81461251
vt 0.27211809 0.96142793
vt 0.27211809 0.77949059
vt 0.27211809 0.92633522
vt 0.27211809 0.89474571
vt 0.27211809 0.87039864
vt 0.27211809 0.84637988
vt 0.27211809 0.81461251
vt 0.84730309 0.51047754
vt 0.84730321 0.53121054
vt 0.88087684 0.4730593
vt 0.86292154 0.48342574
vt 0.93006867 0.48342574
vt 0.91211361 0.4730593
vt 0.94568712 0.51047754
vt 0.94568712 0.53121036
vt 0.93006867 0.55826235
vt 0.91211361 0.56862879
vt 0.88087684 0.56862879
vt 0.86292166 0.55826235
vt 0.86525863 0.52084398
vt 0.86525863 0.52084398
vt 0.86525863 0.52084398
vt 0.88087696 0.49379241
vt 0.88087696 0.49379241
vt 0.88087696 0.49379241
vt 0.91211349 0.49379241
vt 0.91211349 0.49379241
vt 0.91211349 0.49379241
vt 0.92773169 0.52084398
vt 0.92773169 0.52084398
vt 0.92773169 0.52084398
vt 0.91211349 0.54789579
vt 0.91211349 0.54789579
vt 0.91211349 0.54789579
vt 0.88087696 0.54789579
vt 0.88087696 0.54789579
vt 0.88087696 0.54789579
vt 0.89649528 0.52084398
vt 0.84730309 0.51047754
vt 0.84730321 0.53121054
vt 0.88087684 0.4730593
vt 0.86292154 0.48342574
vt 0.93006867 0.48342574
vt 0.91211361 0.4730593
vt 0.94568712 0.51047754
vt 0.94568712 0.53121036
vt 0.93006867 0.55826235
vt 0.91211361 0.56862879
vt 0.88087684 0.56862879
vt 0.86292166 0.55826235
vt 0.86525863 0.52084398
vt 0.86525863 0.52084398
vt 0.86525863 0.52084398
vt 0.88087696 0.49379241
vt 0.88087696 0.49379241
vt 0.88087696 0.49379241
vt 0.91211349 0.49379241
vt 0.91211349 0.49379241
vt 0.91211349 0.49379241
vt 0.92773169 0.52084398
vt 0.92773169 0.52084398
vt 0.92773169 0.52084398
vt 0.91211349 0.54789579
vt 0.91211349 0.54789579
vt 0.91211349 0.54789579
vt 0.88087696 0.54789579
vt 0.88087696 0.54789579
vt 0.88087696 0.54789579
vt 0.89649528 0.52084398
vt 0.84730309 0.51047754
vt 0.84730321 0.53121054
vt 0.88087684 0.4730593
vt 0.86292154 0.48342574
vt 0.93006867 0.48342574
vt 0.91211361 0.4730593
vt 0.94568712 0.51047754
vt 0.94568712 0.53121036
vt 0.93006867 0.55826235
vt 0.91211361 0.56862879
vt 0.88087684 0.56862879
vt 0.86292166 0.55826235
vt 0.86525863 0.52084398
vt 0.86525863 0.52084398
vt 0.86525863 0.52084398
vt 0.88087696 0.49379241
vt 0.88087696 0.49379241
vt 0.88087696 0.49379241
vt 0.91211349 0.49379241
vt 0.91211349 0.49379241
vt 0.91211349 0.49379241
vt 0.92773169 0.52084398
vt 0.92773169 0.52084398
vt 0.92773169 0.52084398
vt 0.91211349 0.54789579
vt 0.91211349 0.54789579
vt 0.91211349 0.54789579
vt 0.88087696 0.54789579
vt 0.88087696 0.54789579
vt 0.88087696 0.54789579
vt 0.89649528 0.52084398
vt 0.84730309 0.51047754
vt 0.84730321 0.53121054
vt 0.88087684 0.4730593
vt 0.86292154 0.48342574
vt 0.93006867 0.48342574
vt 0.91211361 0.4730593
vt 0.94568712 0.51047754
vt 0.94568712 0.53121036
vt 0.93006867 0.55826235
vt 0.91211361 0.56862879
vt 0.88087684 0.56862879
vt 0.86292166 0.55826235
vt 0.86525863 0.52084398
vt 0.86525863 0.52084398
vt 0.86525863 0.52084398
vt 0.88087696 0.49379241
vt 0.88087696 0.49379241
vt 0.88087696 0.49379241
vt 0.91211349 0.49379241
vt 0.91211349 0.49379241
vt 0.91211349 0.49379241
vt 0.92773169 0.52084398
vt 0.92773169 0.52084398
vt 0.92773169 0.52084398
vt 0.91211349 0.54789579
vt 0.91211349 0.54789579
vt 0.91211349 0.54789579
vt 0.88087696 0.54789579
vt 0.88087696 0.54789579
vt 0.88087696 0.54789579
vt 0.89649528 0.52084398
vt 0.84730309 0.51047754
vt 0.84730321 0.53121054
vt 0.88087684 0.4730593
vt 0.86292154 0.48342574
vt 0.93006867 0.48342574
vt 0.91211361 0.4730593
vt 0.94568712 0.51047754
vt 0.94568712 0.53121036
vt 0.93006867 0.55826235
vt 0.91211361 0.56862879
vt 0.88087684 0.56862879
vt 0.86292166 0.55826235
vt 0.86525863 0.52084398
vt 0.86525863 0.52084398
vt 0.86525863 0.52084398
vt 0.88087696 0.49379241
vt 0.88087696 0.49379241
vt 0.88087696 0.49379241
vt 0.91211349 0.49379241
vt 0.91211349 0.49379241
vt 0.91211349 0.49379241
vt 0.92773169 0.52084398
vt 0.92773169 0.52084398
vt 0.92773169 0.52084398
vt 0.91211349 0.54789579
vt 0.91211349 0.54789579
vt 0.91211349 0.54789579
vt 0.88087696 0.54789579
vt 0.88087696 0.54789579
vt 0.88087696 0.54789579
vt 0.89649528 0.52084398
vt 0.84730309 0.51047754
vt 0.84730321 0.53121054
vt 0.88087684 0.4730593
vt 0.86292154 0.48342574
vt 0.93006867 0.48342574
vt 0.91211361 0.4730593
vt 0.94568712 0.51047754
vt 0.94568712 0.53121036
vt 0.93006867 0.55826235
vt 0.91211361 0.56862879
vt 0.88087684 0.56862879
vt 0.86292166 0.55826235
vt 0.86525863 0.52084398
vt 0.86525863 0.52084398
vt 0.86525863 0.52084398
vt 0.88087696 0.49379241
vt 0.88087696 0.49379241
vt 0.88087696 0.49379241
vt 0.91211349 0.49379241
vt 0.91211349 0.49379241
vt 0.91211349 0.49379241
vt 0.92773169 0.52084398
vt 0.92773169 0.52084398
vt 0.92773169 0.52084398
vt 0.91211349 0.54789579
vt 0.91211349 0.54789579
vt 0.91211349 0.54789579
vt 0.88087696 0.54789579
vt 0.88087696 0.54789579
vt 0.88087696 0.54789579
vt 0.89649528 0.52084398
vt 0.84730309 0.51047754
vt 0.84730321 0.53121054
vt 0.88087684 0.4730593
vt 0.86292154 0.48342574
vt 0.93006867 0.48342574
vt 0.91211361 0.4730593
vt 0.94568712 0.51047754
vt 0.94568712 0.53121036
vt 0.93006867 0.55826235
vt 0.91211361 0.56862879
vt 0.88087684 0.56862879
vt 0.86292166 0.55826235
vt 0.86525863 0.52084398
vt 0.86525863 0.52084398
vt 0.86525863 0.52084398
vt 0.88087696 0.49379241
vt 0.88087696 0.49379241
vt 0.88087696 0.49379241
vt 0.91211349 0.49379241
vt 0.91211349 0.49379241
vt 0.91211349 0.49379241
vt 0.92773169 0.52084398
vt 0.92773169 0.52084398
vt 0.92773169 0.52084398
vt 0.91211349 0.54789579
vt 0.91211349 0.54789579
vt 0.91211349 0.54789579
vt 0.88087696 0.54789579
vt 0.88087696 0.54789579
vt 0.88087696 0.54789579
vt 0.89649528 0.52084398
vt 0.84730309 0.51047754
vt 0.84730321 0.53121054
vt 0.88087684 0.4730593
vt 0.86292154 0.48342574
vt 0.93006867 0.48342574
vt 0.91211361 0.4730593
vt 0.94568712 0.51047754
vt 0.94568712 0.53121036
vt 0.93006867 0.55826235
vt 0.91211361 0.56862879
vt 0.88087684 0.56862879
vt 0.86292166 0.55826235
vt 0.86525863 0.52084398
vt 0.86525863 0.52084398
vt 0.86525863 0.52084398
vt 0.88087696 0.49379241
vt 0.88087696 0.49379241
vt 0.88087696 0.49379241
vt 0.91211349 0.49379241
vt 0.91211349 0.49379241
vt 0.91211349 0.49379241
vt 0.92773169 0.52084398
vt 0.92773169 0.52084398
vt 0.92773169 0.52084398
vt 0.91211349 0.54789579
vt 0.91211349 0.54789579
vt 0.91211349 0.54789579
vt 0.88087696 0.54789579
vt 0.88087696 0.54789579
vt 0.88087696 0.54789579
vt 0.89649528 0.52084398
vt 0.84730309 0.51047754
vt 0.84730321 0.53121054
vt 0.88087684 0.4730593
vt 0.86292154 0.48342574
vt 0.93006867 0.48342574
vt 0.91211361 0.4730593
vt 0.94568712 0.51047754
vt 0.94568712 0.53121036
vt 0.93006867 0.55826235
vt 0.91211361 0.56862879
vt 0.88087684 0.56862879
vt 0.86292166 0.55826235
vt 0.86525863 0.52084398
vt 0.86525863 0.52084398
vt 0.86525863 0.52084398
vt 0.88087696 0.49379241
vt 0.88087696 0.49379241
vt 0.88087696 0.49379241
vt 0.91211349 0.49379241
vt 0.91211349 0.49379241
vt 0.91211349 0.49379241
vt 0.92773169 0.52084398
vt 0.92773169 0.52084398
vt 0.92773169 0.52084398
vt 0.91211349 0.54789579
vt 0.91211349 0.54789579
vt 0.91211349 0.54789579
vt 0.88087696 0.54789579
vt 0.88087696 0.54789579
vt 0.88087696 0.54789579
vt 0.89649528 0.52084398
vt 0.84730309 0.51047754
vt 0.84730321 0.53121054
vt 0.88087684 0.4730593
vt 0.86292154 0.48342574
vt 0.93006867 0.48342574
vt 0.91211361 0.4730593
vt 0.94568712 0.51047754
vt 0.94568712 0.53121036
vt 0.93006867 0.55826235
vt 0.91211361 0.56862879
vt 0.88087684 0.56862879
vt 0.86292166 0.55826235
vt 0.86525863 0.52084398
vt 0.86525863 0.52084398
vt 0.86525863 0.52084398
vt 0.88087696 0.49379241
vt 0.88087696 0.49379241
vt 0.88087696 0.49379241
vt 0.91211349 0.49379241
vt 0.91211349 0.49379241
vt 0.91211349 0.49379241
vt 0.92773169 0.52084398
vt 0.92773169 0.52084398
vt 0.92773169 0.52084398
vt 0.91211349 0.54789579
vt 0.91211349 0.54789579
vt 0.91211349 0.54789579
vt 0.88087696 0.54789579
vt 0.88087696 0.54789579
vt 0.88087696 0.54789579
vt 0.89649528 0.52084398
vt 0.84730309 0.51047754
vt 0.84730321 0.53121054
vt 0.88087684 0.4730593
vt 0.86292154 0.48342574
vt 0.93006867 0.48342574
vt 0.91211361 0.4730593
vt 0.94568712 0.51047754
vt 0.94568712 0.53121036
vt 0.93006867 0.55826235
vt 0.91211361 0.56862879
vt 0.88087684 0.56862879
vt 0.86292166 0.55826235
vt 0.86525863 0.52084398
vt 0.86525863 0.52084398
vt 0.86525863 0.52084398
vt 0.88087696 0.49379241
vt 0.88087696 0.49379241
vt 0.88087696 0.49379241
vt 0.91211349 0.49379241
vt 0.91211349 0.49379241
vt 0.91211349 0.49379241
vt 0.92773169 0.52084398
vt 0.92773169 0.52084398
vt 0.92773169 0.52084398
vt 0.91211349 0.54789579
vt 0.91211349 0.54789579
vt 0.91211349 0.54789579
vt 0.88087696 0.54789579
vt 0.88087696 0.54789579
vt 0.88087696 0.54789579
vt 0.89649528 0.52084398
vt 0.84730309 0.51047754
vt 0.84730321 0.53121054
vt 0.88087684 0.4730593
vt 0.86292154 0.48342574
vt 0.93006867 0.48342574
vt 0.91211361 0.4730593
vt 0.94568712 0.51047754
vt 0.94568712 0.53121036
vt 0.93006867 0.55826235
vt 0.91211361 0.56862879
vt 0.88087684 0.56862879
vt 0.86292166 0.55826235
vt 0.86525863 0.52084398
vt 0.86525863 0.52084398
vt 0.86525863 0.52084398
vt 0.88087696 0.49379241
vt 0.88087696 0.49379241
vt 0.88087696 0.49379241
vt 0.91211349 0.49379241
vt 0.91211349 0.49379241
vt 0.91211349 0.49379241
vt 0.92773169 0.52084398
vt 0.92773169 0.52084398
vt 0.92773169 0.52084398
vt 0.91211349 0.54789579
vt 0.91211349 0.54789579
vt 0.91211349 0.54789579
vt 0.88087696 0.54789579
vt 0.88087696 0.54789579
vt 0.88087696 0.54789579
vt 0.89649528 0.52084398
vt 0.84730309 0.51047754
vt 0.84730321 0.53121054
vt 0.88087684 0.4730593
vt 0.86292154 0.48342574
vt 0.93006867 0.48342574
vt 0.91211361 0.4730593
vt 0.94568712 0.51047754
vt 0.94568712 0.53121036
vt 0.93006867 0.55826235
vt 0.91211361 0.56862879
vt 0.88087684 0.56862879
vt 0.86292166 0.55826235
vt 0.86525863 0.52084398
vt 0.86525863 0.52084398
vt 0.86525863 0.52084398
vt 0.88087696 0.49379241
vt 0.88087696 0.49379241
vt 0.88087696 0.49379241
vt 0.91211349 0.49379241
vt 0.91211349 0.49379241
vt 0.91211349 0.49379241
vt 0.92773169 0.52084398
vt 0.92773169 0.52084398
vt 0.92773169 0.52084398
vt 0.91211349 0.54789579
vt 0.91211349 0.54789579
vt 0.91211349 0.54789579
vt 0.88087696 0.54789579
vt 0.88087696 0.54789579
vt 0.88087696 0.54789579
vt 0.89649528 0.52084398
vt 0.84730309 0.51047754
vt 0.84730321 0.53121054
vt 0.88087684 0.4730593
vt 0.86292154 0.48342574
vt 0.93006867 0.48342574
vt 0.91211361 0.4730593
vt 0.94568712 0.51047754
vt 0.94568712 0.53121036
vt 0.93006867 0.55826235
vt 0.91211361 0.56862879
vt 0.88087684 0.56862879
vt 0.86292166 0.55826235
vt 0.86525863 0.52084398
vt 0.86525863 0.52084398
vt 0.86525863 0.52084398
vt 0.88087696 0.49379241
vt 0.88087696 0.49379241
vt 0.88087696 0.49379241
vt 0.91211349 0.49379241
vt 0.91211349 0.49379241
vt 0.91211349 0.49379241
vt 0.92773169 0.52084398
vt 0.92773169 0.52084398
vt 0.92773169 0.52084398
vt 0.91211349 0.54789579
vt 0.91211349 0.54789579
vt 0.91211349 0.54789579
vt 0.88087696 0.54789579
vt 0.88087696 0.54789579
vt 0.88087696 0.54789579
vt 0.89649528 0.52084398
vt 0.84730309 0.51047754
vt 0.84730321 0.53121054
vt 0.88087684 0.4730593
vt 0.86292154 0.48342574
vt 0.93006867 0.48342574
vt 0.91211361 0.4730593
vt 0.94568712 0.51047754
vt 0.94568712 0.53121036
vt 0.93006867 0.55826235
vt 0.91211361 0.56862879
vt 0.88087684 0.56862879
vt 0.86292166 0.55826235
vt 0.86525863 0.52084398
vt 0.86525863 0.52084398
vt 0.86525863 0.52084398
vt 0.88087696 0.49379241
vt 0.88087696 0.49379241
vt 0.88087696 0.49379241
vt 0.91211349 0.49379241
vt 0.91211349 0.49379241
vt 0.91211349 0.49379241
vt 0.92773169 0.52084398
vt 0.92773169 0.52084398
vt 0.92773169 0.52084398
vt 0.91211349 0.54789579
vt 0.91211349 0.54789579
vt 0.91211349 0.54789579
vt 0.88087696 0.54789579
vt 0.88087696 0.54789579
vt 0.88087696 0.54789579
vt 0.89649528 0.52084398
vt 0.84730309 0.51047754
vt 0.84730321 0.53121054
vt 0.88087684 0.4730593
vt 0.86292154 0.48342574
vt 0.93006867 0.48342574
vt 0.91211361 0.4730593
vt 0.94568712 0.51047754
vt 0.94568712 0.53121036
vt 0.93006867 0.55826235
vt 0.91211361 0.56862879
vt 0.88087684 0.56862879
vt 0.86292166 0.55826235
vt 0.86525863 0.52084398
vt 0.86525863 0.52084398
vt 0.86525863 0.52084398
vt 0.88087696 0.49379241
vt 0.88087696 0.49379241
vt 0.88087696 0.49379241
vt 0.91211349 0.49379241
vt 0.91211349 0.49379241
vt 0.91211349 0.49379241
vt 0.92773169 0.52084398
vt 0.92773169 0.52084398
vt 0.92773169 0.52084398
vt 0.91211349 0.54789579
vt 0.91211349 0.54789579
vt 0.91211349 0.54789579
vt 0.88087696 0.54789579
vt 0.88087696 0.54789579
vt 0.88087696 0.54789579
vt 0.89649528 0.52084398
vn 0 -0.037358308 0.99930193
vn 0 -0.037358308 0.99930193
vn -0.9687569 -0.0043020595 0.24797492
vn 0 -0.52535408 0.85088371
vn -0.97052378 -0.12308914 0.20720199
vn 0 -0.8680864 0.49641314
vn -0.9716835 -0.20442648 0.11849471
vn 0 -0.99982001 0.0189721
vn -0.97172546 -0.2361037 0.0021636206
vn -0.97065221 -0.20959403 -0.11791786
vn 0 -0.87895691 -0.4769012
vn -0.968939 -0.12792757 -0.2116406
vn 0 -0.53015395 -0.8479014
vn -0.96764678 -0.0042988686 -0.25227215
vn 0 -0.032077804 -0.99948537
vn 0 -0.032077804 -0.99948537
vn -0.96545857 0.12895681 -0.22640647
vn 0 0.48019607 -0.87716118
vn -0.9644474 0.22903589 -0.13184755
vn 0 0.86486047 -0.50201232
vn 0 0.99985781 0.016863039
vn -0.96446814 0.26418902 0.0023189766
vn 0 0.85723342 0.51492802
vn -0.96562086 0.22407948 0.13177537
vn 0 0.47513701 0.87991182
vn -0.96692713 0.12444703 0.22263168
vn 0 -0.50048971 0.86574249
vn 0.9990589 0.021603696 -0.037611094
vn 0 -0.00069735354 0.99999976
vn 0.99902183 0.00050631787 -0.044216808
vn 0 0.49801185 0.86717022
vn 0.99897589 -0.022110407 -0.039475375
vn 0 0.86544632 0.50100167
vn 0.99891143 -0.040167462 -0.02371758
vn 0.99888287 -0.047254487 -0.00016940644
vn 0 0.99999901 -0.0014053112
vn 0.99889381 -0.040504288 0.023886571
vn 0 0.86519705 -0.50143202
vn 0.99896168 -0.022447651 0.039644233
vn 0 0.50416122 -0.86360956
vn 0.99903674 0.00050632543 0.043878638
vn 0 -0.0023909205 -0.99999714
vn 0 -0.0023909205 -0.99999714
vn 0.99905156 0.021941093 0.037610819
vn 0 -0.50566831 -0.86272798
vn 0.99905878 0.037468904 0.021855094
vn 0 -0.86449827 -0.5026358
vn 0 -0.99999939 0.0011041735
vn 0.99906611 0.043207702 0
vn 0 -0.86497271 0.50181891
vn 0.99906246 0.037469044 -0.021685753
vn 0 -0.52535408 0.85088371
vn 0 -0.52535408 0.85088371
vn 0 -0.037358308 0.99930193
vn 0 -0.037358308 0.99930193
vn 0 -0.8680864 0.49641314
vn 0 -0.8680864 0.49641314
vn 0 -0.99982001 0.0189721
vn 0 -0.99982001 0.0189721
vn 0 -0.87895691 -0.4769012
vn 0 -0.87895691 -0.4769012
vn 0 -0.53015395 -0.8479014
vn 0 -0.53015395 -0.8479014
vn 0 -0.032077804 -0.99948537
vn 0 -0.032077804 -0.99948537
vn 0 0.48019607 -0.87716118
vn 0 0.48019607 -0.87716118
vn 0 0.86486047 -0.50201232
vn 0 0.86486047 -0.50201232
vn 0 0.99985781 0.016863039
vn 0 0.99985781 0.016863039
vn 0 0.85723342 0.51492802
vn 0 0.85723342 0.51492802
vn 0 0.47513701 0.87991182
vn 0 0.47513701 0.87991182
vn 0.99902183 0.00050631787 -0.044216808
vn 0 0.032077804 -0.99948537
vn 0.9990589 0.021603696 -0.037611094
vn 0 0.49967471 -0.86621313
vn 0.99906246 0.037469044 -0.021685753
vn 0 0.864904 -0.50193733
vn 0.99906611 0.043207702 0
vn 0 0.99999927 -0.0012045529
vn 0 0.86416091 0.50321559
vn 0.99905878 0.037468904 0.021855094
vn 0 0.50528401 0.86295311
vn 0.99905791 0.021941233 0.037441637
vn 0 0.033072935 0.99945294
vn 0 0.033072935 0.99945294
vn 0.99903674 0.00050632543 0.043878638
vn 0 -0.46650903 0.88451644
vn 0.99896168 -0.022447651 0.039644233
vn 0 -0.85746336 0.51454504
vn 0.99889499 -0.040673103 0.02354778
vn 0.99888287 -0.047254487 -0.00016940644
vn 0 -0.99992253 -0.012447336
vn 0.99890865 -0.04033612 -0.023548102
vn 0 -0.85542345 -0.51792927
vn 0.99897589 -0.022110407 -0.039475375
vn 0 -0.46662832 -0.88445351
vn 1 0 0
vn 0 0.49967471 -0.86621313
vn 1 0 0
vn 0 0.032077804 -0.99948537
vn 1 0 0
vn 0 -0.46662832 -0.88445351
vn 1 0 0
vn 0 -0.85542345 -0.51792927
vn 1 0 0
vn 0 -0.99992253 -0.012447336
vn 0 -0.85746336 0.51454504
vn 1 0 0
vn 0 -0.46650903 0.88451644
vn 1 0 0
vn 0 0.033076238 0.99945283
vn 0 0.033076238 0.99945283
vn 1 0 0
vn 0 0.50528401 0.86295311
vn 1 0 0
vn 0 0.86416091 0.50321559
vn 1 0 0
vn 1 0 0
vn 0 0.99999927 -0.0012045529
vn 1 0 0
vn 0 0.864904 -0.50193733
vn 1 0 0
vn -0.4525366 -0.00046873739 0.89174571
vn -0.96872166 -0.0029782403 0.24813197
vn 0 -0.00069735354 0.99999976
vn -0.4525366 -0.00046873739 0.89174571
vn 0 -0.50048971 0.86574249
vn -0.45425632 -0.44627006 0.77103452
vn -0.45424007 -0.44531511 0.77159602
vn -0.97049637 -0.12275435 0.2075287
vn 0 -0.86497271 0.50181891
vn -0.45610329 -0.7703 0.44565423
vn -0.45610035 -0.76900103 0.44789495
vn -0.97169401 -0.20476029 0.11783029
vn 0 -0.99999939 0.0011041735
vn -0.45684477 -0.88954605 0.00082743594
vn -0.97172664 -0.23610399 0.0014978929
vn -0.45684472 -0.88954596 0.00094564096
vn -0.45528097 -0.76949905 -0.44787325
vn 0 -0.86449827 -0.5026358
vn -0.97061931 -0.2090899 -0.11907802
vn -0.45530163 -0.76988674 -0.44718546
vn -0.45223639 -0.45075872 -0.76960953
vn 0 -0.50559411 -0.86277146
vn -0.96892512 -0.12693279 -0.21230208
vn -0.45222953 -0.45098634 -0.76948019
vn -0.45274126 -0.0017580211 -0.89164021
vn 0 -0.0023909205 -0.99999714
vn 0 -0.0023909205 -0.99999714
vn -0.9676519 -0.0028108136 -0.25227347
vn -0.45274073 -0.0023440255 -0.89163913
vn -0.44964795 0.44980972 -0.77167865
vn 0 0.50427919 -0.86354068
vn -0.96547422 0.12912401 -0.22624439
vn -0.44964863 0.451215 -0.7708574
vn -0.44965203 0.77217656 -0.44895034
vn 0 0.86519705 -0.50143202
vn -0.96448124 0.22821884 -0.13301168
vn -0.44964346 0.77368514 -0.44635419
vn 0 0.99999901 -0.0014053112
vn -0.44945461 0.89330093 -0.0020004911
vn -0.9644704 0.26418963 0.00082820793
vn -0.44945547 0.89330261 -0.00047070467
vn 0 0.86544632 0.50100167
vn -0.45060219 0.77249892 0.4474406
vn -0.45059828 0.77284396 0.4468483
vn -0.96562724 0.2242461 0.13144473
vn 0 0.49801185 0.86717022
vn -0.45105963 0.44444112 0.77396208
vn -0.45109477 0.44471003 0.77378712
vn -0.96689873 0.12526969 0.22229337
vn 0 -0.52535408 0.85088371
vn 0.97052378 -0.12308914 0.20720199
vn 0 -0.037358308 0.99930193
vn 0 -0.037358308 0.99930193
vn 0.9687569 -0.0043020595 0.24797492
vn 0 -0.8680864 0.49641314
vn 0.9716835 -0.20442648 0.11849471
vn 0 -0.99982001 0.0189721
vn 0.97172546 -0.2361037 0.0021636206
vn 0.97065221 -0.20959403 -0.11791786
vn 0 -0.87895691 -0.4769012
vn 0.968939 -0.12792757 -0.2116406
vn 0 -0.53015395 -0.8479014
vn 0.96764678 -0.0042988686 -0.25227215
vn 0 -0.032077804 -0.99948537
vn 0 -0.032077804 -0.99948537
vn 0.96545857 0.12895681 -0.22640647
vn 0 0.48019607 -0.87716118
vn 0.9644474 0.22903589 -0.13184755
vn 0 0.86486047 -0.50201232
vn 0 0.99985781 0.016863039
vn 0.96446814 0.26418902 0.0023189766
vn 0 0.85723342 0.51492802
vn 0.96562086 0.22407948 0.13177537
vn 0 0.47513701 0.87991182
vn 0.96692713 0.12444703 0.22263168
vn 0 -0.50048971 0.86574249
vn 0.45425632 -0.44627006 0.77103452
vn 0 -0.50048971 0.86574249
vn -0.9990589 0.021603696 -0.037611094
vn 0 -0.00069735354 0.99999976
vn -0.99902183 0.00050631787 -0.044216808
vn 0 -0.00069735354 0.99999976
vn 0.4525366 -0.00046873739 0.89174571
vn 0 -0.86497271 0.50181891
vn -0.99906246 0.037469044 -0.021685753
vn 0 -0.86497271 0.50181891
vn 0.45610329 -0.7703 0.44565423
vn 0 -0.99999939 0.0011041735
vn -0.99906611 0.043207702 0
vn 0 -0.99999939 0.0011041735
vn 0.45684477 -0.88954605 0.00082743594
vn -0.99905878 0.037468904 0.021855094
vn 0 -0.86449827 -0.5026358
vn 0.45528097 -0.76949905 -0.44787325
vn 0 -0.86449827 -0.5026358
vn -0.99905156 0.021941093 0.037610819
vn 0 -0.50566831 -0.86272798
vn 0.45223639 -0.45075872 -0.76960953
vn 0 -0.50559411 -0.86277146
vn -0.99903674 0.00050632543 0.043878638
vn 0 -0.0023909205 -0.99999714
vn 0 -0.0023909205 -0.99999714
vn 0.45274126 -0.0017580211 -0.89164021
vn 0 -0.0023909205 -0.99999714
vn 0 -0.0023909205 -0.99999714
vn -0.99896168 -0.022447651 0.039644233
vn 0 0.50416122 -0.86360956
vn 0.44964795 0.44980972 -0.77167865
vn 0 0.50427919 -0.86354068
vn -0.99889381 -0.040504288 0.023886571
vn 0 0.86519705 -0.50143202
vn 0.44965203 0.77217656 -0.44895034
vn 0 0.86519705 -0.50143202
vn -0.99888287 -0.047254487 -0.00016940644
vn 0 0.99999901 -0.0014053112
vn 0 0.99999901 -0.0014053112
vn 0.44940762 0.89332457 -0.0020002817
vn 0 0.86544632 0.50100167
vn -0.99891143 -0.040167462 -0.02371758
vn 0 0.86544632 0.50100167
vn 0.45060219 0.77249892 0.4474406
vn 0 0.49801185 0.86717022
vn -0.99897589 -0.022110407 -0.039475375
vn 0 0.49801185 0.86717022
vn 0.45105963 0.44444112 0.77396208
vn 0.45424007 -0.44531511 0.77159602
vn 0.97049637 -0.12275435 0.2075287
vn 0.4525366 -0.00046873739 0.89174571
vn 0.96872166 -0.0029782403 0.24813197
vn 0.45610035 -0.76900103 0.44789495
vn 0.97169401 -0.20476029 0.11783029
vn 0.97172664 -0.23610399 0.0014978929
vn 0.45684472 -0.88954596 0.00094564096
vn 0.97061931 -0.2090899 -0.11907802
vn 0.45530163 -0.76988674 -0.44718546
vn 0.96892512 -0.12693279 -0.21230208
vn 0.45222953 -0.45098634 -0.76948019
vn 0.9676519 -0.0028108136 -0.25227347
vn 0.45274073 -0.0023440255 -0.89163913
vn 0.96547422 0.12912401 -0.22624439
vn 0.44964863 0.451215 -0.7708574
vn 0.96448124 0.22821884 -0.13301168
vn 0.44964346 0.77368514 -0.44635419
vn 0.9644704 0.26418963 0.00082820793
vn 0.44940845 0.89332627 -0.0004706554
vn 0.45059828 0.77284396 0.4468483
vn 0.96562724 0.2242461 0.13144473
vn 0.45109477 0.44471003 0.77378712
vn 0.96689873 0.12526969 0.22229337
vn -0.99902183 0.00050631787 -0.044216808
vn 0 0.032077804 -0.99948537
vn -0.9990589 0.021603696 -0.037611094
vn 0 0.49967471 -0.86621313
vn -1 0 0
vn 0 0.49967471 -0.86621313
vn -1 0 0
vn 0 0.032077804 -0.99948537
vn -0.99906246 0.037469044 -0.021685753
vn 0 0.864904 -0.50193733
vn -1 0 0
vn 0 0.864904 -0.50193733
vn -0.99906611 0.043207702 0
vn 0 0.99999927 -0.0012045529
vn -1 0 0
vn 0 0.99999927 -0.0012045529
vn 0 0.86416091 0.50321559
vn -0.99905878 0.037468904 0.021855094
vn 0 0.86416091 0.50321559
vn -1 0 0
vn 0 0.50528401 0.86295311
vn -0.99905791 0.021941233 0.037441637
vn 0 0.50528401 0.86295311
vn -1 0 0
vn 0 0.033072935 0.99945294
vn 0 0.033072935 0.99945294
vn -0.99903674 0.00050632543 0.043878638
vn 0 0.033076238 0.99945283
vn 0 0.033076238 0.99945283
vn -1 0 0
vn 0 -0.46650903 0.88451644
vn -0.99896168 -0.022447651 0.039644233
vn 0 -0.46650903 0.88451644
vn -1 0 0
vn 0 -0.85746336 0.51454504
vn -0.99889499 -0.040673103 0.02354778
vn 0 -0.85746336 0.51454504
vn -1 0 0
vn -0.99888287 -0.047254487 -0.00016940644
vn 0 -0.99992253 -0.012447336
vn -1 0 0
vn 0 -0.99992253 -0.012447336
vn -0.99890865 -0.04033612 -0.023548102
vn 0 -0.85542345 -0.51792927
vn -1 0 0
vn 0 -0.85542345 -0.51792927
vn -0.99897589 -0.022110407 -0.039475375
vn 0 -0.46662832 -0.88445351
vn -1 0 0
vn 0 -0.46662832 -0.88445351
vn -1 0 0
vn 0 -0.037358308 0.99930193
vn 0 -0.037358308 0.99930193
vn 0 -0.52535408 0.85088371
vn 0 -0.8680864 0.49641314
vn 0 -0.99982001 0.0189721
vn 0 -0.87895691 -0.4769012
vn 0 -0.53015395 -0.8479014
vn 0 -0.032077804 -0.99948537
vn 0 -0.032077804 -0.99948537
vn 0 0.48019607 -0.87716118
vn 0 0.86486047 -0.50201232
vn 0 0.99985781 0.016863039
vn 0 0.85723342 0.51492802
vn 0 0.47513701 0.87991182
vn 0 -0.037358308 0.99930193
vn 0 -0.037358308 0.99930193
vn 0 -0.52535408 0.85088371
vn 0 -0.8680864 0.49641314
vn 0 -0.99982001 0.0189721
vn 0 -0.87895691 -0.4769012
vn 0 -0.53015395 -0.8479014
vn 0 -0.032077804 -0.99948537
vn 0 -0.032077804 -0.99948537
vn 0 0.48019607 -0.87716118
vn 0 0.86486047 -0.50201232
vn 0 0.99985781 0.016863039
vn 0 0.85723342 0.51492802
vn 0 0.47513701 0.87991182
vn 0 -0.49859135 -0.86683716
vn 0 0.49859135 -0.86683716
vn 0 -1 0
vn 0 -0.49859135 -0.86683716
vn 0 -0.49859135 0.86683716
vn 0 -1 0
vn 0 -0.49859135 0.86683716
vn 0 0.49859135 0.86683716
vn 0 0.49859135 0.86683716
vn 0 1 0
vn 0 1 0
vn 0 0.49859135 -0.86683716
vn -1 0 0
vn 0 -0.49859135 -0.86683716
vn 0 0.49859135 -0.86683716
vn -1 0 0
vn 0 -1 0
vn 0 -0.49859135 -0.86683716
vn 0 -0.49859135 0.86683716
vn -1 0 0
vn 0 -1 0
vn 0 -0.49859135 0.86683716
vn 0 0.49859135 0.86683716
vn -1 0 0
vn 0 0.49859135 0.86683716
vn -1 0 0
vn 0 1 0
vn -1 0 0
vn 0 1 0
vn 0 0.49859135 -0.86683716
vn -1 0 0
vn 0 -0.49859135 -0.86683716
vn 0 0.49859135 -0.86683716
vn 0 -1 0
vn 0 -0.49859135 -0.86683716
vn 0 -0.49859135 0.86683716
vn 0 -1 0
vn 0 -0.49859135 0.86683716
vn 0 0.49859135 0.86683716
vn 0 0.49859135 0.86683716
vn 0 1 0
vn 0 1 0
vn 0 0.49859135 -0.86683716
vn -1 0 0
vn 0 -0.49859135 -0.86683716
vn 0 0.49859135 -0.86683716
vn -1 0 0
vn 0 -1 0
vn 0 -0.49859135 -0.86683716
vn 0 -0.49859135 0.86683716
vn -1 0 0
vn 0 -1 0
vn 0 -0.49859135 0.86683716
vn 0 0.49859135 0.86683716
vn -1 0 0
vn 0 0.49859135 0.86683716
vn -1 0 0
vn 0 1 0
vn -1 0 0
vn 0 1 0
vn 0 0.49859135 -0.86683716
vn -1 0 0
vn 0 -0.49859135 -0.86683716
vn 0 0.49859135 -0.86683716
vn 0 -1 0
vn 0 -0.49859135 -0.86683716
vn 0 -0.49859135 0.86683716
vn 0 -1 0
vn 0 -0.49859135 0.86683716
vn 0 0.49859135 0.86683716
vn 0 0.49859135 0.86683716
vn 0 1 0
vn 0 1 0
vn 0 0.49859135 -0.86683716
vn -1 0 0
vn 0 -0.49859135 -0.86683716
vn 0 0.49859135 -0.86683716
vn -1 0 0
vn 0 -1 0
vn 0 -0.49859135 -0.86683716
vn 0 -0.49859135 0.86683716
vn -1 0 0
vn 0 -1 0
vn 0 -0.49859135 0.86683716
vn 0 0.49859135 0.86683716
vn -1 0 0
vn 0 0.49859135 0.86683716
vn -1 0 0
vn 0 1 0
vn -1 0 0
vn 0 1 0
vn 0 0.49859135 -0.86683716
vn -1 0 0
vn 0 -0.49859135 -0.86683716
vn 0 0.49859135 -0.86683716
vn 0 -1 0
vn 0 -0.49859135 -0.86683716
vn 0 -0.49859135 0.86683716
vn 0 -1 0
vn 0 -0.49859135 0.86683716
vn 0 0.49859135 0.86683716
vn 0 0.49859135 0.86683716
vn 0 1 0
vn 0 1 0
vn 0 0.49859135 -0.86683716
vn -1 0 0
vn 0 -0.49859135 -0.86683716
vn 0 0.49859135 -0.86683716
vn -1 0 0
vn 0 -1 0
vn 0 -0.49859135 -0.86683716
vn 0 -0.49859135 0.86683716
vn -1 0 0
vn 0 -1 0
vn 0 -0.49859135 0.86683716
vn 0 0.49859135 0.86683716
vn -1 0 0
vn 0 0.49859135 0.86683716
vn -1 0 0
vn 0 1 0
vn -1 0 0
vn 0 1 0
vn 0 0.49859135 -0.86683716
vn -1 0 0
vn 0 -0.49859135 -0.86683716
vn 0 0.49859135 -0.86683716
vn 0 -1 0
vn 0 -0.49859135 -0.86683716
vn 0 -0.49859135 0.86683716
vn 0 -1 0
vn 0 -0.49859135 0.86683716
vn 0 0.49859135 0.86683716
vn 0 0.49859135 0.86683716
vn 0 1 0
vn 0 1 0
vn 0 0.49859135 -0.86683716
vn -1 0 0
vn 0 -0.49859135 -0.86683716
vn 0 0.49859135 -0.86683716
vn -1 0 0
vn 0 -1 0
vn 0 -0.49859135 -0.86683716
vn 0 -0.49859135 0.86683716
vn -1 0 0
vn 0 -1 0
vn 0 -0.49859135 0.86683716
vn 0 0.49859135 0.86683716
vn -1 0 0
vn 0 0.49859135 0.86683716
vn -1 0 0
vn 0 1 0
vn -1 0 0
vn 0 1 0
vn 0 0.49859135 -0.86683716
vn -1 0 0
vn 0 -0.49859135 -0.86683716
vn 0 0.49859135 -0.86683716
vn 0 -1 0
vn 0 -0.49859135 -0.86683716
vn 0 -0.49859135 0.86683716
vn 0 -1 0
vn 0 -0.49859135 0.86683716
vn 0 0.49859135 0.86683716
vn 0 0.49859135 0.86683716
vn 0 1 0
vn 0 1 0
vn 0 0.49859135 -0.86683716
vn -1 0 0
vn 0 -0.49859135 -0.86683716
vn 0 0.49859135 -0.86683716
vn -1 0 0
vn 0 -1 0
vn 0 -0.49859135 -0.86683716
vn 0 -0.49859135 0.86683716
vn -1 0 0
vn 0 -1 0
vn 0 -0.49859135 0.86683716
vn 0 0.49859135 0.86683716
vn -1 0 0
vn 0 0.49859135 0.86683716
vn -1 0 0
vn 0 1 0
vn -1 0 0
vn 0 1 0
vn 0 0.49859135 -0.86683716
vn -1 0 0
vn 0 -0.49859135 -0.86683716
vn 0 0.49859135 -0.86683716
vn 0 -1 0
vn 0 -0.49859135 -0.86683716
vn 0 -0.49859135 0.86683716
vn 0 -1 0
vn 0 -0.49859135 0.86683716
vn 0 0.49859135 0.86683716
vn 0 0.49859135 0.86683716
vn 0 1 0
vn 0 1 0
vn 0 0.49859135 -0.86683716
vn -1 0 0
vn 0 -0.49859135 -0.86683716
vn 0 0.49859135 -0.86683716
vn -1 0 0
vn 0 -1 0
vn 0 -0.49859135 -0.86683716
vn 0 -0.49859135 0.86683716
vn -1 0 0
vn 0 -1 0
vn 0 -0.49859135 0.86683716
vn 0 0.49859135 0.86683716
vn -1 0 0
vn 0 0.49859135 0.86683716
vn -1 0 0
vn 0 1 0
vn -1 0 0
vn 0 1 0
vn 0 0.49859135 -0.86683716
vn -1 0 0
vn 0 -0.49859135 -0.86683716
vn 0 0.49859135 -0.86683716
vn 0 -1 0
vn 0 -0.49859135 -0.86683716
vn 0 -0.49859135 0.86683716
vn 0 -1 0
vn 0 -0.49859135 0.86683716
vn 0 0.49859135 0.86683716
vn 0 0.49859135 0.86683716
vn 0 1 0
vn 0 1 0
vn 0 0.49859135 -0.86683716
vn -1 0 0
vn 0 -0.49859135 -0.86683716
vn 0 0.49859135 -0.86683716
vn -1 0 0
vn 0 -1 0
vn 0 -0.49859135 -0.86683716
vn 0 -0.49859135 0.86683716
vn -1 0 0
vn 0 -1 0
vn 0 -0.49859135 0.86683716
vn 0 0.49859135 0.86683716
vn -1 0 0
vn 0 0.49859135 0.86683716
vn -1 0 0
vn 0 1 0
vn -1 0 0
vn 0 1 0
vn 0 0.49859135 -0.86683716
vn -1 0 0
vn 0 -0.49859135 -0.86683716
vn 0 0.49859135 -0.86683716
vn 0 -1 0
vn 0 -0.49859135 -0.86683716
vn 0 -0.49859135 0.86683716
vn 0 -1 0
vn 0 -0.49859135 0.86683716
vn 0 0.49859135 0.86683716
vn 0 0.49859135 0.86683716
vn 0 1 0
vn 0 1 0
vn 0 0.49859135 -0.86683716
vn 1 0 0
vn 0 -0.49859135 -0.86683716
vn 0 0.49859135 -0.86683716
vn 0 -1 0
vn 1 0 0
vn 0 -0.49859135 -0.86683716
vn 0 -0.49859135 0.86683716
vn 0 -1 0
vn 1 0 0
vn 0 -0.49859135 0.86683716
vn 0 0.49859135 0.86683716
vn 1 0 0
vn 0 0.49859135 0.86683716
vn 0 1 0
vn 1 0 0
vn 0 1 0
vn 1 0 0
vn 0 0.49859135 -0.86683716
vn 1 0 0
vn 0 -0.49859135 -0.86683716
vn 0 0.49859135 -0.86683716
vn 0 -1 0
vn 0 -0.49859135 -0.86683716
vn 0 -0.49859135 0.86683716
vn 0 -1 0
vn 0 -0.49859135 0.86683716
vn 0 0.49859135 0.86683716
vn 0 0.49859135 0.86683716
vn 0 1 0
vn 0 1 0
vn 0 0.49859135 -0.86683716
vn 1 0 0
vn 0 -0.49859135 -0.86683716
vn 0 0.49859135 -0.86683716
vn 0 -1 0
vn 1 0 0
vn 0 -0.49859135 -0.86683716
vn 0 -0.49859135 0.86683716
vn 0 -1 0
vn 1 0 0
vn 0 -0.49859135 0.86683716
vn 0 0.49859135 0.86683716
vn 1 0 0
vn 0 0.49859135 0.86683716
vn 0 1 0
vn 1 0 0
vn 0 1 0
vn 1 0 0
vn 0 0.49859135 -0.86683716
vn 1 0 0
vn 0 -0.49859135 -0.86683716
vn 0 0.49859135 -0.86683716
vn 0 -1 0
vn 0 -0.49859135 -0.86683716
vn 0 -0.49859135 0.86683716
vn 0 -1 0
vn 0 -0.49859135 0.86683716
vn 0 0.49859135 0.86683716
vn 0 0.49859135 0.86683716
vn 0 1 0
vn 0 1 0
vn 0 0.49859135 -0.86683716
vn 1 0 0
vn 0 -0.49859135 -0.86683716
vn 0 0.49859135 -0.86683716
vn 0 -1 0
vn 1 0 0
vn 0 -0.49859135 -0.86683716
vn 0 -0.49859135 0.86683716
vn 0 -1 0
vn 1 0 0
vn 0 -0.49859135 0.86683716
vn 0 0.49859135 0.86683716
vn 1 0 0
vn 0 0.49859135 0.86683716
vn 0 1 0
vn 1 0 0
vn 0 1 0
vn 1 0 0
vn 0 0.49859135 -0.86683716
vn 1 0 0
vn 0 -0.49859135 -0.86683716
vn 0 0.49859135 -0.86683716
vn 0 -1 0
vn 0 -0.49859135 -0.86683716
vn 0 -0.49859135 0.86683716
vn 0 -1 0
vn 0 -0.49859135 0.86683716
vn 0 0.49859135 0.86683716
vn 0 0.49859135 0.86683716
vn 0 1 0
vn 0 1 0
vn 0 0.49859135 -0.86683716
vn 1 0 0
vn 0 -0.49859135 -0.86683716
vn 0 0.49859135 -0.86683716
vn 0 -1 0
vn 1 0 0
vn 0 -0.49859135 -0.86683716
vn 0 -0.49859135 0.86683716
vn 0 -1 0
vn 1 0 0
vn 0 -0.49859135 0.86683716
vn 0 0.49859135 0.86683716
vn 1 0 0
vn 0 0.49859135 0.86683716
vn 0 1 0
vn 1 0 0
vn 0 1 0
vn 1 0 0
vn 0 0.49859135 -0.86683716
vn 1 0 0
vn 0 -0.49859135 -0.86683716
vn 0 0.49859135 -0.86683716
vn 0 -1 0
vn 0 -0.49859135 -0.86683716
vn 0 -0.49859135 0.86683716
vn 0 -1 0
vn 0 -0.49859135 0.86683716
vn 0 0.49859135 0.86683716
vn 0 0.49859135 0.86683716
vn 0 1 0
vn 0 1 0
vn 0 0.49859135 -0.86683716
vn 1 0 0
vn 0 -0.49859135 -0.86683716
vn 0 0.49859135 -0.86683716
vn 0 -1 0
vn 1 0 0
vn 0 -0.49859135 -0.86683716
vn 0 -0.49859135 0.86683716
vn 0 -1 0
vn 1 0 0
vn 0 -0.49859135 0.86683716
vn 0 0.49859135 0.86683716
vn 1 0 0
vn 0 0.49859135 0.86683716
vn 0 1 0
vn 1 0 0
vn 0 1 0
vn 1 0 0
vn 0 0.49859135 -0.86683716
vn 1 0 0
vn 0 -0.49859135 -0.86683716
vn 0 0.49859135 -0.86683716
vn 0 -1 0
vn 0 -0.49859135 -0.86683716
vn 0 -0.49859135 0.86683716
vn 0 -1 0
vn 0 -0.49859135 0.86683716
vn 0 0.49859135 0.86683716
vn 0 0.49859135 0.86683716
vn 0 1 0
vn 0 1 0
vn 0 0.49859135 -0.86683716
vn 1 0 0
vn 0 -0.49859135 -0.86683716
vn 0 0.49859135 -0.86683716
vn 0 -1 0
vn 1 0 0
vn 0 -0.49859135 -0.86683716
vn 0 -0.49859135 0.86683716
vn 0 -1 0
vn 1 0 0
vn 0 -0.49859135 0.86683716
vn 0 0.49859135 0.86683716
vn 1 0 0
vn 0 0.49859135 0.86683716
vn 0 1 0
vn 1 0 0
vn 0 1 0
vn 1 0 0
vn 0 0.49859135 -0.86683716
vn 1 0 0
vn 0 -0.49859135 -0.86683716
vn 0 0.49859135 -0.86683716
vn 0 -1 0
vn 0 -0.49859135 -0.86683716
vn 0 -0.49859135 0.86683716
vn 0 -1 0
vn 0 -0.49859135 0.86683716
vn 0 0.49859135 0.86683716
vn 0 0.49859135 0.86683716
vn 0 1 0
vn 0 1 0
vn 0 0.49859135 -0.86683716
vn 1 0 0
vn 0 -0.49859135 -0.86683716
vn 0 0.49859135 -0.86683716
vn 0 -1 0
vn 1 0 0
vn 0 -0.49859135 -0.86683716
vn 0 -0.49859135 0.86683716
vn 0 -1 0
vn 1 0 0
vn 0 -0.49859135 0.86683716
vn 0 0.49859135 0.86683716
vn 1 0 0
vn 0 0.49859135 0.86683716
vn 0 1 0
vn 1 0 0
vn 0 1 0
vn 1 0 0
vn 0 0.49859135 -0.86683716
vn 1 0 0
vn 0 -0.49859135 -0.86683716
vn 0 0.49859135 -0.86683716
vn 0 -1 0
vn 0 -0.49859135 -0.86683716
vn 0 -0.49859135 0.86683716
vn 0 -1 0
vn 0 -0.49859135 0.86683716
vn 0 0.49859135 0.86683716
vn 0 0.49859135 0.86683716
vn 0 1 0
vn 0 1 0
vn 0 0.49859135 -0.86683716
vn 1 0 0
vn 0 -0.49859135 -0.86683716
vn 0 0.49859135 -0.86683716
vn 0 -1 0
vn 1 0 0
vn 0 -0.49859135 -0.86683716
vn 0 -0.49859135 0.86683716
vn 0 -1 0
vn 1 0 0
vn 0 -0.49859135 0.86683716
vn 0 0.49859135 0.86683716
vn 1 0 0
vn 0 0.49859135 0.86683716
vn 0 1 0
vn 1 0 0
vn 0 1 0
vn 1 0 0
vn 0 0.49859135 -0.86683716
vn 1 0 0
usemtl surface_0
f 329/329/329 2/2/2 328/328/328
f 329/329/329 4/4/4 2/2/2
f 330/330/330 4/4/4 329/329/329
f 330/330/330 6/6/6 4/4/4
f 331/331/331 6/6/6 330/330/330
f 331/331/331 8/8/8 6/6/6
f 332/332/332 8/8/8 331/331/331
f 332/332/332 11/11/11 8/8/8
f 333/333/333 11/11/11 332/332/332
f 333/333/333 13/13/13 11/11/11
f 334/334/334 13/13/13 333/333/333
f 334/334/334 15/15/15 13/13/13
f 336/336/336 16/16/16 335/335/335
f 336/336/336 18/18/18 16/16/16
f 337/337/337 18/18/18 336/336/336
f 337/337/337 20/20/20 18/18/18
f 338/338/338 20/20/20 337/337/337
f 338/338/338 21/21/21 20/20/20
f 339/339/339 21/21/21 338/338/338
f 339/339/339 23/23/23 21/21/21
f 340/340/340 23/23/23 339/339/339
f 340/340/340 25/25/25 23/23/23
f 327/327/327 25/25/25 340/340/340
f 327/327/327 1/1/1 25/25/25
f 129/129/129 27/27/27 29/29/29
f 129/129/129 131/131/131 27/27/27
f 135/135/135 27/27/27 131/131/131
f 135/135/135 50/50/50 27/27/27
f 139/139/139 50/50/50 135/135/135
f 139/139/139 48/48/48 50/50/50
f 144/144/144 48/48/48 139/139/139
f 144/144/144 47/47/47 48/48/48
f 148/148/148 47/47/47 144/144/144
f 148/148/148 45/45/45 47/47/47
f 153/153/153 45/45/45 148/148/148
f 153/153/153 43/43/43 45/45/45
f 157/157/157 42/42/42 152/152/152
f 157/157/157 40/40/40 42/42/42
f 161/161/161 40/40/40 157/157/157
f 161/161/161 38/38/38 40/40/40
f 164/164/164 38/38/38 161/161/161
f 164/164/164 36/36/36 38/38/38
f 168/168/168 36/36/36 164/164/164
f 168/168/168 33/33/33 36/36/36
f 172/172/172 33/33/33 168/168/168
f 172/172/172 31/31/31 33/33/33
f 129/129/129 31/31/31 172/172/172
f 129/129/129 29/29/29 31/31/31
f 3/3/3 134/134/134 128/128/128
f 3/3/3 5/5/5 134/134/134
f 134/134/134 7/7/7 138/138/138
f 134/134/134 5/5/5 7/7/7
f 138/138/138 9/9/9 141/141/141
f 138/138/138 7/7/7 9/9/9
f 141/141/141 10/10/10 145/145/145
f 141/141/141 9/9/9 10/10/10
f 145/145/145 12/12/12 149/149/149
f 145/145/145 10/10/10 12/12/12
f 149/149/149 14/14/14 154/154/154
f 149/149/149 12/12/12 14/14/14
f 14/14/14 158/158/158 154/154/154
f 14/14/14 17/17/17 158/158/158
f 158/158/158 19/19/19 162/162/162
f 158/158/158 17/17/17 19/19/19
f 19/19/19 166/166/166 162/162/162
f 19/19/19 22/22/22 166/166/166
f 166/166/166 24/24/24 171/171/171
f 166/166/166 22/22/22 24/24/24
f 171/171/171 26/26/26 175/175/175
f 171/171/171 24/24/24 26/26/26
f 26/26/26 128/128/128 175/175/175
f 26/26/26 3/3/3 128/128/128
f 77/77/77 102/102/102 104/104/104
f 77/77/77 79/79/79 102/102/102
f 79/79/79 125/125/125 102/102/102
f 79/79/79 81/81/81 125/125/125
f 81/81/81 123/123/123 125/125/125
f 81/81/81 83/83/83 123/123/123
f 83/83/83 120/120/120 123/123/123
f 83/83/83 84/84/84 120/120/120
f 84/84/84 118/118/118 120/120/120
f 84/84/84 86/86/86 118/118/118
f 86/86/86 116/116/116 118/118/118
f 86/86/86 89/89/89 116/116/116
f 88/88/88 113/113/113 115/115/115
f 88/88/88 91/91/91 113/113/113
f 91/91/91 111/111/111 113/113/113
f 91/91/91 93/93/93 111/111/111
f 93/93/93 110/110/110 111/111/111
f 93/93/93 96/96/96 110/110/110
f 96/96/96 108/108/108 110/110/110
f 96/96/96 98/98/98 108/108/108
f 98/98/98 106/106/106 108/108/108
f 98/98/98 100/100/100 106/106/106
f 100/100/100 104/104/104 106/106/106
f 100/100/100 77/77/77 104/104/104
f 30/30/30 78/78/78 76/76/76
f 30/30/30 28/28/28 78/78/78
f 28/28/28 80/80/80 78/78/78
f 28/28/28 51/51/51 80/80/80
f 51/51/51 82/82/82 80/80/80
f 51/51/51 49/49/49 82/82/82
f 49/49/49 85/85/85 82/82/82
f 49/49/49 46/46/46 85/85/85
f 46/46/46 87/87/87 85/85/85
f 46/46/46 44/44/44 87/87/87
f 44/44/44 90/90/90 87/87/87
f 44/44/44 41/41/41 90/90/90
f 41/41/41 92/92/92 90/90/90
f 41/41/41 39/39/39 92/92/92
f 39/39/39 94/94/94 92/92/92
f 39/39/39 37/37/37 94/94/94
f 37/37/37 95/95/95 94/94/94
f 37/37/37 35/35/35 95/95/95
f 35/35/35 97/97/97 95/95/95
f 35/35/35 34/34/34 97/97/97
f 34/34/34 99/99/99 97/97/97
f 34/34/34 32/32/32 99/99/99
f 32/32/32 76/76/76 99/99/99
f 32/32/32 30/30/30 76/76/76
f 103/103/103 101/101/101 126/126/126
f 105/105/105 103/103/103 126/126/126
f 107/107/107 105/105/105 126/126/126
f 109/109/109 107/107/107 126/126/126
f 112/112/112 109/109/109 126/126/126
f 114/114/114 112/112/112 126/126/126
f 117/117/117 114/114/114 126/126/126
f 119/119/119 117/117/117 126/126/126
f 121/121/121 119/119/119 126/126/126
f 122/122/122 121/121/121 126/126/126
f 124/124/124 122/122/122 126/126/126
f 101/101/101 124/124/124 126/126/126
f 132/132/132 127/127/127 133/133/133
f 132/132/132 130/130/130 127/127/127
f 136/136/136 133/133/133 137/137/137
f 136/136/136 132/132/132 133/133/133
f 140/140/140 137/137/137 142/142/142
f 140/140/140 136/136/136 137/137/137
f 143/143/143 142/142/142 146/146/146
f 143/143/143 140/140/140 142/142/142
f 147/147/147 146/146/146 150/150/150
f 147/147/147 143/143/143 146/146/146
f 151/151/151 150/150/150 155/155/155
f 151/151/151 147/147/147 150/150/150
f 156/156/156 155/155/155 159/159/159
f 156/156/156 151/151/151 155/155/155
f 160/160/160 159/159/159 163/163/163
f 160/160/160 156/156/156 159/159/159
f 165/165/165 163/163/163 167/167/167
f 165/165/165 160/160/160 163/163/163
f 169/169/169 167/167/167 170/170/170
f 169/169/169 165/165/165 167/167/167
f 174/174/174 169/169/169 170/170/170
f 174/174/174 173/173/173 169/169/169
f 130/130/130 174/174/174 127/127/127
f 130/130/130 173/173/173 174/174/174
f 178/178/178 343/343/343 341/341/341
f 178/178/178 176/176/176 343/343/343
f 176/176/176 344/344/344 343/343/343
f 176/176/176 181/181/181 344/344/344
f 181/181/181 345/345/345 344/344/344
f 181/181/181 183/183/183 345/345/345
f 183/183/183 346/346/346 345/345/345
f 183/183/183 186/186/186 346/346/346
f 186/186/186 347/347/347 346/346/346
f 186/186/186 188/188/188 347/347/347
f 188/188/188 349/349/349 347/347/347
f 188/188/188 191/191/191 349/349/349
f 190/190/190 350/350/350 348/348/348
f 190/190/190 193/193/193 350/350/350
f 193/193/193 351/351/351 350/350/350
f 193/193/193 195/195/195 351/351/351
f 195/195/195 352/352/352 351/351/351
f 195/195/195 196/196/196 352/352/352
f 196/196/196 353/353/353 352/352/352
f 196/196/196 198/198/198 353/353/353
f 198/198/198 354/354/354 353/353/353
f 198/198/198 200/200/200 354/354/354
f 200/200/200 342/342/342 354/354/354
f 200/200/200 179/179/179 342/342/342
f 204/204/204 208/208/208 206/206/206
f 204/204/204 202/202/202 208/208/208
f 204/204/204 212/212/212 202/202/202
f 204/204/204 210/210/210 212/212/212
f 210/210/210 216/216/216 212/212/212
f 210/210/210 214/214/214 216/216/216
f 214/214/214 221/221/221 216/216/216
f 214/214/214 219/219/219 221/221/221
f 219/219/219 225/225/225 221/221/221
f 219/219/219 223/223/223 225/225/225
f 223/223/223 231/231/231 225/225/225
f 223/223/223 228/228/228 231/231/231
f 227/227/227 235/235/235 230/230/230
f 227/227/227 233/233/233 235/235/235
f 233/233/233 239/239/239 235/235/235
f 233/233/233 237/237/237 239/239/239
f 237/237/237 242/242/242 239/239/239
f 237/237/237 241/241/241 242/242/242
f 241/241/241 246/246/246 242/242/242
f 241/241/241 244/244/244 246/246/246
f 244/244/244 250/250/250 246/246/246
f 244/244/244 248/248/248 250/250/250
f 248/248/248 208/208/208 250/250/250
f 248/248/248 206/206/206 208/208/208
f 180/180/180 253/253/253 177/177/177
f 180/180/180 255/255/255 253/253/253
f 182/182/182 253/253/253 257/257/257
f 182/182/182 177/177/177 253/253/253
f 184/184/184 257/257/257 258/258/258
f 184/184/184 182/182/182 257/257/257
f 185/185/185 258/258/258 260/260/260
f 185/185/185 184/184/184 258/258/258
f 187/187/187 260/260/260 262/262/262
f 187/187/187 185/185/185 260/260/260
f 189/189/189 262/262/262 264/264/264
f 189/189/189 187/187/187 262/262/262
f 189/189/189 266/266/266 192/192/192
f 189/189/189 264/264/264 266/266/266
f 194/194/194 266/266/266 268/268/268
f 194/194/194 192/192/192 266/266/266
f 194/194/194 270/270/270 197/197/197
f 194/194/194 268/268/268 270/270/270
f 199/199/199 270/270/270 273/273/273
f 199/199/199 197/197/197 270/270/270
f 201/201/201 273/273/273 275/275/275
f 201/201/201 199/199/199 273/273/273
f 201/201/201 255/255/255 180/180/180
f 201/201/201 275/275/275 255/255/255
f 277/277/277 281/281/281 279/279/279
f 277/277/277 283/283/283 281/281/281
f 279/279/279 287/287/287 285/285/285
f 279/279/279 281/281/281 287/287/287
f 285/285/285 291/291/291 289/289/289
f 285/285/285 287/287/287 291/291/291
f 289/289/289 294/294/294 292/292/292
f 289/289/289 291/291/291 294/294/294
f 292/292/292 298/298/298 296/296/296
f 292/292/292 294/294/294 298/298/298
f 296/296/296 304/304/304 301/301/301
f 296/296/296 298/298/298 304/304/304
f 300/300/300 308/308/308 306/306/306
f 300/300/300 303/303/303 308/308/308
f 306/306/306 312/312/312 310/310/310
f 306/306/306 308/308/308 312/312/312
f 310/310/310 317/317/317 315/315/315
f 310/310/310 312/312/312 317/317/317
f 315/315/315 321/321/321 319/319/319
f 315/315/315 317/317/317 321/321/321
f 319/319/319 325/325/325 323/323/323
f 319/319/319 321/321/321 325/325/325
f 323/323/323 283/283/283 277/277/277
f 323/323/323 325/325/325 283/283/283
f 207/207/207 278/278/278 205/205/205
f 207/207/207 276/276/276 278/278/278
f 205/205/205 284/284/284 211/211/211
f 205/205/205 278/278/278 284/284/284
f 211/211/211 288/288/288 215/215/215
f 211/211/211 284/284/284 288/288/288
f 215/215/215 293/293/293 218/218/218
f 215/215/215 288/288/288 293/293/293
f 218/218/218 297/297/297 222/222/222
f 218/218/218 293/293/293 297/297/297
f 222/222/222 302/302/302 226/226/226
f 222/222/222 297/297/297 302/302/302
f 226/226/226 307/307/307 232/232/232
f 226/226/226 302/302/302 307/307/307
f 232/232/232 311/311/311 236/236/236
f 232/232/232 307/307/307 311/311/311
f 236/236/236 314/314/314 240/240/240
f 236/236/236 311/311/311 314/314/314
f 240/240/240 318/318/318 245/245/245
f 240/240/240 314/314/314 318/318/318
f 245/245/245 322/322/322 249/249/249
f 245/245/245 318/318/318 322/322/322
f 249/249/249 276/276/276 207/207/207
f 249/249/249 322/322/322 276/276/276
f 282/282/282 326/326/326 280/280/280
f 324/324/324 326/326/326 282/282/282
f 320/320/320 326/326/326 324/324/324
f 316/316/316 326/326/326 320/320/320
f 313/313/313 326/326/326 316/316/316
f 309/309/309 326/326/326 313/313/313
f 305/305/305 326/326/326 309/309/309
f 299/299/299 326/326/326 305/305/305
f 295/295/295 326/326/326 299/299/299
f 290/290/290 326/326/326 295/295/295
f 286/286/286 326/326/326 290/290/290
f 280/280/280 326/326/326 286/286/286
f 203/203/203 254/254/254 209/209/209
f 203/203/203 252/252/252 254/254/254
f 213/213/213 252/252/252 203/203/203
f 213/213/213 256/256/256 252/252/252
f 217/217/217 256/256/256 213/213/213
f 217/217/217 259/259/259 256/256/256
f 220/220/220 259/259/259 217/217/217
f 220/220/220 261/261/261 259/259/259
f 224/224/224 261/261/261 220/220/220
f 224/224/224 263/263/263 261/261/261
f 229/229/229 263/263/263 224/224/224
f 229/229/229 265/265/265 263/263/263
f 234/234/234 265/265/265 229/229/229
f 234/234/234 267/267/267 265/265/265
f 238/238/238 267/267/267 234/234/234
f 238/238/238 269/269/269 267/267/267
f 243/243/243 269/269/269 238/238/238
f 243/243/243 271/271/271 269/269/269
f 247/247/247 271/271/271 243/243/243
f 247/247/247 272/272/272 271/271/271
f 247/247/247 274/274/274 272/272/272
f 247/247/247 251/251/251 274/274/274
f 209/209/209 274/274/274 251/251/251
f 209/209/209 254/254/254 274/274/274
f 329/329/329 55/55/55 53/53/53
f 329/329/329 328/328/328 55/55/55
f 330/330/330 53/53/53 57/57/57
f 330/330/330 329/329/329 53/53/53
f 331/331/331 57/57/57 58/58/58
f 331/331/331 330/330/330 57/57/57
f 332/332/332 58/58/58 60/60/60
f 332/332/332 331/331/331 58/58/58
f 333/333/333 60/60/60 62/62/62
f 333/333/333 332/332/332 60/60/60
f 334/334/334 62/62/62 64/64/64
f 334/334/334 333/333/333 62/62/62
f 336/336/336 65/65/65 67/67/67
f 336/336/336 335/335/335 65/65/65
f 337/337/337 67/67/67 69/69/69
f 337/337/337 336/336/336 67/67/67
f 338/338/338 69/69/69 70/70/70
f 338/338/338 337/337/337 69/69/69
f 339/339/339 70/70/70 72/72/72
f 339/339/339 338/338/338 70/70/70
f 340/340/340 72/72/72 74/74/74
f 340/340/340 339/339/339 72/72/72
f 327/327/327 74/74/74 54/54/54
f 327/327/327 340/340/340 74/74/74
f 341/341/341 52/52/52 54/54/54
f 341/341/341 343/343/343 52/52/52
f 343/343/343 56/56/56 52/52/52
f 343/343/343 344/344/344 56/56/56
f 344/344/344 59/59/59 56/56/56
f 344/344/344 345/345/345 59/59/59
f 345/345/345 61/61/61 59/59/59
f 345/345/345 346/346/346 61/61/61
f 346/346/346 63/63/63 61/61/61
f 346/346/346 347/347/347 63/63/63
f 347/347/347 65/65/65 63/63/63
f 347/347/347 349/349/349 65/65/65
f 348/348/348 66/66/66 64/64/64
f 348/348/348 350/350/350 66/66/66
f 350/350/350 68/68/68 66/66/66
f 350/350/350 351/351/351 68/68/68
f 351/351/351 71/71/71 68/68/68
f 351/351/351 352/352/352 71/71/71
f 352/352/352 73/73/73 71/71/71
f 352/352/352 353/353/353 73/73/73
f 353/353/353 75/75/75 73/73/73
f 353/353/353 354/354/354 75/75/75
f 354/354/354 55/55/55 75/75/75
f 354/354/354 342/342/342 55/55/55
f 355/355/355 372/372/372 368/368/368
f 355/355/355 358/358/358 372/372/372
f 357/357/357 375/375/375 371/371/371
f 357/357/357 360/360/360 375/375/375
f 359/359/359 376/376/376 373/373/373
f 359/359/359 361/361/361 376/376/376
f 362/362/362 379/379/379 377/377/377
f 362/362/362 363/363/363 379/379/379
f 364/364/364 383/383/383 381/381/381
f 364/364/364 365/365/365 383/383/383
f 366/366/366 369/369/369 384/384/384
f 366/366/366 356/356/356 369/369/369
f 367/367/367 370/370/370 385/385/385
f 370/370/370 374/374/374 385/385/385
f 374/374/374 378/378/378 385/385/385
f 378/378/378 380/380/380 385/385/385
f 380/380/380 382/382/382 385/385/385
f 382/382/382 367/367/367 385/385/385
f 386/386/386 403/403/403 399/399/399
f 386/386/386 389/389/389 403/403/403
f 388/388/388 406/406/406 402/402/402
f 388/388/388 391/391/391 406/406/406
f 390/390/390 407/407/407 404/404/404
f 390/390/390 392/392/392 407/407/407
f 393/393/393 410/410/410 408/408/408
f 393/393/393 394/394/394 410/410/410
f 395/395/395 414/414/414 412/412/412
f 395/395/395 396/396/396 414/414/414
f 397/397/397 400/400/400 415/415/415
f 397/397/397 387/387/387 400/400/400
f 398/398/398 401/401/401 416/416/416
f 401/401/401 405/405/405 416/416/416
f 405/405/405 409/409/409 416/416/416
f 409/409/409 411/411/411 416/416/416
f 411/411/411 413/413/413 416/416/416
f 413/413/413 398/398/398 416/416/416
f 417/417/417 434/434/434 430/430/430
f 417/417/417 420/420/420 434/434/434
f 419/419/419 437/437/437 433/433/433
f 419/419/419 422/422/422 437/437/437
f 421/421/421 438/438/438 435/435/435
f 421/421/421 423/423/423 438/438/438
f 424/424/424 441/441/441 439/439/439
f 424/424/424 425/425/425 441/441/441
f 426/426/426 445/445/445 443/443/443
f 426/426/426 427/427/427 445/445/445
f 428/428/428 431/431/431 446/446/446
f 428/428/428 418/418/418 431/431/431
f 429/429/429 432/432/432 447/447/447
f 432/432/432 436/436/436 447/447/447
f 436/436/436 440/440/440 447/447/447
f 440/440/440 442/442/442 447/447/447
f 442/442/442 444/444/444 447/447/447
f 444/444/444 429/429/429 447/447/447
f 448/448/448 465/465/465 461/461/461
f 448/448/448 451/451/451 465/465/465
f 450/450/450 468/468/468 464/464/464
f 450/450/450 453/453/453 468/468/468
f 452/452/452 469/469/469 466/466/466
f 452/452/452 454/454/454 469/469/469
f 455/455/455 472/472/472 470/470/470
f 455/455/455 456/456/456 472/472/472
f 457/457/457 476/476/476 474/474/474
f 457/457/457 458/458/458 476/476/476
f 459/459/459 462/462/462 477/477/477
f 459/459/459 449/449/449 462/462/462
f 460/460/460 463/463/463 478/478/478
f 463/463/463 467/467/467 478/478/478
f 467/467/467 471/471/471 478/478/478
f 471/471/471 473/473/473 478/478/478
f 473/473/473 475/475/475 478/478/478
f 475/475/475 460/460/460 478/478/478
f 479/479/479 496/496/496 492/492/492
f 479/479/479 482/482/482 496/496/496
f 481/481/481 499/499/499 495/495/495
f 481/481/481 484/484/484 499/499/499
f 483/483/483 500/500/500 497/497/497
f 483/483/483 485/485/485 500/500/500
f 486/486/486 503/503/503 501/501/501
f 486/486/486 487/487/487 503/503/503
f 488/488/488 507/507/507 505/505/505
f 488/488/488 489/489/489 507/507/507
f 490/490/490 493/493/493 508/508/508
f 490/490/490 480/480/480 493/493/493
f 491/491/491 494/494/494 509/509/509
f 494/494/494 498/498/498 509/509/509
f 498/498/498 502/502/502 509/509/509
f 502/502/502 504/504/504 509/509/509
f 504/504/504 506/506/506 509/509/509
f 506/506/506 491/491/491 509/509/509
f 510/510/510 527/527/527 523/523/523
f 510/510/510 513/513/513 527/527/527
f 512/512/512 530/530/530 526/526/526
f 512/512/512 515/515/515 530/530/530
f 514/514/514 531/531/531 528/528/528
f 514/514/514 516/516/516 531/531/531
f 517/517/517 534/534/534 532/532/532
f 517/517/517 518/518/518 534/534/534
f 519/519/519 538/538/538 536/536/536
f 519/519/519 520/520/520 538/538/538
f 521/521/521 524/524/524 539/539/539
f 521/521/521 511/511/511 524/524/524
f 522/522/522 525/525/525 540/540/540
f 525/525/525 529/529/529 540/540/540
f 529/529/529 533/533/533 540/540/540
f 533/533/533 535/535/535 540/540/540
f 535/535/535 537/537/537 540/540/540
f 537/537/537 522/522/522 540/540/540
f 541/541/541 558/558/558 554/554/554
f 541/541/541 544/544/544 558/558/558
f 543/543/543 561/561/561 557/557/557
f 543/543/543 546/546/546 561/561/561
f 545/545/545 562/562/562 559/559/559
f 545/545/545 547/547/547 562/562/562
f 548/548/548 565/565/565 563/563/563
f 548/548/548 549/549/549 565/565/565
f 550/550/550 569/569/569 567/567/567
f 550/550/550 551/551/551 569/569/569
f 552/552/552 555/555/555 570/570/570
f 552/552/552 542/542/542 555/555/555
f 553/553/553 556/556/556 571/571/571
f 556/556/556 560/560/560 571/571/571
f 560/560/560 564/564/564 571/571/571
f 564/564/564 566/566/566 571/571/571
f 566/566/566 568/568/568 571/571/571
f 568/568/568 553/553/553 571/571/571
f 572/572/572 589/589/589 585/585/585
f 572/572/572 575/575/575 589/589/589
f 574/574/574 592/592/592 588/588/588
f 574/574/574 577/577/577 592/592/592
f 576/576/576 593/593/593 590/590/590
f 576/576/576 578/578/578 593/593/593
f 579/579/579 596/596/596 594/594/594
f 579/579/579 580/580/580 596/596/596
f 581/581/581 600/600/600 598/598/598
f 581/581/581 582/582/582 600/600/600
f 583/583/583 586/586/586 601/601/601
f 583/583/583 573/573/573 586/586/586
f 584/584/584 587/587/587 602/602/602
f 587/587/587 591/591/591 602/602/602
f 591/591/591 595/595/595 602/602/602
f 595/595/595 597/597/597 602/602/602
f 597/597/597 599/599/599 602/602/602
f 599/599/599 584/584/584 602/602/602
f 603/603/603 620/620/620 606/606/606
f 603/603/603 616/616/616 620/620/620
f 605/605/605 622/622/622 608/608/608
f 605/605/605 618/618/618 622/622/622
f 607/607/607 624/624/624 609/609/609
f 607/607/607 621/621/621 624/624/624
f 610/610/610 627/627/627 611/611/611
f 610/610/610 625/625/625 627/627/627
f 612/612/612 630/630/630 613/613/613
f 612/612/612 628/628/628 630/630/630
f 614/614/614 617/617/617 604/604/604
f 614/614/614 632/632/632 617/617/617
f 615/615/615 633/633/633 619/619/619
f 619/619/619 633/633/633 623/623/623
f 623/623/623 633/633/633 626/626/626
f 626/626/626 633/633/633 629/629/629
f 629/629/629 633/633/633 631/631/631
f 631/631/631 633/633/633 615/615/615
f 634/634/634 651/651/651 637/637/637
f 634/634/634 647/647/647 651/651/651
f 636/636/636 653/653/653 639/639/639
f 636/636/636 649/649/649 653/653/653
f 638/638/638 655/655/655 640/640/640
f 638/638/638 652/652/652 655/655/655
f 641/641/641 658/658/658 642/642/642
f 641/641/641 656/656/656 658/658/658
f 643/643/643 661/661/661 644/644/644
f 643/643/643 659/659/659 661/661/661
f 645/645/645 648/648/648 635/635/635
f 645/645/645 663/663/663 648/648/648
f 646/646/646 664/664/664 650/650/650
f 650/650/650 664/664/664 654/654/654
f 654/654/654 664/664/664 657/657/657
f 657/657/657 664/664/664 660/660/660
f 660/660/660 664/664/664 662/662/662
f 662/662/662 664/664/664 646/646/646
f 665/665/665 682/682/682 668/668/668
f 665/665/665 678/678/678 682/682/682
f 667/667/667 684/684/684 670/670/670
f 667/667/667 680/680/680 684/684/684
f 669/669/669 686/686/686 671/671/671
f 669/669/669 683/683/683 686/686/686
f 672/672/672 689/689/689 673/673/673
f 672/672/672 687/687/687 689/689/689
f 674/674/674 692/692/692 675/675/675
f 674/674/674 690/690/690 692/692/692
f 676/676/676 679/679/679 666/666/666
f 676/676/676 694/694/694 679/679/679
f 677/677/677 695/695/695 681/681/681
f 681/681/681 695/695/695 685/685/685
f 685/685/685 695/695/695 688/688/688
f 688/688/688 695/695/695 691/691/691
f 691/691/691 695/695/695 693/693/693
f 693/693/693 695/695/695 677/677/677
f 696/696/696 713/713/713 699/699/699
f 696/696/696 709/709/709 713/713/713
f 698/698/698 715/715/715 701/701/701
f 698/698/698 711/711/711 715/715/715
f 700/700/700 717/717/717 702/702/702
f 700/700/700 714/714/714 717/717/717
f 703/703/703 720/720/720 704/704/704
f 703/703/703 718/718/718 720/720/720
f 705/705/705 723/723/723 706/706/706
f 705/705/705 721/721/721 723/723/723
f 707/707/707 710/710/710 697/697/697
f 707/707/707 725/725/725 710/710/710
f 708/708/708 726/726/726 712/712/712
f 712/712/712 726/726/726 716/716/716
f 716/716/716 726/726/726 719/719/719
f 719/719/719 726/726/726 722/722/722
f 722/722/722 726/726/726 724/724/724
f 724/724/724 726/726/726 708/708/708
f 727/727/727 744/744/744 730/730/730
f 727/727/727 740/740/740 744/744/744
f 729/729/729 746/746/746 732/732/732
f 729/729/729 742/742/742 746/746/746
f 731/731/731 748/748/748 733/733/733
f 731/731/731 745/745/745 748/748/748
f 734/734/734 751/751/751 735/735/735
f 734/734/734 749/749/749 751/751/751
f 736/736/736 754/754/754 737/737/737
f 736/736/736 752/752/752 754/754/754
f 738/738/738 741/741/741 728/728/728
f 738/738/738 756/756/756 741/741/741
f 739/739/739 757/757/757 743/743/743
f 743/743/743 757/757/757 747/747/747
f 747/747/747 757/757/757 750/750/750
f 750/750/750 757/757/757 753/753/753
f 753/753/753 757/757/757 755/755/755
f 755/755/755 757/757/757 739/739/739
f 758/758/758 775/775/775 761/761/761
f 758/758/758 771/771/771 775/775/775
f 760/760/760 777/777/777 763/763/763
f 760/760/760 773/773/773 777/777/777
f 762/762/762 779/779/779 764/764/764
f 762/762/762 776/776/776 779/779/779
f 765/765/765 782/782/782 766/766/766
f 765/765/765 780/780/780 782/782/782
f 767/767/767 785/785/785 768/768/768
f 767/767/767 783/783/783 785/785/785
f 769/769/769 772/772/772 759/759/759
f 769/769/769 787/787/787 772/772/772
f 770/770/770 788/788/788 774/774/774
f 774/774/774 788/788/788 778/778/778
f 778/778/778 788/788/788 781/781/781
f 781/781/781 788/788/788 784/784/784
f 784/784/784 788/788/788 786/786/786
f 786/786/786 788/788/788 770/770/770
f 789/789/789 806/806/806 792/792/792
f 789/789/789 802/802/802 806/806/806
f 791/791/791 808/808/808 794/794/794
f 791/791/791 804/804/804 808/808/808
f 793/793/793 810/810/810 795/795/795
f 793/793/793 807/807/807 810/810/810
f 796/796/796 813/813/813 797/797/797
f 796/796/796 811/811/811 813/813/813
f 798/798/798 816/816/816 799/799/799
f 798/798/798 814/814/814 816/816/816
f 800/800/800 803/803/803 790/790/790
f 800/800/800 818/818/818 803/803/803
f 801/801/801 819/819/819 805/805/805
f 805/805/805 819/819/819 809/809/809
f 809/809/809 819/819/819 812/812/812
f 812/812/812 819/819/819 815/815/815
f 815/815/815 819/819/819 817/817/817
f 817/817/817 819/819/819 801/801/801
f 820/820/820 837/837/837 823/823/823
f 820/820/820 833/833/833 837/837/837
f 822/822/822 839/839/839 825/825/825
f 822/822/822 835/835/835 839/839/839
f 824/824/824 841/841/841 826/826/826
f 824/824/824 838/838/838 841/841/841
f 827/827/827 844/844/844 828/828/828
f 827/827/827 842/842/842 844/844/844
f 829/829/829 847/847/847 830/830/830
f 829/829/829 845/845/845 847/847/847
f 831/831/831 834/834/834 821/821/821
f 831/831/831 849/849/849 834/834/834
f 832/832/832 850/850/850 836/836/836
f 836/836/836 850/850/850 840/840/840
f 840/840/840 850/850/850 843/843/843
f 843/843/843 850/850/850 846/846/846
f 846/846/846 850/850/850 848/848/848
f 848/848/848 850/850/850 832/832/832
